<svg width="19" height="18" viewBox="0 0 19 18" fill="none" xmlns="http://www.w3.org/2000/svg">
<path d="M10.8333 0.666504C10.3912 0.666504 9.9673 0.842099 9.65474 1.15466C9.34218 1.46722 9.16659 1.89114 9.16659 2.33317V15.6665C9.16659 16.1085 9.34218 16.5325 9.65474 16.845C9.9673 17.1576 10.3912 17.3332 10.8333 17.3332H18.3333V0.666504H10.8333ZM16.6666 7.33317V10.6665H10.8333V7.33317H16.6666ZM16.6666 12.3332V15.6665H10.8333V12.3332H16.6666ZM16.6666 2.33317V5.6665H10.8333V2.33317H16.6666ZM7.49992 8.1665H4.99992V5.6665H3.33325V8.1665H0.833252V9.83317H3.33325V12.3332H4.99992V9.83317H7.49992V8.1665Z" fill="white"/>
</svg>
