<svg width="23" height="23" viewBox="0 0 23 23" fill="none" xmlns="http://www.w3.org/2000/svg">
<path fill-rule="evenodd" clip-rule="evenodd" d="M15.5552 21.6436C14.1903 22.209 12.7274 22.5 11.25 22.5C8.26631 22.5 5.40483 21.3147 3.29505 19.205C1.18526 17.0952 0 14.2337 0 11.25C0 8.26631 1.18526 5.40483 3.29505 3.29505C5.40483 1.18527 8.26631 4.44604e-08 11.25 0C12.7274 -2.20145e-08 14.1903 0.29099 15.5552 0.856356C16.9201 1.42172 18.1603 2.25039 19.2049 3.29505C20.2496 4.33971 21.0783 5.5799 21.6436 6.94481C22.209 8.30973 22.5 9.77263 22.5 11.25C22.5 12.7274 22.209 14.1903 21.6436 15.5552C21.0783 16.9201 20.2496 18.1603 19.2049 19.205C18.1603 20.2496 16.9201 21.0783 15.5552 21.6436ZM6.7675 8.75L9.01 6.51V6.5075C9.12622 6.39128 9.21841 6.25331 9.28131 6.10146C9.3442 5.94961 9.37658 5.78686 9.37658 5.6225C9.37658 5.45814 9.3442 5.29539 9.28131 5.14354C9.21841 4.99169 9.12622 4.85372 9.01 4.7375C8.89378 4.62128 8.75581 4.52909 8.60396 4.46619C8.45211 4.40329 8.28936 4.37092 8.125 4.37092C7.96064 4.37092 7.79789 4.40329 7.64604 4.46619C7.49419 4.52909 7.35622 4.62128 7.24 4.7375L2.865 9.1125C2.74879 9.22781 2.65647 9.36491 2.59331 9.51595C2.53016 9.66699 2.49741 9.829 2.49694 9.99271C2.49648 10.1564 2.52831 10.3186 2.5906 10.47C2.6529 10.6214 2.74445 10.759 2.86 10.875L7.24 15.26C7.47472 15.4947 7.79306 15.6266 8.125 15.6266C8.45694 15.6266 8.77528 15.4947 9.01 15.26C9.24471 15.0253 9.37658 14.7069 9.37658 14.375C9.37658 14.0431 9.24471 13.7247 9.01 13.49L6.7675 11.25H10.625C11.7853 11.25 12.8981 11.7109 13.7186 12.5314C14.5391 13.3519 15 14.4647 15 15.625V16.25C15 16.5815 15.1317 16.8995 15.3661 17.1339C15.6005 17.3683 15.9185 17.5 16.25 17.5C16.5815 17.5 16.8995 17.3683 17.1339 17.1339C17.3683 16.8995 17.5 16.5815 17.5 16.25V15.625C17.5 14.7222 17.3222 13.8282 16.9767 12.9941C16.6312 12.1599 16.1248 11.402 15.4864 10.7636C14.848 10.1252 14.0901 9.61883 13.2559 9.27333C12.4218 8.92783 11.5278 8.75 10.625 8.75H6.7675Z" fill="white"/>
</svg>
