<svg width="16" height="16" viewBox="0 0 16 16" fill="none" xmlns="http://www.w3.org/2000/svg">
<path d="M9.16667 1.25C9.16667 0.918479 9.03497 0.600537 8.80055 0.366117C8.56613 0.131696 8.24819 0 7.91667 0C7.58515 0 7.2672 0.131696 7.03278 0.366117C6.79836 0.600537 6.66667 0.918479 6.66667 1.25V6.66667H1.25C0.918479 6.66667 0.600537 6.79836 0.366117 7.03278C0.131696 7.2672 0 7.58515 0 7.91667C0 8.24819 0.131696 8.56613 0.366117 8.80055C0.600537 9.03497 0.918479 9.16667 1.25 9.16667H6.66667V14.5833C6.66667 14.9149 6.79836 15.2328 7.03278 15.4672C7.2672 15.7016 7.58515 15.8333 7.91667 15.8333C8.24819 15.8333 8.56613 15.7016 8.80055 15.4672C9.03497 15.2328 9.16667 14.9149 9.16667 14.5833V9.16667H14.5833C14.9149 9.16667 15.2328 9.03497 15.4672 8.80055C15.7016 8.56613 15.8333 8.24819 15.8333 7.91667C15.8333 7.58515 15.7016 7.2672 15.4672 7.03278C15.2328 6.79836 14.9149 6.66667 14.5833 6.66667H9.16667V1.25Z" fill="white"/>
</svg>
