<svg width="18" height="18" viewBox="0 0 18 18" fill="none" xmlns="http://www.w3.org/2000/svg">
<path d="M12.4191 1.51061C12.6854 1.23904 13.0028 1.02294 13.3531 0.874788C13.7034 0.72664 14.0795 0.649387 14.4599 0.647497C14.8402 0.645606 15.2171 0.719114 15.5688 0.863772C15.9205 1.00843 16.2401 1.22137 16.5091 1.49028C16.778 1.75919 16.991 2.07874 17.1357 2.43046C17.2803 2.78217 17.3539 3.15908 17.352 3.53939C17.3502 3.9197 17.273 4.29588 17.1249 4.64617C16.9768 4.99646 16.7607 5.31392 16.4891 5.5802L15.5708 6.5002L11.5 2.42936L12.4187 1.5102L12.4191 1.51061ZM10.7637 3.16686L2.34913 11.5823C2.0317 11.8997 1.80547 12.2966 1.69413 12.7314L0.682883 16.6835C0.66057 16.7711 0.661413 16.8629 0.685329 16.95C0.709246 17.0372 0.755413 17.1166 0.819297 17.1805C0.88318 17.2443 0.962582 17.2905 1.0497 17.3144C1.13683 17.3383 1.22867 17.3392 1.31622 17.3169L5.26913 16.3069C5.7043 16.1957 6.10152 15.9694 6.41913 15.6519L14.8337 7.23603L10.7637 3.16686Z" fill="#333333"/>
</svg>
