<svg width="20" height="20" viewBox="0 0 20 20" fill="none" xmlns="http://www.w3.org/2000/svg">
<path fill-rule="evenodd" clip-rule="evenodd" d="M9.97 0C7.32589 0.000331446 4.79018 1.05085 2.92051 2.92051C1.05085 4.79018 0.000331446 7.32589 0 9.97C0 14.3725 2.875 18.1038 6.78875 19.45C7.27875 19.5113 7.46125 19.205 7.46125 18.96V17.2475C4.71 17.86 4.09875 15.9025 4.09875 15.9025C3.67 14.74 2.9975 14.4337 2.9975 14.4337C2.08 13.8225 3.0575 13.8225 3.0575 13.8225C4.03625 13.8837 4.5875 14.8625 4.5875 14.8625C5.505 16.3913 6.91125 15.9625 7.4625 15.7187C7.5225 15.0462 7.82875 14.6187 8.07375 14.3737C5.87125 14.1287 3.5475 13.2725 3.5475 9.41875C3.5475 8.31875 3.91375 7.46125 4.5875 6.7275C4.525 6.54375 4.15875 5.505 4.71 4.15875C4.71 4.15875 5.56625 3.91375 7.46125 5.19875C8.25625 4.95375 9.11375 4.8925 9.97 4.8925C10.8262 4.8925 11.6825 5.015 12.4775 5.19875C14.3738 3.915 15.23 4.15875 15.23 4.15875C15.78 5.505 15.4125 6.54375 15.3513 6.78875C16.0249 7.5226 16.3963 8.48387 16.3912 9.48C16.3912 13.3338 14.0663 14.1287 11.8663 14.3737C12.2325 14.6787 12.5388 15.29 12.5388 16.2075V18.96C12.5388 19.205 12.7213 19.51 13.2113 19.45C15.1938 18.7809 16.9158 17.5057 18.1341 15.8045C19.3523 14.1034 20.005 12.0624 20 9.97C19.9388 4.465 15.475 0 9.97 0Z" fill="#333333"/>
</svg>
