<svg width="18" height="18" viewBox="0 0 18 18" fill="none" xmlns="http://www.w3.org/2000/svg">
<circle cx="9" cy="9" r="5" fill="white"/>
<path d="M8.99996 0.666504C13.6025 0.666504 17.3333 4.39734 17.3333 8.99984C17.3333 13.6023 13.6025 17.3332 8.99996 17.3332C4.39746 17.3332 0.666626 13.6023 0.666626 8.99984C0.666626 4.39734 4.39746 0.666504 8.99996 0.666504ZM8.99996 4.83317C8.84893 4.83318 8.70301 4.88787 8.58918 4.98714C8.47536 5.08641 8.40133 5.22354 8.38079 5.37317L8.37496 5.45817V8.37484H5.45829C5.29994 8.37489 5.14751 8.43504 5.0318 8.54315C4.91609 8.65125 4.84573 8.79925 4.83494 8.95724C4.82414 9.11522 4.87372 9.27141 4.97365 9.39425C5.07358 9.51709 5.21642 9.59742 5.37329 9.619L5.45829 9.62484H8.37496V12.5415C8.37501 12.6999 8.43516 12.8523 8.54327 12.968C8.65138 13.0837 8.79937 13.1541 8.95736 13.1649C9.11534 13.1757 9.27154 13.1261 9.39437 13.0261C9.51721 12.9262 9.59754 12.7834 9.61913 12.6265L9.62496 12.5415V9.62484H12.5416C12.7 9.62479 12.8524 9.56463 12.9681 9.45653C13.0838 9.34842 13.1542 9.20042 13.165 9.04244C13.1758 8.88445 13.1262 8.72826 13.0263 8.60542C12.9263 8.48258 12.7835 8.40226 12.6266 8.38067L12.5416 8.37484H9.62496V5.45817C9.62496 5.29241 9.55911 5.13344 9.4419 5.01623C9.32469 4.89902 9.16572 4.83317 8.99996 4.83317Z" fill="#333333"/>
</svg>
