<svg width="18" height="18" viewBox="0 0 18 18" fill="none" xmlns="http://www.w3.org/2000/svg">
<path d="M8.99996 4.93751C9.67983 4.93751 10.3444 5.13911 10.9097 5.51683C11.475 5.89455 11.9156 6.43141 12.1758 7.05953C12.436 7.68766 12.504 8.37882 12.3714 9.04563C12.2388 9.71244 11.9114 10.3249 11.4306 10.8057C10.9499 11.2864 10.3374 11.6138 9.67058 11.7465C9.00377 11.8791 8.31261 11.811 7.68449 11.5508C7.05636 11.2907 6.5195 10.8501 6.14178 10.2848C5.76407 9.71949 5.56246 9.05488 5.56246 8.37501C5.56246 7.46333 5.92462 6.58899 6.56928 5.94433C7.21394 5.29967 8.08828 4.93751 8.99996 4.93751ZM12.75 4.00001H14V5.25001C14 5.41577 14.0658 5.57474 14.183 5.69195C14.3002 5.80916 14.4592 5.87501 14.625 5.87501C14.7907 5.87501 14.9497 5.80916 15.0669 5.69195C15.1841 5.57474 15.25 5.41577 15.25 5.25001V4.00001H16.5C16.6657 4.00001 16.8247 3.93416 16.9419 3.81695C17.0591 3.69974 17.125 3.54077 17.125 3.37501C17.125 3.20925 17.0591 3.05028 16.9419 2.93307C16.8247 2.81586 16.6657 2.75001 16.5 2.75001H15.25V1.50001C15.25 1.33425 15.1841 1.17528 15.0669 1.05807C14.9497 0.940857 14.7907 0.875009 14.625 0.875009C14.4592 0.875009 14.3002 0.940857 14.183 1.05807C14.0658 1.17528 14 1.33425 14 1.50001V2.75001H12.75C12.5842 2.75001 12.4252 2.81586 12.308 2.93307C12.1908 3.05028 12.125 3.20925 12.125 3.37501C12.125 3.54077 12.1908 3.69974 12.308 3.81695C12.4252 3.93416 12.5842 4.00001 12.75 4.00001ZM16.2929 7.1336C16.1295 7.16096 15.9835 7.25213 15.8873 7.38707C15.791 7.52201 15.7523 7.68965 15.7796 7.85313C15.8431 8.23213 15.875 8.61574 15.875 9.00001C15.8764 10.683 15.2579 12.3075 14.1375 13.5633C13.6828 12.9044 13.1057 12.3392 12.4375 11.8984C12.3804 11.8606 12.3125 11.8426 12.2442 11.8471C12.1759 11.8516 12.1109 11.8784 12.0593 11.9234C11.2102 12.6582 10.1248 13.0626 9.00191 13.0626C7.87901 13.0626 6.79365 12.6582 5.94449 11.9234C5.8926 11.8775 5.82691 11.8501 5.75775 11.8456C5.68859 11.8411 5.6199 11.8597 5.56246 11.8984C4.89321 12.3387 4.3152 12.904 3.86012 13.5633C2.98086 12.5725 2.40656 11.3488 2.20631 10.0393C2.00606 8.72985 2.18837 7.39042 2.73133 6.18212C3.27428 4.97382 4.15475 3.94811 5.26684 3.22836C6.37893 2.5086 7.67528 2.12546 8.99996 2.12501C9.38423 2.12495 9.76784 2.15683 10.1468 2.22032C10.3096 2.246 10.4759 2.20638 10.6096 2.11008C10.7432 2.01378 10.8335 1.86859 10.8607 1.70609C10.8879 1.54359 10.8498 1.37693 10.7547 1.24236C10.6597 1.10779 10.5153 1.0162 10.3531 0.987509C8.65577 0.701974 6.91163 0.963239 5.37249 1.73358C3.83334 2.50393 2.57884 3.74348 1.7901 5.27329C1.00137 6.80309 0.719221 8.54397 0.984394 10.2446C1.24957 11.9452 2.04834 13.5175 3.26539 14.7346C4.48243 15.9516 6.05477 16.7504 7.75538 17.0156C9.45599 17.2807 11.1969 16.9986 12.7267 16.2099C14.2565 15.4211 15.496 14.1666 16.2664 12.6275C17.0367 11.0883 17.298 9.3442 17.0125 7.64688C16.9851 7.48341 16.8939 7.33749 16.759 7.24123C16.6241 7.14498 16.4564 7.10626 16.2929 7.1336Z" fill="white"/>
</svg>
