<svg width="17" height="17" viewBox="0 0 17 17" fill="none" xmlns="http://www.w3.org/2000/svg">
<path fill-rule="evenodd" clip-rule="evenodd" d="M8 17C12.4183 17 16 13.4183 16 9C16 4.58172 12.4183 1 8 1C3.58172 1 0 4.58172 0 9C0 13.4183 3.58172 17 8 17ZM8 16C11.866 16 15 12.866 15 9C15 5.13401 11.866 2 8 2C4.13401 2 1 5.13401 1 9C1 12.866 4.13401 16 8 16Z" fill="white"/>
<path fill-rule="evenodd" clip-rule="evenodd" d="M8.11251 4.375C8.79238 4.375 9.45699 4.57661 10.0223 4.95432C10.5876 5.33204 11.0282 5.8689 11.2883 6.49703C11.5485 7.12515 11.6166 7.81631 11.484 8.48312C11.3513 9.14993 11.0239 9.76244 10.5432 10.2432C10.0624 10.7239 9.44994 11.0513 8.78313 11.1839C8.11632 11.3166 7.42516 11.2485 6.79703 10.9883C6.16891 10.7282 5.63205 10.2876 5.25433 9.72227C4.87661 9.15698 4.67501 8.49237 4.67501 7.8125C4.67501 6.90082 5.03717 6.02648 5.68183 5.38182C6.32649 4.73716 7.20083 4.375 8.11251 4.375Z" fill="white"/>
<path fill-rule="evenodd" clip-rule="evenodd" d="M11.5453 11.3359C12.2144 11.7765 12.7924 12.3417 13.2477 13.0008L13.9314 14.0993C13.3255 14.7207 12.6202 15.2447 11.8392 15.6474C10.3094 16.4361 8.56854 16.7182 6.86793 16.4531C5.16732 16.1879 3.59498 15.3891 2.37794 14.1721L2.97501 13.0008C3.4294 12.3417 4.0066 11.7765 4.67501 11.3359C4.732 11.2983 4.79975 11.2804 4.86789 11.2849C4.93604 11.2894 5.00083 11.3161 5.05235 11.3609C5.90151 12.0957 6.98687 12.5001 8.10977 12.5001C9.23268 12.5001 10.318 12.0957 11.1672 11.3609C11.2188 11.3159 11.2837 11.2891 11.352 11.2846C11.4203 11.2801 11.4883 11.2981 11.5453 11.3359Z" fill="white"/>
</svg>
