<svg width="17" height="17" viewBox="0 0 17 17" fill="none" xmlns="http://www.w3.org/2000/svg">
<circle cx="8.5" cy="8.5" r="7.5" fill="white"/>
<path d="M15.9445 3.36484L15.5805 3.15469C15.6232 2.92856 15.6232 2.69644 15.5805 2.47031L15.9445 2.26016C16.0881 2.17728 16.1929 2.04075 16.2358 1.88061C16.2788 1.72047 16.2563 1.54984 16.1734 1.40625C16.0906 1.26266 15.954 1.15788 15.7939 1.11495C15.6338 1.07202 15.4631 1.09446 15.3195 1.17734L14.9547 1.38828C14.7801 1.23848 14.5793 1.12221 14.3625 1.04531V0.625C14.3625 0.45924 14.2967 0.300268 14.1795 0.183058C14.0622 0.065848 13.9033 0 13.7375 0C13.5717 0 13.4128 0.065848 13.2956 0.183058C13.1784 0.300268 13.1125 0.45924 13.1125 0.625V1.04531C12.8957 1.12221 12.6949 1.23848 12.5203 1.38828L12.1555 1.17734C12.0844 1.13631 12.0059 1.10967 11.9245 1.09897C11.8431 1.08826 11.7604 1.09369 11.6811 1.11495C11.6018 1.1362 11.5275 1.17287 11.4624 1.22285C11.3972 1.27283 11.3426 1.33515 11.3016 1.40625C11.2605 1.47735 11.2339 1.55583 11.2232 1.63722C11.2125 1.71862 11.2179 1.80132 11.2392 1.88061C11.2604 1.9599 11.2971 2.03423 11.3471 2.09936C11.3971 2.16448 11.4594 2.21912 11.5305 2.26016L11.8945 2.47031C11.8518 2.69644 11.8518 2.92856 11.8945 3.15469L11.5305 3.36484C11.4113 3.4336 11.3181 3.53979 11.2654 3.66693C11.2127 3.79407 11.2034 3.93505 11.239 4.06799C11.2746 4.20093 11.3531 4.3184 11.4623 4.40216C11.5715 4.48593 11.7053 4.5313 11.843 4.53125C11.9527 4.53159 12.0606 4.50274 12.1555 4.44766L12.5203 4.23672C12.6949 4.38652 12.8957 4.50279 13.1125 4.57969V5C13.1125 5.16576 13.1784 5.32473 13.2956 5.44194C13.4128 5.55915 13.5717 5.625 13.7375 5.625C13.9033 5.625 14.0622 5.55915 14.1795 5.44194C14.2967 5.32473 14.3625 5.16576 14.3625 5V4.57969C14.5793 4.50279 14.7801 4.38652 14.9547 4.23672L15.3195 4.44766C15.4145 4.50274 15.5223 4.53159 15.632 4.53125C15.7697 4.5313 15.9035 4.48593 16.0127 4.40216C16.1219 4.3184 16.2004 4.20093 16.236 4.06799C16.2716 3.93505 16.2623 3.79407 16.2097 3.66693C16.157 3.53979 16.0638 3.4336 15.9445 3.36484ZM13.7375 3.4375C13.6139 3.4375 13.4931 3.40084 13.3903 3.33217C13.2875 3.26349 13.2074 3.16588 13.1601 3.05168C13.1128 2.93747 13.1004 2.81181 13.1245 2.69057C13.1486 2.56933 13.2082 2.45797 13.2956 2.37056C13.383 2.28315 13.4943 2.22362 13.6156 2.19951C13.7368 2.17539 13.8625 2.18777 13.9767 2.23508C14.0909 2.28238 14.1885 2.36249 14.2572 2.46527C14.3259 2.56805 14.3625 2.68889 14.3625 2.8125C14.3625 2.97826 14.2967 3.13723 14.1795 3.25444C14.0622 3.37165 13.9033 3.4375 13.7375 3.4375ZM8.11251 4.375C8.79238 4.375 9.45699 4.57661 10.0223 4.95432C10.5876 5.33204 11.0282 5.8689 11.2883 6.49703C11.5485 7.12515 11.6166 7.81631 11.484 8.48312C11.3513 9.14993 11.0239 9.76244 10.5432 10.2432C10.0624 10.7239 9.44994 11.0513 8.78313 11.1839C8.11632 11.3166 7.42516 11.2485 6.79703 10.9883C6.16891 10.7282 5.63205 10.2876 5.25433 9.72227C4.87661 9.15698 4.67501 8.49237 4.67501 7.8125C4.67501 6.90082 5.03717 6.02648 5.68183 5.38182C6.32649 4.73716 7.20083 4.375 8.11251 4.375ZM16.125 7.08437C16.4105 8.78169 16.1493 10.5258 15.3789 12.065C14.6086 13.6041 13.369 14.8586 11.8392 15.6474C10.3094 16.4361 8.56854 16.7182 6.86793 16.4531C5.16732 16.1879 3.59498 15.3891 2.37794 14.1721C1.16089 12.955 0.362116 11.3827 0.096943 9.68208C-0.168231 7.98147 0.113919 6.24058 0.902652 4.71078C1.69139 3.18098 2.94589 1.94142 4.48504 1.17107C6.02418 0.40073 7.76832 0.139465 9.46563 0.425C9.62787 0.453691 9.77222 0.545283 9.86728 0.679852C9.96234 0.814421 10.0004 0.981082 9.97323 1.14358C9.94604 1.30608 9.85579 1.45127 9.72211 1.54757C9.58843 1.64387 9.42213 1.68349 9.25938 1.65781C8.27355 1.49197 7.26342 1.54295 6.29929 1.80719C5.33516 2.07144 4.44019 2.5426 3.67666 3.18789C2.91314 3.83318 2.2994 4.6371 1.87816 5.54371C1.45692 6.45031 1.2383 7.43781 1.23751 8.4375C1.23603 10.1205 1.85458 11.745 2.97501 13.0008C3.4294 12.3417 4.0066 11.7765 4.67501 11.3359C4.732 11.2983 4.79975 11.2804 4.86789 11.2849C4.93604 11.2894 5.00083 11.3161 5.05235 11.3609C5.90151 12.0957 6.98687 12.5001 8.10977 12.5001C9.23268 12.5001 10.318 12.0957 11.1672 11.3609C11.2188 11.3159 11.2837 11.2891 11.352 11.2846C11.4204 11.2801 11.4883 11.2981 11.5453 11.3359C12.2144 11.7765 12.7924 12.3417 13.2477 13.0008C14.3689 11.7453 14.9883 10.1208 14.9875 8.4375C14.9875 8.05323 14.9557 7.66962 14.8922 7.29063C14.8778 7.20932 14.8797 7.12598 14.8977 7.0454C14.9157 6.96483 14.9495 6.88862 14.9972 6.82119C15.0448 6.75375 15.1053 6.69642 15.1752 6.65251C15.2452 6.6086 15.3231 6.57898 15.4045 6.56535C15.4859 6.55173 15.5693 6.55438 15.6497 6.57314C15.7301 6.5919 15.806 6.62641 15.873 6.67467C15.94 6.72292 15.9967 6.78398 16.04 6.8543C16.0832 6.92462 16.1121 7.00282 16.125 7.08437Z" fill="#333333"/>
</svg>
