<svg width="636" height="487" viewBox="0 0 636 487" fill="none" xmlns="http://www.w3.org/2000/svg">
<path opacity="0.15" d="M297 487C436.176 487 549 478.941 549 469C549 459.059 436.176 451 297 451C157.824 451 45 459.059 45 469C45 478.941 157.824 487 297 487Z" fill="#7F7C7C"/>
<path d="M264.85 191.064C285.458 174.035 258.533 154.066 240.894 162.333C240.894 162.333 233.501 147.546 221.072 141.724C208.643 135.931 190.713 139.308 189.17 145.071C189.17 145.071 165.797 104.726 111.744 108.481C57.6911 112.236 64.8806 164.429 64.8806 164.429C64.8806 164.429 51.9278 150.049 33.2989 157.006C18.3377 162.595 -0.494933 179.886 16.0964 193.481C34.5506 208.647 234.985 215.72 264.85 191.064Z" fill="#D9FAFF"/>
<path d="M407.331 320.893C391.875 299.876 421.885 285.699 437.254 293.093C437.254 293.093 439.058 269.311 451.895 265.032C472.066 258.307 481.381 269.689 482.254 277.636C482.254 277.636 502.6 241.482 549.638 244.859C596.676 248.206 590.447 294.956 590.447 294.956C590.447 294.956 601.741 282.09 617.924 288.319C630.965 293.326 641.531 306.978 632.769 320.922C621.738 338.388 425.582 345.665 407.331 320.893Z" fill="#D9FAFF"/>
<path d="M279.666 109.238C286.535 99.8936 273.204 93.5769 266.364 96.8662C266.364 96.8662 265.549 86.2995 259.843 84.3783C250.878 81.38 246.745 86.445 246.338 89.9964C246.338 89.9964 237.285 73.928 216.386 75.4126C195.487 76.8971 198.252 97.6813 198.252 97.6813C198.252 97.6813 193.245 91.9467 186.027 94.7413C180.234 96.9827 175.519 103.037 179.419 109.238C184.338 117.039 271.545 120.27 279.666 109.238Z" fill="#D9FAFF"/>
<path d="M301.321 148.914C287.146 143.791 287.786 132.292 291.57 126.645C295.325 120.998 305.717 115.176 313.197 116.282C320.707 117.388 327.227 121.056 327.227 121.056C327.227 121.056 327.606 113.575 333.369 103.765C339.132 93.9842 361.254 85.0476 377.903 90.8986C394.553 96.7205 401.772 112.905 401.772 112.905C439.641 88.9483 451.604 126.005 451.604 126.005C464.877 121.405 475.996 129.178 477.975 131.128C479.955 133.078 482.487 138.522 476.898 146.003C468.981 156.628 322.657 156.628 301.321 148.914Z" fill="#D9FAFF"/>
<path d="M409.142 316.937L406.834 451.497L600.031 454.81L602.338 320.251L409.142 316.937Z" fill="#F7D157"/>
<path d="M409.136 316.992L494.188 394.743C499.748 399.867 508.916 400.041 514.651 395.093L602.323 320.281L409.136 316.992Z" fill="#FFF666"/>
<path d="M459.899 170.047H100.159V463.442H459.899V170.047Z" fill="#5492EE"/>
<path d="M157.122 228.47H109.619V262.324H157.122V228.47Z" fill="#92DEFC"/>
<path d="M215.483 228.47H167.979V262.324H215.483V228.47Z" fill="#92DEFC"/>
<path d="M273.814 228.47H226.311V262.324H273.814V228.47Z" fill="#92DEFC"/>
<path d="M332.146 228.47H284.643V262.324H332.146V228.47Z" fill="#92DEFC"/>
<path d="M390.477 228.47H342.974V262.324H390.477V228.47Z" fill="#92DEFC"/>
<path d="M448.838 228.47H401.334V262.324H448.838V228.47Z" fill="#F25A46"/>
<path d="M157.122 271.727H109.619V305.581H157.122V271.727Z" fill="#92DEFC"/>
<path d="M215.483 271.727H167.979V305.581H215.483V271.727Z" fill="#92DEFC"/>
<path d="M273.814 271.727H226.311V305.581H273.814V271.727Z" fill="#92DEFC"/>
<path d="M332.146 271.727H284.643V305.581H332.146V271.727Z" fill="#92DEFC"/>
<path d="M390.477 271.727H342.974V305.581H390.477V271.727Z" fill="#92DEFC"/>
<path d="M448.838 271.727H401.334V305.581H448.838V271.727Z" fill="#F25A46"/>
<path d="M157.122 315.012H109.619V348.867H157.122V315.012Z" fill="#92DEFC"/>
<path d="M215.483 315.012H167.979V348.867H215.483V315.012Z" fill="#92DEFC"/>
<path d="M273.814 315.012H226.311V348.867H273.814V315.012Z" fill="#92DEFC"/>
<path d="M332.146 315.012H284.643V348.867H332.146V315.012Z" fill="#92DEFC"/>
<path d="M390.477 315.012H342.974V348.867H390.477V315.012Z" fill="#92DEFC"/>
<path d="M448.838 315.012H401.334V348.867H448.838V315.012Z" fill="#F25A46"/>
<path d="M157.122 358.269H109.619V392.123H157.122V358.269Z" fill="#92DEFC"/>
<path d="M215.483 358.269H167.979V392.123H215.483V358.269Z" fill="#92DEFC"/>
<path d="M273.814 358.269H226.311V392.123H273.814V358.269Z" fill="#92DEFC"/>
<path d="M332.146 358.269H284.643V392.123H332.146V358.269Z" fill="#92DEFC"/>
<path d="M390.477 358.269H342.974V392.123H390.477V358.269Z" fill="#92DEFC"/>
<path d="M448.838 358.269H401.334V392.123H448.838V358.269Z" fill="#F25A46"/>
<path d="M157.122 401.7H109.619V435.555H157.122V401.7Z" fill="#92DEFC"/>
<path d="M215.483 401.7H167.979V435.555H215.483V401.7Z" fill="#92DEFC"/>
<path d="M273.814 401.7H226.311V435.555H273.814V401.7Z" fill="#92DEFC"/>
<path d="M332.146 401.7H284.643V435.555H332.146V401.7Z" fill="#5AADFF"/>
<path d="M390.477 401.7H342.974V435.555H390.477V401.7Z" fill="#5AADFF"/>
<path d="M448.838 401.7H401.334V435.555H448.838V401.7Z" fill="#5AADFF"/>
<path d="M459.899 170.047H100.159V216.943H459.899V170.047Z" fill="#2D55AD"/>
<path d="M219.18 170.047H100.159V189.522H219.18V170.047Z" fill="#EE993C"/>
<path d="M504.852 225.002C530.926 198.926 530.926 156.649 504.852 130.573C478.778 104.498 436.504 104.498 410.43 130.573C384.356 156.649 384.356 198.926 410.43 225.002C436.504 251.078 478.778 251.078 504.852 225.002Z" fill="#F1B846"/>
<path d="M501.316 221.465C525.437 197.343 525.437 158.232 501.316 134.11C477.195 109.987 438.087 109.987 413.966 134.11C389.845 158.232 389.845 197.343 413.966 221.465C438.087 245.588 477.195 245.588 501.316 221.465Z" fill="#EE993C"/>
<path d="M498.249 218.399C520.676 195.97 520.676 159.606 498.249 137.177C475.822 114.748 439.46 114.748 417.033 137.177C394.605 159.606 394.605 195.97 417.032 218.399C439.46 240.827 475.822 240.827 498.249 218.399Z" fill="white"/>
<path d="M457.339 180.227C456.232 180.227 455.339 178.835 455.339 177.109V147.346C455.339 145.619 456.232 145.227 457.339 145.227C458.446 145.227 459.339 145.619 459.339 147.346V177.109C459.339 178.835 458.446 180.227 457.339 180.227Z" fill="#462A51"/>
<path d="M438.592 167.136C439.669 165.244 442.056 164.545 443.977 165.623L459.172 174.123C461.064 175.2 461.762 177.587 460.685 179.508C459.608 181.4 457.221 182.099 455.3 181.021L440.106 172.522C438.214 171.444 437.516 169.057 438.592 167.136Z" fill="#462A51"/>
<path d="M511.158 174.88H498.962V180.556H511.158V174.88Z" fill="#EE993C"/>
<path d="M416.355 174.88H404.159V180.556H416.355V174.88Z" fill="#EE993C"/>
<path d="M462.752 177.791C462.752 180.614 460.452 182.914 457.629 182.914C454.805 182.914 452.506 180.614 452.506 177.791C452.506 174.967 454.805 172.667 457.629 172.667C460.481 172.697 462.752 174.967 462.752 177.791Z" fill="#5492EE"/>
<path d="M460.482 219.039H454.806V231.235H460.482V219.039Z" fill="#EE993C"/>
<path d="M460.482 124.258H454.806V136.455H460.482V124.258Z" fill="#EE993C"/>
<path d="M429.349 132.369L426.396 134.341L431.601 142.136L434.554 140.164L429.349 132.369Z" fill="#F7D157"/>
<path d="M483.646 213.501L480.693 215.473L485.898 223.267L488.851 221.295L483.646 213.501Z" fill="#F7D157"/>
<path d="M419.967 200.887L412.173 206.092L414.145 209.045L421.939 203.84L419.967 200.887Z" fill="#F7D157"/>
<path d="M501.086 146.565L493.292 151.77L495.263 154.724L503.058 149.519L501.086 146.565Z" fill="#F7D157"/>
<path d="M410.762 151.973L409.147 155.136L417.494 159.398L419.109 156.235L410.762 151.973Z" fill="#F7D157"/>
<path d="M497.769 196.249L496.154 199.411L504.501 203.673L506.116 200.511L497.769 196.249Z" fill="#F7D157"/>
<path d="M436.048 216.342L431.786 224.69L434.949 226.305L439.21 217.957L436.048 216.342Z" fill="#F7D157"/>
<path d="M480.311 129.338L476.049 137.686L479.211 139.3L483.473 130.953L480.311 129.338Z" fill="#F7D157"/>
<path d="M45.3787 346.277L45.7571 343.832H43.312H20.841H18.396L18.0176 346.277L15.7181 361.035L15.3397 363.481L13.0402 378.239L13.0111 378.385L10.3623 395.472L10.3332 395.676L7.68439 412.676L7.65529 412.938L5.03561 429.879L4.97739 430.229L2.35771 447.112L2.29949 447.52L0 462.191H2.44503L4.39524 449.557H26.8663L24.9161 462.191H27.3611L29.6606 447.316L29.6897 447.083L32.2221 430.811L32.3676 429.879L34.7835 414.306L35.0455 412.676L37.345 397.801L37.7234 395.443L40.0229 380.684L40.1393 379.957L42.7008 363.481L42.8754 362.345L45.3787 346.277ZM4.80275 447.083L7.10224 432.325H29.5733L27.2738 447.083H4.80275ZM7.48064 429.879L9.78014 415.121H32.2512L29.9517 429.879H7.48064ZM10.1294 412.647L12.4289 397.888H34.9L32.6005 412.647H10.1294ZM35.2784 395.443H12.8073L15.1068 380.684H37.5779L35.2784 395.443ZM37.9562 378.239H15.4852L17.7847 363.481H40.2557L37.9562 378.239ZM40.6341 361.006H18.1631L20.4626 346.248H42.9336L40.6341 361.006Z" fill="#3476B7"/>
<path d="M75.9709 462.19H78.4159L76.1456 447.49L76.0873 447.082L73.4677 430.199L73.4094 429.849L70.7898 412.908L70.7607 412.646L68.1119 395.646L68.0828 395.442L65.434 378.355L65.4049 378.209L63.1054 363.451L62.727 361.005L60.4275 346.247L60.0491 343.802H57.604H35.133H32.688L33.0664 346.247L35.5696 362.315L35.7443 363.451L38.3057 379.927L38.4222 380.654L40.7217 395.413L41.071 397.771L43.3705 412.646L43.6324 414.276L46.0484 429.849L46.1939 430.781L48.7262 447.053L48.7554 447.286L51.0548 462.161H53.4999L51.5497 449.527H74.0207L75.9709 462.19ZM57.9824 346.276L60.2819 361.035H37.8109L35.5114 346.276H57.9824ZM60.6603 363.48L62.9598 378.238H40.4597L38.1602 363.48H60.6603ZM40.8381 380.683H63.3091L65.6086 395.442H43.1376L40.8381 380.683ZM43.516 397.916H65.987L68.2865 412.675H45.8155L43.516 397.916ZM46.1939 415.12H68.6649L70.9644 429.878H48.4934L46.1939 415.12ZM51.1422 447.082L48.8427 432.324H71.3137L73.6132 447.082H51.1422Z" fill="#F7D157"/>
<path d="M87.6429 450.954C84.8195 448.392 92.5039 417.973 104.554 394.336C116.576 370.699 121.728 364.295 134.011 367.409C147.343 370.786 152.524 389.765 140.502 413.402C128.481 437.039 93.2607 456.106 87.6429 450.954Z" fill="#FFF666"/>
<path d="M90.2044 461.666C85.3435 461.433 66.7437 426.152 58.0406 393.87C49.3374 361.588 48.7844 351.341 63.0762 344.558C78.6196 337.165 99.7517 351.254 108.455 383.536C117.129 415.789 99.9263 462.103 90.2044 461.666Z" fill="#2D55AD"/>
<path d="M93.6682 451.594C90.8738 453.835 62.9597 441.726 41.9731 426.589C20.9866 411.452 15.5144 405.572 19.9387 394.51C24.7415 382.488 43.3994 380.625 64.386 395.762C85.3725 410.87 99.2277 447.111 93.6682 451.594Z" fill="#F25A46"/>
<path d="M106.213 472.524H75.1556C71.2842 472.524 68.1406 469.38 68.1406 465.508V446.209H113.228V465.508C113.228 469.409 110.114 472.524 106.213 472.524Z" fill="#462A51"/>
<path d="M114.334 449.993H67.0637C66.4233 449.993 65.8994 449.469 65.8994 448.829V443.647C65.8994 443.007 66.4233 442.483 67.0637 442.483H114.334C114.975 442.483 115.499 443.007 115.499 443.647V448.829C115.499 449.469 114.975 449.993 114.334 449.993Z" fill="#5BA5EF"/>
<path d="M553.538 447.14C555.023 445.801 550.977 429.878 544.69 417.507C538.402 405.135 535.695 401.759 529.263 403.389C522.277 405.164 519.57 415.091 525.857 427.491C532.173 439.863 550.569 449.847 553.538 447.14Z" fill="#92DEFC"/>
<path d="M552.199 452.729C554.761 452.613 564.483 434.128 569.052 417.245C573.622 400.361 573.913 394.976 566.404 391.425C558.254 387.553 547.193 394.918 542.652 411.831C538.082 428.714 547.105 452.962 552.199 452.729Z" fill="#2D55AD"/>
<path d="M550.365 447.49C551.821 448.654 566.433 442.308 577.436 434.391C588.438 426.473 591.291 423.387 588.962 417.594C586.43 411.307 576.679 410.317 565.705 418.235C554.702 426.153 547.455 445.132 550.365 447.49Z" fill="#F25A46"/>
<path d="M543.787 458.435H560.058C562.096 458.435 563.726 456.805 563.726 454.767V444.666H540.12V454.767C540.12 456.805 541.75 458.435 543.787 458.435Z" fill="#462A51"/>
<path d="M539.538 446.646H564.279C564.628 446.646 564.89 446.384 564.89 446.034V443.327C564.89 442.978 564.628 442.716 564.279 442.716H539.538C539.188 442.716 538.926 442.978 538.926 443.327V446.034C538.926 446.354 539.217 446.646 539.538 446.646Z" fill="#5492EE"/>
<path d="M308.074 272.629C303.301 272.222 298.44 272.047 294.074 274.347C290.115 276.413 286.593 280.227 283.944 283.749C281.15 287.475 279.403 292.191 280.51 296.877C281.616 301.564 285.458 304.3 289.649 306.076C294.365 308.085 299.226 309.657 304.349 310.122C309.646 310.588 314.944 309.424 320.008 307.968C324.404 306.716 329.265 305.581 332.059 301.651C334.242 298.566 334.824 294.228 333.602 290.677C332.001 285.99 327.809 283.371 323.094 282.439C317.331 281.304 311.276 281.275 305.455 281.77C301.234 282.119 301.205 288.756 305.455 288.407C309.442 288.086 313.459 288.057 317.447 288.377C320.3 288.61 324.025 288.814 326.179 290.939C327.693 292.453 327.984 294.985 327.198 296.936C326.034 299.788 322.512 300.371 319.892 301.157C316.05 302.292 312.12 303.427 308.074 303.631C304.145 303.806 300.361 302.99 296.664 301.739C293.812 300.778 289.94 299.73 287.932 297.314C285.836 294.752 287.059 291.114 288.631 288.669C290.552 285.699 293.55 282.526 296.548 280.634C300.012 278.48 304.232 278.975 308.104 279.324C312.324 279.645 312.324 273.008 308.074 272.629Z" fill="#EE7030"/>
<path d="M188.5 355.242C181.66 359.405 176.275 365.576 173.19 372.97C171.589 376.812 170.279 381.208 172.026 385.225C173.597 388.834 177.236 391.396 180.7 392.997C187.889 396.315 196.243 396.344 203.491 393.172C206.867 391.687 210.186 389.358 211.903 386.011C213.737 382.43 213.678 377.773 212.805 373.93C210.273 362.723 196.505 364.557 188.209 367.322C184.163 368.661 185.91 375.065 189.985 373.726C193.274 372.649 196.621 371.98 200.085 371.951C202.705 371.922 205.266 371.98 206.198 374.833C206.925 377.074 207.158 380.538 206.198 382.692C205.179 384.934 202.705 386.36 200.551 387.291C195.515 389.475 189.577 389.533 184.513 387.495C182.359 386.622 179.681 385.196 178.4 383.158C176.974 380.858 178.4 377.598 179.361 375.357C181.922 369.389 186.346 364.411 191.877 361.035C195.486 358.764 192.139 353 188.5 355.242Z" fill="#EE7030"/>
<path d="M353.538 146.046L352.24 149.258L356.369 150.927L357.667 147.715L353.538 146.046Z" fill="#FBA587"/>
<path d="M312.673 123.647C310.868 125.684 320.154 140.152 324.811 143.587C329.468 147.022 353.016 150.369 353.016 150.369L355.345 145.857C355.345 145.857 336.192 138.813 329.788 136.63C327.343 129.818 320.154 119.018 320.154 119.018C318.611 117.708 314.478 121.638 312.673 123.647Z" fill="#EE993C"/>
<path d="M356.189 148.856C356.276 149.001 358.256 146.032 359.682 144.838C361.108 143.645 358.692 148.681 358.692 148.681L356.189 148.856Z" fill="#FBA587"/>
<path d="M355.461 150.107C355.578 150.951 356.073 151.65 356.859 151.825C357.644 151.999 359.711 152.116 360.584 150.457C361.458 148.797 359.187 148.07 358.634 147.953C358.081 147.837 356.975 146.963 356.364 147.371C355.723 147.808 355.345 149.263 355.461 150.107Z" fill="#FBA587"/>
<path d="M324.792 219.204L323.233 224.084L326.477 225.121L328.036 220.241L324.792 219.204Z" fill="#FFB68E"/>
<path d="M323.501 222.968C323.792 223.085 324.724 223.842 325.422 223.987C326.237 224.162 327.169 223.58 327.489 223.754C327.809 223.929 330.341 227.451 330.341 227.451L333.194 229.256C333.543 229.489 333.689 229.926 333.543 230.304L333.34 230.886L333.048 231.73L327.634 229.78L324.753 228.033L324.52 228.645L320.969 227.364L321.493 225.908C321.9 224.802 323.21 222.852 323.501 222.968Z" fill="#3E2447"/>
<path d="M349.92 216.787L346.538 217.19L347.144 222.277L350.526 221.874L349.92 216.787Z" fill="#FFB68E"/>
<path d="M346.904 221.164C347.224 221.135 348.359 221.455 349.087 221.309C349.902 221.135 350.484 220.203 350.862 220.232C351.212 220.261 354.996 222.415 354.996 222.415L358.343 222.881C358.751 222.939 359.071 223.26 359.1 223.696L359.158 224.307L359.216 225.181L353.482 225.647L350.135 225.268L350.193 225.938L346.438 226.229L346.322 224.686C346.205 223.492 346.613 221.193 346.904 221.164Z" fill="#3E2447"/>
<path d="M347.981 170.746L350.658 218.253L345.623 218.689C345.623 218.689 338.899 195.664 338.754 191.326C338.608 186.989 337.415 170.892 337.415 170.892L347.981 170.746Z" fill="#3476B7"/>
<path d="M302.748 157.21C302.748 157.21 299.138 169.028 309.093 172.463C317.447 175.345 334.125 177.208 334.125 177.208C334.125 177.208 330.516 185.271 328.653 191.181C326.79 197.09 323.763 219.97 323.763 219.97L328.217 221.542C328.217 221.542 344.517 181.837 349.232 172.754C353.395 164.691 346.205 162.683 343.76 161.955C341.373 161.256 325.189 157.21 325.189 157.21H302.748V157.21Z" fill="#5BA5EF"/>
<path d="M315.613 117.301C314.07 117.01 312.236 116.282 312.527 114.768L313.692 107.753L319.222 108.801L318.058 115.816C317.767 117.33 317.126 117.592 315.613 117.301Z" fill="#FFBA9F"/>
<path d="M318.32 114.506L319.222 108.772L313.692 107.724L312.644 114.157L318.32 114.506Z" fill="#F3937A"/>
<path d="M323.588 101.436C323.588 101.436 324.665 110.722 322.715 112.993C320.794 115.263 314.885 110.373 313.459 108.743C312.004 107.142 312.469 104.406 312.469 104.406L316.137 99.0203L323.588 101.436Z" fill="#FFBA9F"/>
<path d="M312.789 107.462C313.342 107.375 316.573 100.621 316.573 100.621L315.846 97.0116C315.846 97.0116 314.536 96.3421 313.284 95.8472C312.033 95.3523 311.218 96.1383 310.781 97.8849C310.344 99.6606 311.683 107.666 312.789 107.462Z" fill="#2F2A4F"/>
<path d="M314.71 100.301C314.71 100.301 322.919 102.455 325.015 101.844C327.11 101.232 330.429 100.214 329.381 96.4877C328.333 92.7616 320.241 94.3918 319.193 94.2171C318.145 94.0716 315.205 93.8678 314.332 94.3627C313.488 94.8575 313.517 95.7599 313.75 97.3609C313.983 98.962 314.71 100.301 314.71 100.301Z" fill="#2F2A4F"/>
<path d="M313.604 103.881C313.779 104.9 314.419 105.599 315.001 105.512C315.583 105.395 315.962 103.765 315.787 102.775C315.613 101.756 314.914 101.786 314.332 101.873C313.75 101.96 313.43 102.863 313.604 103.881Z" fill="#FFBA9F"/>
<path d="M305.134 128.712C305.193 127.664 306.91 111.683 315.264 115.03C322.89 118.058 324.695 126.296 325.335 131.448C326.034 137.241 326.907 157.647 326.907 157.647C326.907 157.647 323.239 157.938 315.817 158.083C308.395 158.229 302.573 157.734 302.573 157.734C302.544 152.989 304.96 131.332 305.134 128.712Z" fill="#EE993C"/>
<path d="M334.916 151.361L334.387 154.666L339.216 155.439L339.745 152.134L334.916 151.361Z" fill="#FFC1A9"/>
<path d="M335.697 155.173L336.745 151.621C336.745 151.621 315.351 145.77 310.927 145.101C306.939 139.628 312.644 124.811 312.644 124.811L307.463 119.775C307.463 119.775 292.938 141.666 298.527 149.292C302.427 154.532 335.697 155.173 335.697 155.173Z" fill="#EE993C"/>
<path d="M328.807 157.276L328.397 158.944L351.889 164.708L352.298 163.04L328.807 157.276Z" fill="#16336D"/>
<path d="M358.805 141.186L351.128 164.125L352.756 164.67L360.434 141.731L358.805 141.186Z" fill="#16336D"/>
<path d="M326.295 149.176C325.655 149.088 310.461 146.789 308.394 143.441C306.328 140.035 314.681 128.974 315.031 128.508L315.38 128.77C315.293 128.886 306.851 140.065 308.773 143.208C310.723 146.41 326.208 148.739 326.353 148.739L326.295 149.176Z" fill="#4C4C84"/>
<path d="M337.385 153.28C337.094 154.561 338.113 155.26 339.539 155.609C340.966 155.958 344.051 158.753 345.244 157.094C346.409 155.434 341.635 152.494 340.209 152.145C338.812 151.796 337.705 151.97 337.385 153.28Z" fill="#FFC1A9"/>
<path d="M427.357 360.773C418.392 360.802 404.886 361.005 400.141 370.379C398.337 373.959 396.969 377.86 397.696 381.906C398.89 388.427 407.244 389.329 412.658 389.766C416.383 390.057 420.225 390.115 423.951 389.853C427.677 389.591 430.384 387.699 433.76 386.418C437.719 384.904 436.002 378.5 431.985 380.014C429.22 381.062 426.629 383.041 423.602 383.245C420.138 383.478 416.529 383.42 413.065 383.187C411.435 383.07 409.805 382.838 408.233 382.488C407.244 382.255 404.595 381.673 404.245 381.091C403.925 380.567 404.042 379.315 404.071 378.704C404.013 379.374 404.1 378.559 404.129 378.384C404.245 377.889 404.42 377.423 404.595 376.957C405.759 373.639 406.982 371.136 410.678 369.593C415.801 367.439 421.855 367.468 427.299 367.439C431.636 367.38 431.636 360.743 427.357 360.773Z" fill="#F7D157"/>
<path d="M484.903 331.925C485.805 331.838 486.766 336.932 486.766 336.932L485.601 337.252C485.572 337.223 483.971 332.013 484.903 331.925Z" fill="#FFBA9F"/>
<path d="M560.99 320.281L457.542 384.701L444.443 376.754L443.075 361.471L546.523 297.052L560.99 320.281Z" fill="#9DD7FC"/>
<path d="M560.99 320.281L457.542 384.701L444.443 376.754L553.771 308.667L560.99 320.281Z" fill="#48A4EF"/>
<path d="M457.542 384.701L431.548 385.399C431.083 385.399 430.762 384.904 430.995 384.497L443.104 361.471L457.542 384.701Z" fill="#FFF666"/>
<path d="M434.954 376.899L430.967 384.497C430.734 384.904 431.054 385.399 431.52 385.399L440.106 385.166L434.954 376.899Z" fill="#213F70"/>
<path d="M526.709 464.766L523.743 464.882L523.917 469.332L526.884 469.216L526.709 464.766Z" fill="#FFB68E"/>
<path d="M519.278 470.137L523.237 467.721C523.732 467.663 524.489 468.478 525.537 468.565C526.41 468.623 526.701 467.808 527.225 468.041C527.545 468.157 527.894 470.224 527.982 470.457C527.982 470.457 517.969 472.349 516.892 471.301C516.921 471.272 516.426 470.37 519.278 470.137Z" fill="#16336D"/>
<path d="M517.067 472.291C517.562 472.582 518.58 472.902 520.443 472.64C523.471 472.204 528.157 471.592 528.157 471.592L528.04 470.428C528.04 470.428 523.005 471.389 519.687 471.563V471.534L519.308 470.137C517.387 470.283 516.979 470.748 516.921 471.01L516.776 471.476C516.688 471.796 516.805 472.116 517.067 472.291Z" fill="#C1E2F4"/>
<path d="M504.322 464.118L504.259 468.542L507.228 468.584L507.291 464.16L504.322 464.118Z" fill="#FFB68E"/>
<path d="M499.806 469.322L503.764 466.877C504.259 466.819 505.016 467.634 506.093 467.692C506.966 467.75 507.257 466.935 507.781 467.139C508.101 467.255 508.451 469.322 508.567 469.526C508.567 469.526 498.554 471.476 497.477 470.428C497.448 470.457 496.924 469.555 499.806 469.322Z" fill="#16336D"/>
<path d="M497.594 471.476C498.088 471.767 499.107 472.087 500.97 471.796C503.997 471.36 508.684 470.719 508.684 470.719L508.538 469.555C508.538 469.555 503.502 470.516 500.184 470.719V470.69L499.806 469.293C497.885 469.439 497.477 469.904 497.419 470.195L497.273 470.661C497.186 471.01 497.303 471.331 497.594 471.476Z" fill="#C1E2F4"/>
<path d="M520.88 372.184C520.88 372.184 512.963 419.981 510.401 427.317C511.245 430.432 507.985 465.043 507.985 465.043L503.532 465.014C503.532 465.014 500.65 431.887 499.602 426.647C498.554 421.408 500.476 375.531 500.476 375.531L520.88 372.184Z" fill="#272F56"/>
<path d="M527.749 372.882C527.749 372.882 527.05 422.223 525.915 427.317C527.312 432.12 527.603 465.392 527.603 465.392H523.383C523.383 465.392 514.651 430.723 514.068 427.317C513.515 423.94 506.413 375.386 507.869 375.153L527.749 372.882Z" fill="#24487C"/>
<path d="M512.526 333.614C510.547 334.108 508.48 332.42 508.189 330.353L506.53 320.602L513.603 319.583L515.262 329.334C515.553 331.401 514.563 333.09 512.526 333.614Z" fill="#FFBA9F"/>
<path d="M500.504 347.091C500.533 346.014 502.338 327.209 511.507 326.394C520.676 325.579 523.878 335.68 526.003 344.704C528.127 353.728 528.913 376.579 528.913 376.579L499.427 376.346C499.136 371.514 500.446 349.74 500.504 347.091Z" fill="#EE7030"/>
<path d="M503.182 344.85L497.565 353.874L478.586 365.867L480.711 369.098C480.711 369.098 501.087 360.307 501.989 359.579C502.018 359.55 505.482 355.737 509.47 351.37C507.723 349.536 505.074 346.8 503.182 344.85Z" fill="#FFBA9F"/>
<path d="M481.556 367.235C481.556 367.235 482.312 367.875 480.77 369.244C479.227 370.612 473.959 371.019 473.551 371.165C473.144 371.339 470.349 370.874 470.582 370.321C470.815 369.738 471.426 369.011 472.736 368.196C474.046 367.381 475.821 367.089 476.404 366.857C477.015 366.595 479.722 365.721 480.304 365.459C480.915 365.197 481.556 367.235 481.556 367.235Z" fill="#FFBA9F"/>
<path d="M474.22 365.401C473.813 364.819 479.547 365.809 479.547 365.809L479.343 367.002C479.343 366.973 474.599 365.983 474.22 365.401Z" fill="#FFBA9F"/>
<path d="M480.595 336.525L482.516 335.593C482.574 335.564 482.633 335.506 482.691 335.477L483.855 334.225C484.059 334.021 484.408 333.963 484.612 334.138L485.776 334.982C485.922 335.069 485.98 335.244 485.951 335.389L485.835 336.117C485.805 336.263 485.718 336.379 485.602 336.466L482.429 338.65C482.283 338.737 482.109 338.766 481.963 338.737L481.061 338.533C480.886 338.504 480.77 338.388 480.712 338.242L480.304 337.136C480.217 336.903 480.333 336.641 480.595 336.525Z" fill="#FFBA9F"/>
<path d="M502.309 310.501C502.309 310.501 501.319 322.115 503.124 324.939C504.114 326.511 512.205 322.494 513.486 320.864C514.185 319.961 514.214 316.09 514.214 316.09L509.702 310.326L502.309 310.501Z" fill="#FFBA9F"/>
<path d="M514.097 319.554C513.603 319.961 506.966 312.975 506.733 312.131L507.839 308.317C507.839 308.317 511.332 307.182 512.7 306.571C514.068 305.93 515.058 306.745 515.669 308.696C516.251 310.588 515.058 318.739 514.097 319.554Z" fill="#2F2A4F"/>
<path d="M511.478 311.607C511.478 311.607 504.114 312.626 502.338 311.869C500.563 311.112 499.049 307.619 499.107 306.716C499.311 303.311 507.374 305.261 508.305 305.232C509.237 305.203 512.322 305.785 513.021 306.309C513.719 306.833 514.389 308.405 514.01 309.744C513.632 311.083 511.478 311.607 511.478 311.607Z" fill="#2F2A4F"/>
<path d="M512.147 316.818C512.031 318.127 511.419 319.175 510.75 319.117C510.08 319.059 509.469 317.021 509.586 315.711C509.702 314.401 510.459 314.285 511.128 314.343C511.798 314.401 512.264 315.508 512.147 316.818Z" fill="#FFBA9F"/>
<path d="M308.016 320.689H303.155V330.12H308.016V320.689Z" fill="#FFBA9F"/>
<path d="M310.921 459.016L310.755 463.758L313.403 463.851L313.568 459.109L310.921 459.016Z" fill="#FFB68E"/>
<path d="M318.758 463.849L314.333 461.579C313.81 461.549 313.053 462.51 311.947 462.656C311.015 462.772 310.637 461.928 310.084 462.219C309.764 462.394 309.531 464.606 309.443 464.839C309.443 464.839 320.271 466.091 321.348 464.897C321.348 464.868 321.814 463.849 318.758 463.849Z" fill="#16336D"/>
<path d="M321.551 465.101L321.376 464.606C321.289 464.315 320.823 463.849 318.757 463.849L318.466 465.363V465.392C314.914 465.45 309.471 464.839 309.471 464.839L309.413 466.091C309.413 466.091 314.449 466.382 317.738 466.615C319.717 466.76 320.765 466.323 321.289 466.003C321.551 465.77 321.667 465.392 321.551 465.101Z" fill="#92DEFC"/>
<path d="M264.304 435.805L259.851 437.442L260.764 439.928L265.217 438.291L264.304 435.805Z" fill="#FFB68E"/>
<path d="M262.958 444.812L263.307 439.863C263.133 439.368 261.939 439.048 261.357 438.087C260.862 437.272 261.503 436.603 261.008 436.224C260.746 435.991 258.592 436.69 258.359 436.69C258.359 436.69 261.532 447.111 263.045 447.635C263.045 447.635 264.151 447.664 262.958 444.812Z" fill="#16336D"/>
<path d="M262.928 447.897L263.307 447.519C263.54 447.315 263.772 446.704 262.957 444.812L261.444 445.132H261.415C259.93 441.901 258.329 436.661 258.329 436.661L257.165 437.127C257.165 437.127 258.911 441.871 259.988 444.957C260.658 446.849 261.473 447.635 261.968 447.984C262.288 448.188 262.666 448.13 262.928 447.897Z" fill="#92DEFC"/>
<path d="M258.009 372.3C258.417 370.786 257.224 369.942 255.564 369.476C253.905 369.01 250.82 370.67 249.365 372.591C247.909 374.512 252.974 373.057 254.633 373.522C256.292 373.988 257.602 373.814 258.009 372.3Z" fill="#FFBA9F"/>
<path d="M257.602 372.242L279.957 353.757L297.887 343.685C297.887 343.685 295.762 335.738 292.764 335.767C288.805 338.62 274.805 348.488 274.775 348.488C273.669 348.954 254.895 370.873 254.895 370.873L257.602 372.242Z" fill="#FFBA9F"/>
<path d="M262.754 435.962C262.754 435.962 284.323 419.806 290.028 417.565C290.028 417.565 291.92 396.955 289.708 391.89C287.495 386.825 288.136 377.627 292.24 376.346C297.712 374.658 304.29 376.666 304.29 376.666C304.29 376.666 303.65 413.431 297.945 422.63C293.812 428.335 264.355 439.106 264.355 439.106L262.754 435.962Z" fill="#272F56"/>
<path d="M310.315 459.745C310.315 459.745 306.502 430.257 310.315 421.058C310.315 421.058 305.018 401.846 299.866 395.063C294.801 388.397 298.294 377.627 298.294 377.627L315.409 373.202C315.409 373.202 317.942 384.293 319.222 389.998C320.503 395.704 320.503 416.313 319.543 424.551C318.582 432.789 313.837 459.745 313.837 459.745H310.315Z" fill="#213F70"/>
<path d="M279.287 344.355L293.841 334.196C293.841 334.196 298.906 340.279 298.585 343.685L284.352 351.807L279.287 344.355Z" fill="#48A4EF"/>
<path d="M336.221 301.331L327.402 323.891L307.434 333.235C307.434 333.235 308.919 341.327 311.917 341.531C316.079 338.999 330.837 330.237 330.866 330.237C332.001 329.858 339.103 301.564 339.103 301.564L336.221 301.331Z" fill="#FFBA9F"/>
<path d="M326.063 334.021L310.752 343.016C310.752 343.016 306.153 336.553 306.764 333.206L321.58 326.219L326.063 334.021Z" fill="#48A4EF"/>
<path d="M316.021 375.094C305.629 378.616 295.18 381.76 289.708 378.587C289.708 378.587 292.065 331.983 293.2 331.983C298.556 329.625 303.796 327.093 313.168 331.663C314.303 331.663 316.021 375.094 316.021 375.094Z" fill="#48A4EF"/>
<path d="M338.754 301.011C337.677 301.651 336.484 301.622 336.076 300.923C335.669 300.225 336.193 299.148 337.241 298.507C338.318 297.867 339.511 297.896 339.919 298.595C340.355 299.264 339.831 300.341 338.754 301.011Z" fill="#FBA587"/>
<path d="M336.28 300.108C336.92 300.166 338.434 300.283 338.783 299.875C339.132 299.468 338.725 298.944 339.045 298.303C339.278 297.867 339.86 298.187 340.238 298.449C340.413 298.565 340.471 298.769 340.413 298.973C340.413 298.973 339.802 301.564 339.482 301.884C339.161 302.204 338.637 302.815 337.56 302.146C336.513 301.476 336.28 300.108 336.28 300.108Z" fill="#FFBA9F"/>
<path d="M340.326 298.507C339.802 297.75 338.754 296.033 338.579 295.887C338.405 295.742 338.288 295.625 337.881 295.8C337.473 295.975 337.357 296.12 336.833 296.44C336.309 296.761 335.436 297.285 335.669 297.488C335.901 297.692 336.425 297.576 337.037 297.401C337.328 297.314 337.968 296.906 337.968 296.906C337.968 296.906 338.579 298.507 338.725 298.944C338.87 299.351 339.249 299.73 339.627 299.642C339.977 299.555 340.646 298.944 340.326 298.507Z" fill="#FFBA9F"/>
<path d="M331.652 298.594L329.469 296.149L332.729 295.887L331.652 298.594Z" fill="#EC9A24"/>
<path d="M337.473 300.923L331.652 298.594L331.71 297.052L332.729 295.887L338.58 298.216L337.473 300.923Z" fill="#3C63D2"/>
<path d="M337.473 300.923L331.652 298.595L331.71 297.052L338.026 299.584L337.473 300.923Z" fill="#204183"/>
<path d="M338.87 298.332L337.619 297.838L336.425 298.944L336.513 300.545L337.793 301.069L338.958 299.934L338.87 298.332Z" fill="#EC9A24"/>
<path d="M338.143 299.585C338.056 299.817 337.765 299.934 337.532 299.847C337.299 299.759 337.182 299.468 337.27 299.235C337.357 299.002 337.648 298.886 337.881 298.973C338.143 299.06 338.259 299.322 338.143 299.585Z" fill="#3C63D2"/>
<path d="M330.429 296.091L329.469 296.15L330.109 296.877L330.429 296.091Z" fill="#3C63D2"/>
<path d="M337.561 301.418C337.561 301.593 337.561 301.884 337.357 302.088C337.182 302.292 336.92 302.408 336.658 302.204C336.397 302 335.756 301.214 335.494 301.011C335.232 300.807 334.272 300.574 334.126 300.545C333.893 300.516 333.34 299.73 334.213 299.643C335.087 299.555 335.931 299.875 336.309 300.021C336.659 300.167 337.066 300.312 337.357 300.661C337.619 300.952 337.532 301.098 337.561 301.418Z" fill="#FFBA9F"/>
<path d="M310.956 315.129C312.441 319.291 312.121 322.843 309.53 323.221C306.939 323.6 303.65 321.911 301.729 317.807C300.012 314.139 302.777 310.209 305.368 309.831C307.958 309.452 309.588 311.315 310.956 315.129Z" fill="#FFBA9F"/>
<path d="M286.04 346.654C284.847 339.057 291.105 335.418 291.629 330.673C292.153 325.928 290.988 316.904 293.084 311.606C295.209 306.308 299.43 304.737 303.126 305.261C306.823 305.785 311.043 307.386 311.043 310.558C311.043 313.731 306.299 317.428 306.299 317.428C306.299 317.428 306.415 327.122 306.415 333.468C306.415 339.319 302.078 352.302 298.906 354.427C295.733 356.552 287.234 354.252 286.04 346.654Z" fill="#152753"/>
<path d="M168.795 313.761L166.291 312.102C166.291 312.102 158.694 331.285 157.035 333.555C154.59 334.458 140.124 345.345 140.124 345.345C138.698 346.684 139.018 349.274 140.764 351.166C142.511 353.059 145.363 353.728 146.76 352.389C146.76 352.389 161.605 341.007 163.148 338.882C164.661 336.757 168.795 313.761 168.795 313.761Z" fill="#FFBA9F"/>
<path d="M152.611 335.651L139.047 343.656C137.62 344.995 138.959 349.274 140.706 351.166C142.452 353.059 145.305 353.728 146.702 352.389C146.702 352.389 153.309 347.528 158.054 343.598L152.611 335.651Z" fill="#EE993C"/>
<path d="M168.096 314.023C166.553 314.401 165.942 313.994 165.564 312.509C165.185 311.025 165.243 308.579 166.786 308.201C168.329 307.823 169.842 308.725 170.221 310.21C170.57 311.694 169.61 313.644 168.096 314.023Z" fill="#FFBA9F"/>
<path d="M147.167 474.358H150.166V469.933H146.789L147.167 474.358Z" fill="#FFBA9F"/>
<path d="M129.295 474.358H126.297V469.933H129.703L129.295 474.358Z" fill="#FFBA9F"/>
<path d="M117.303 477.996V476.948C121.116 475.988 124.114 474.765 126.036 473.31C127.2 474.096 128.335 474.038 129.412 473.31C129.412 473.31 130.052 473.95 130.198 474.736C130.314 475.522 129.936 477.996 129.936 477.996H127.491V476.948C124.842 478.025 121.175 478.113 117.303 477.996Z" fill="#16336D"/>
<path d="M148.856 385.108H122.368C122.455 409.065 123.648 441.319 125.89 470.836H130.46C132.672 457.998 134.884 434.42 137.125 410.201L146.265 470.836H150.573C153.105 445.801 152.378 412.5 148.856 385.108Z" fill="#1C417C"/>
<path d="M159.16 477.996V476.948C155.347 475.988 152.349 474.765 150.428 473.31C149.263 474.096 148.128 474.038 147.051 473.31C147.051 473.31 146.411 473.95 146.265 474.736C146.149 475.522 146.527 477.996 146.527 477.996H149.002V476.948C151.621 478.025 155.289 478.113 159.16 477.996Z" fill="#16336D"/>
<path d="M121.757 353.524C121.961 348.401 125.716 339.726 135.554 339.726C145.392 339.726 148.972 347.819 149.351 353.524C149.758 359.259 148.827 385.952 148.827 385.952L122.397 385.865C122.601 381.295 121.553 358.677 121.757 353.524Z" fill="#EE993C"/>
<path d="M136.456 329.858C137.067 332.07 135.757 334.341 133.574 334.923C131.362 335.535 129.091 334.225 128.509 332.041C127.898 329.829 129.208 327.559 131.391 326.976C133.574 326.365 135.844 327.675 136.456 329.858Z" fill="#2F2A4F"/>
<path d="M136.368 343.074C134.418 342.899 132.992 341.182 133.196 339.231L133.69 333.846L140.705 334.516L140.211 339.901C140.007 341.851 138.289 343.278 136.368 343.074Z" fill="#FBA587"/>
<path d="M140.356 338.271L140.705 334.516L133.691 333.875L133.254 338.475L140.356 338.271Z" fill="#F3937A"/>
<path d="M146.032 322.377C145.421 320.165 143.151 318.884 140.968 319.495C138.755 320.107 137.475 322.377 138.086 324.56C138.319 325.404 138.814 326.132 139.454 326.656C139.454 326.947 139.483 327.238 139.57 327.529C140.036 329.276 141.87 330.324 143.616 329.829C145.363 329.363 146.411 327.529 145.916 325.783C145.887 325.637 145.829 325.492 145.77 325.346C146.178 324.473 146.323 323.425 146.032 322.377Z" fill="#2F2A4F"/>
<path d="M143.849 335.651C141.23 336.815 134.389 336.262 133.342 333.439L130.751 326.394L141.259 321.708C141.259 321.708 142.743 323.745 144.14 327.297C145.538 330.819 146.469 334.487 143.849 335.651Z" fill="#FFBA9F"/>
<path d="M137.853 314.343C136.485 314.721 135.408 315.624 134.768 316.788C134.331 316.788 133.894 316.817 133.458 316.963C132.09 317.341 131.071 318.273 130.518 319.466C129.994 319.321 129.47 319.321 128.917 319.466C127.258 319.932 126.297 321.62 126.734 323.28C126.85 323.658 126.996 324.007 127.229 324.298C126.53 325.259 126.239 326.511 126.588 327.762C127.112 329.654 128.859 330.848 130.751 330.732C131.478 331.401 132.061 331.867 132.061 331.867L133.632 331.285L133.429 329.48C134.273 328.577 134.709 327.267 134.477 325.987C134.942 326.016 135.437 325.958 135.932 325.841C136.951 325.55 137.795 324.968 138.377 324.182C139.076 324.298 139.832 324.269 140.56 324.065C143.238 323.338 144.81 320.572 144.082 317.894C143.296 315.158 140.531 313.586 137.853 314.343Z" fill="#2F2A4F"/>
<path d="M133.749 333.41L133.894 333.351L132.41 329.334L131.304 329.742C130.838 329.916 130.605 330.411 130.78 330.877L131.304 332.274C131.682 333.293 132.759 333.788 133.749 333.41Z" fill="#FFBA9F"/>
<path d="M112.326 390.231L115.324 390.843C115.324 390.843 121.029 370.291 121.757 367.526C123.736 365.779 133.284 350.002 133.284 350.002C134.099 348.197 132.847 345.869 130.489 344.733C128.132 343.598 125.192 344.035 124.348 345.839C124.348 345.839 114.626 362.199 113.985 364.79C113.316 367.38 112.326 390.231 112.326 390.231Z" fill="#FFBA9F"/>
<path d="M125.104 363.887L133.283 350.031C134.098 348.226 132.847 345.898 130.489 344.762C128.131 343.627 125.192 344.064 124.347 345.869C124.347 345.869 119.952 352.971 116.954 358.444L125.104 363.887Z" fill="#EE993C"/>
<path d="M109.124 396.286C109.386 396.403 109.677 396.286 109.823 396.053L110.958 393.899L109.793 397.596C109.706 397.887 109.852 398.178 110.143 398.266C110.405 398.353 110.725 398.236 110.812 397.945L111.977 395.093L111.336 398.935C111.278 399.226 111.482 399.488 111.773 399.546L111.86 399.576C112.151 399.634 112.413 399.459 112.5 399.168L113.519 395.093L113.083 399.081C113.054 399.372 113.257 399.634 113.548 399.692C113.839 399.721 114.101 399.546 114.16 399.255L115.12 394.627L115.324 392.473L118.089 394.656C118.322 394.831 118.671 394.831 118.875 394.627C119.108 394.394 119.108 394.045 118.933 393.812L115.586 389.795C115.586 389.795 115.237 389.3 114.422 388.922C113.607 388.572 112.733 388.689 112.209 388.776C111.685 388.892 110.317 391.891 110.317 391.891L108.862 395.646C108.746 395.879 108.862 396.17 109.124 396.286Z" fill="#FFBA9F"/>
<path d="M163.656 273.622L159.386 310.314L191.277 314.026L195.547 277.334L163.656 273.622Z" fill="#FFF666"/>
<path d="M166.524 315.187C165.622 315.595 165.709 313.412 164.748 311.199C163.788 308.987 162.245 306.949 163.148 306.542C164.05 306.134 166.466 309.889 167.426 312.072C168.358 314.285 167.426 314.809 166.524 315.187Z" fill="#FFBA9F"/>
<path d="M208.527 40.6266L203.054 40.7721L202.618 29.4194L208.148 31.7482L208.527 40.6266Z" fill="#FFBA9F"/>
<path d="M202.706 31.4861L202.764 29.4485L208.149 31.7481L208.323 35.6197L202.851 35.5615L202.706 31.4861Z" fill="#F3937A"/>
<path d="M211.525 41.4707L201.279 41.0922L202.007 37.8611L209.342 37.9775L211.525 41.4707Z" fill="#C1E2F4"/>
<path d="M253.65 46.5932L247.841 50.2058L249.671 53.1475L255.479 49.5349L253.65 46.5932Z" fill="#FFC1A9"/>
<path d="M256.99 50.4946L254.72 51.2806C253.468 51.7172 252.1 51.0477 251.693 49.796C251.256 48.5443 251.926 47.1761 253.177 46.7686L255.448 45.9827L256.99 50.4946Z" fill="#FFC1A9"/>
<path d="M251.926 47.7002C251.78 47.7293 253.439 45.8081 253.526 45.3714C253.614 44.9348 253.759 44.0906 253.905 43.2173C254.05 42.344 254.836 42.9262 255.186 43.4502C255.535 43.945 255.04 46.9724 255.04 46.9724L253.876 48.5443L251.926 47.7002Z" fill="#FFC1A9"/>
<path d="M257.425 32.2067L256.127 40.5776L259.003 41.0236L260.301 32.6527L257.425 32.2067Z" fill="#16336D"/>
<path d="M274.659 6.65582C269.128 -0.708875 258.649 -2.19346 251.285 3.36645C243.921 8.89725 242.437 19.3767 247.996 26.7414C253.527 34.1061 264.005 35.5906 271.369 30.0307C278.705 24.4999 280.189 14.0205 274.659 6.65582Z" fill="#16336D"/>
<path d="M273.145 7.79108C268.226 1.27056 258.941 -0.0393667 252.421 4.88013C245.9 9.79964 244.591 19.0856 249.51 25.6061C254.429 32.1266 263.714 33.4365 270.234 28.5461C276.754 23.5975 278.064 14.3407 273.145 7.79108Z" fill="#D9FAFF"/>
<path d="M257.048 30.8751L266.246 2.75537C268.895 3.68687 271.34 5.40434 273.145 7.82042C278.064 14.3409 276.754 23.6269 270.234 28.5464C266.305 31.4864 261.385 32.185 257.048 30.8751Z" fill="#9DD7FC"/>
<path d="M266.305 13.6422C266.8 15.0394 267.993 15.9127 268.954 15.5925C269.943 15.2432 270.322 13.8459 269.856 12.4196C269.361 11.0223 268.168 10.149 267.207 10.4692C266.218 10.8185 265.81 12.2449 266.305 13.6422Z" fill="white"/>
<path d="M254.458 60.945C253.032 60.7121 252.071 59.373 252.333 57.9467L256.088 36.7259C256.146 36.4639 256.408 36.2601 256.67 36.3184L259.843 36.8132C260.105 36.8423 260.309 37.1043 260.279 37.3954L257.427 58.7618C257.223 60.159 255.884 61.1487 254.458 60.945Z" fill="#EE993C"/>
<path d="M260.134 46.7397L259.436 48.8065C259.406 48.8647 259.406 48.952 259.406 49.0394L259.465 50.7859C259.465 51.077 259.261 51.3681 258.97 51.3972L257.514 51.6301C257.34 51.6592 257.194 51.601 257.078 51.4554L256.641 50.8441C256.554 50.7277 256.525 50.5822 256.554 50.4366L257.252 46.565C257.282 46.3904 257.398 46.2448 257.514 46.1575L258.3 45.6626C258.446 45.5753 258.62 45.5462 258.737 45.6335L259.843 46.1284C260.105 46.2157 260.221 46.4777 260.134 46.7397Z" fill="#FFC1A9"/>
<path d="M207.275 43.5084C205.121 45.5169 204.044 49.4758 205.586 51.1059C205.586 51.1059 221.275 64.6127 227.097 66.5631C232.918 68.5134 251.78 52.8525 251.78 52.8525L249.102 49.0392C249.102 49.0392 231.434 57.3645 229.076 56.0545C226.748 54.7446 215.425 43.159 215.425 43.159C213.853 41.5289 209.429 41.4998 207.275 43.5084Z" fill="#5AADFF"/>
<path d="M209.796 24.3902L209.665 25.0173L213.854 25.8907L213.985 25.2636L209.796 24.3902Z" fill="#462A51"/>
<path d="M211.728 21.647C211.728 21.647 216.182 33.0579 211.786 35.0664C207.42 37.075 202.239 31.0202 202.239 31.0202L201.075 22.3165L211.728 21.647Z" fill="#FFBA9F"/>
<path d="M201.162 29.4193L202.909 29.0991L203.258 23.3063L201.686 20.5118C201.686 20.5118 202.239 18.8234 200.697 18.7943C199.154 18.7361 197.553 21.0066 197.553 23.1025C197.524 27.1778 201.162 29.4193 201.162 29.4193Z" fill="#2F2A4F"/>
<path d="M202.734 31.3696L202.909 31.3405L202.064 26.8867L200.842 27.1196C200.318 27.2069 199.998 27.7018 200.085 28.2258L200.376 29.7686C200.58 30.8456 201.628 31.5733 202.734 31.3696Z" fill="#FFBA9F"/>
<path d="M199.649 22.2583C199.91 24.3251 202.617 25.6932 209.923 23.51C214.231 22.2292 215.279 18.3868 214.144 16.6693C212.601 14.3405 209.749 15.9416 205.266 16.4946C200.784 17.0477 199.387 20.1916 199.649 22.2583Z" fill="#2F2A4F"/>
<path d="M213.882 25.2275L213.387 25.3439C213.387 25.3439 213.358 25.3439 213.358 25.3148C212.98 25.1693 211.582 25.5477 210.767 25.9843C210.709 26.0134 210.622 26.0717 210.564 26.1008C210.418 26.1881 210.302 26.2754 210.127 26.3337C209.923 26.421 209.72 26.4792 209.487 26.5083C209.254 26.5665 209.05 26.5956 208.846 26.5956C208.672 26.5956 208.526 26.5956 208.352 26.5665C208.293 26.5665 208.206 26.5374 208.119 26.5374C207.216 26.4792 205.79 26.7412 205.499 27.0323L205.47 27.0614L204.975 27.1778C204.888 27.2069 204.83 27.2943 204.859 27.3816L204.946 27.7309C204.975 27.8182 205.004 27.8765 205.092 27.9056L205.266 27.9638C205.324 27.9929 205.353 28.022 205.353 28.0802C205.441 28.4586 205.615 28.8953 205.877 29.2737C206.285 29.8559 207.304 29.8268 207.973 29.6812C208.235 29.623 208.468 29.5357 208.584 29.4775C208.905 29.3028 209.079 28.7789 209.167 28.3422C209.225 27.9638 209.254 27.6436 209.167 27.3525C209.167 27.2943 209.167 27.236 209.196 27.2069C209.283 27.1196 209.429 27.0323 209.574 27.0032C209.72 26.9741 209.865 26.9741 210.011 27.0323C210.069 27.0614 210.098 27.0905 210.127 27.1487C210.185 27.4398 210.331 27.7309 210.564 28.0511C210.826 28.4004 211.233 28.808 211.583 28.8371C211.728 28.8371 211.961 28.8371 212.223 28.7789C212.921 28.6333 213.824 28.2258 213.969 27.498C214.057 27.0614 214.028 26.5956 213.94 26.2172C213.94 26.159 213.94 26.1008 213.969 26.0717L214.086 25.9552C214.144 25.897 214.173 25.8097 214.144 25.7515L214.057 25.4022C214.057 25.2566 213.969 25.1984 213.882 25.2275ZM208.846 28.3131C208.759 28.7497 208.584 29.1282 208.41 29.2446C208.06 29.4484 206.547 29.7103 206.139 29.1282C205.645 28.4295 205.557 27.5271 205.761 27.3234C205.848 27.236 206.11 27.1487 206.43 27.0905C206.925 26.9741 207.595 26.8867 208.119 26.945C208.584 26.9741 208.701 27.0905 208.73 27.1196C208.905 27.3234 208.963 27.7891 208.846 28.3131ZM213.649 27.4398C213.504 28.1676 212.048 28.546 211.641 28.5169C211.437 28.4878 211.117 28.2258 210.855 27.8765C210.564 27.4689 210.389 27.0032 210.447 26.7412C210.447 26.7121 210.506 26.5374 210.913 26.3045C211.699 25.8679 212.98 25.5768 213.213 25.6641C213.504 25.7224 213.795 26.5956 213.649 27.4398Z" fill="#462A51"/>
<path d="M201.182 26.3365L201.051 26.9636L205.24 27.837L205.371 27.2099L201.182 26.3365Z" fill="#462A51"/>
<path d="M217.637 166.496H220.664V162.013H217.259L217.637 166.496Z" fill="#FFBA9F"/>
<path d="M199.62 166.496H196.593V162.013H199.998L199.62 166.496Z" fill="#FFBA9F"/>
<path d="M187.511 170.193V169.145C191.383 168.155 194.381 166.962 196.331 165.448C197.495 166.234 198.659 166.205 199.766 165.448C199.766 165.448 200.435 166.118 200.551 166.903C200.697 167.689 200.289 170.193 200.289 170.193H197.786V169.145C195.108 170.193 191.412 170.28 187.511 170.193Z" fill="#16336D"/>
<path d="M219.355 81.2053H192.634C192.721 105.395 193.944 133.137 196.185 162.945H200.784C203.025 149.991 205.266 126.209 207.508 101.728L216.735 162.945H221.072C223.633 137.678 222.906 108.859 219.355 81.2053Z" fill="#F7D157"/>
<path d="M192.634 81.2051C192.634 81.2051 191.44 49.6213 192.779 46.1864C193.74 43.7121 199.096 39.6077 206.198 39.6077C213.3 39.6077 218.161 44.9929 218.714 47.4963C219.238 49.9998 219.384 81.2051 219.384 81.2051H192.634Z" fill="#5AADFF"/>
<path d="M229.746 170.193V169.145C225.875 168.155 222.877 166.962 220.926 165.448C219.762 166.234 218.598 166.205 217.492 165.448C217.492 165.448 216.822 166.118 216.706 166.903C216.56 167.689 216.968 170.193 216.968 170.193H219.471V169.145C222.149 170.193 225.845 170.28 229.746 170.193Z" fill="#16336D"/>
<path d="M190.538 79.1094C190.538 79.1094 193.711 79.8953 194.497 80.4193C195.283 80.9433 198.455 82.1368 198.31 82.7772C198.164 83.4467 195.428 85.5426 193.041 85.659C190.684 85.8045 187.918 81.4381 187.918 81.4381L190.538 79.1094Z" fill="#FFBA9F"/>
<path d="M199.62 41.3252C199.62 41.3252 178.953 43.0427 175.14 57.1316C171.327 71.2206 188.18 82.0202 188.18 82.0202L192.139 78.3233C192.139 78.3233 182.795 66.6213 184.105 61.3525C185.415 56.0837 197.262 54.2498 197.262 54.2498L199.62 41.3252Z" fill="#5AADFF"/>
<path d="M146.813 162.639L146.732 166.947L149.613 167.001L149.694 162.694L146.813 162.639Z" fill="#FFB68E"/>
<path d="M163.374 162.527L160.505 162.8L160.913 167.088L163.782 166.815L163.374 162.527Z" fill="#FFB68E"/>
<path d="M149.904 74.5393L159.8 164.167L164.283 164.08L166.117 124.316L168.533 74.5393H149.904Z" fill="#312254"/>
<path d="M142.249 74.1316L145.479 123.618L145.509 164.08L151.185 164.022L156.744 123.21L164.923 74.5391L142.249 74.1316Z" fill="#462A51"/>
<path d="M160.47 165.885C160.732 165.885 161.721 166.234 162.362 166.147C163.089 166.059 163.672 165.273 163.963 165.332C164.283 165.39 167.397 167.515 167.397 167.515L170.25 168.155C170.599 168.243 170.861 168.534 170.861 168.912V169.436V170.193H165.855L162.973 169.611V170.193H159.713V168.854C159.713 167.864 160.208 165.856 160.47 165.885Z" fill="#2F2A4F"/>
<path d="M146.382 165.885C146.644 165.885 147.633 166.234 148.274 166.147C149.001 166.059 149.584 165.273 149.875 165.332C150.195 165.39 153.309 167.515 153.309 167.515L156.162 168.155C156.511 168.243 156.773 168.534 156.773 168.912V169.436V170.193H151.767L148.885 169.611V170.193H145.625V168.854C145.625 167.864 146.12 165.856 146.382 165.885Z" fill="#2F2A4F"/>
<path d="M191.295 61.5854C191.237 62.3714 190.945 62.7498 192.837 62.8954C194.729 63.0409 196.447 63.0409 197.524 62.0221C198.601 61.0032 195.603 60.5957 193.711 60.4502C191.819 60.2755 191.382 60.7995 191.295 61.5854Z" fill="#FBA587"/>
<path d="M190.276 61.3525C190.393 61.5271 192.023 60.0716 192.838 59.4895C193.041 59.3439 193.187 59.1692 193.274 58.9655L193.769 58.2086C193.856 58.034 193.798 57.8302 193.653 57.7138C193.449 57.5391 193.158 57.5973 193.012 57.8011L192.576 58.1795C192.43 58.4124 192.226 58.5871 191.964 58.7035L189.694 59.7514C189.403 59.8388 189.286 60.2172 189.49 60.4501L190.276 61.3525Z" fill="#FBA587"/>
<path d="M160.121 41.6453C158.345 44.0323 158.2 47.409 160.004 48.748C160.004 48.748 174.034 64.2925 174.092 64.3216C175.053 64.8456 192.634 62.4586 192.634 62.4586L192.023 59.9843L177.178 58.4415L166.612 39.6658C164.778 38.3559 161.896 39.2583 160.121 41.6453Z" fill="#FBA587"/>
<path d="M176.45 54.9193L168.387 41.0341C167.048 39.2293 163.992 39.2293 161.605 40.9758C159.189 42.7224 158.054 45.9244 159.393 47.7292C159.393 47.7292 164.923 54.5408 169.697 60.4501L176.45 54.9193Z" fill="#EE7030"/>
<path d="M144.286 54.1333C146.353 45.1967 149.409 41.9947 152.553 38.8509C154.852 36.5512 159.277 35.7362 162.158 36.2601C163.73 36.5512 165.564 37.2207 167.165 38.9964C169.552 41.6163 168.999 45.8371 168.999 48.8063C168.999 51.7755 168.649 79.6332 168.649 79.6332H142.045C141.899 75.5579 142.19 63.2155 144.286 54.1333Z" fill="#EE7030"/>
<path d="M163.963 39.8408C162.333 39.2586 159.451 37.6284 160.033 35.9983L161.634 31.4863L167.514 33.5822L165.913 38.0942C165.331 39.7243 165.564 40.4229 163.963 39.8408Z" fill="#FBA587"/>
<path d="M166.408 36.6678L167.631 33.2619L161.751 31.137L160.237 35.3578L166.408 36.6678Z" fill="#F3937A"/>
<path d="M187.54 51.6591C186.259 52.6488 185.444 52.9981 186.55 54.3954C187.657 55.8217 188.879 56.8697 191.295 56.1711C193.682 55.4724 192.197 53.0563 191.091 51.63C189.956 50.2327 188.821 50.6402 187.54 51.6591Z" fill="#FFBA9F"/>
<path d="M196.563 57.2191L191.819 52.9982C191.702 52.8818 191.499 52.8818 191.353 52.9982L190.742 53.464C190.567 53.6095 190.567 53.9006 190.771 54.0462L196.127 57.8013C196.301 57.9177 196.563 57.8595 196.651 57.6557C196.709 57.4811 196.68 57.3355 196.563 57.2191Z" fill="#FFBA9F"/>
<path d="M211.059 41.8783C210.506 41.7909 209.982 42.1693 209.865 42.7224L201.977 60.0426L182.591 58.7617C182.038 58.7326 181.544 59.1402 181.485 59.7224C181.456 60.2754 181.864 60.7703 182.446 60.8285L202.006 62.1093C202.559 62.1384 203.054 61.7309 203.112 61.1487C203.141 60.9158 203.054 60.7121 202.967 60.5374L203.956 60.7121L211.903 43.0717C211.99 42.4896 211.612 41.9656 211.059 41.8783Z" fill="#16336D"/>
<path d="M164.748 57.0733L166.233 58.9654L189.228 51.0186L187.074 54.1042C187.074 54.1042 164.778 69.5322 163.875 68.8626C163.846 68.8626 159.829 67.0579 157.675 62.8952C159.509 61.236 163.06 58.587 164.748 57.0733Z" fill="#FFBA9F"/>
<path d="M168.795 36.6677C167.776 36.5512 165.884 35.4742 164.923 34.892C163.934 34.2807 160.936 32.1848 161.227 29.2738L161.547 23.8013L171.589 24.791C171.589 24.791 172.899 28.9537 172.404 32.3012C171.938 35.5906 171.211 36.9296 168.795 36.6677Z" fill="#FFBA9F"/>
<path d="M160.266 19.7261C163.09 18.0377 165.622 17.9504 167.864 18.5326C170.105 19.0857 171.211 25.8973 169.988 26.5086C169.057 26.9743 167.573 27.1199 166.845 27.0326C166.146 26.9743 166.059 27.8476 166.088 28.5754C166.117 29.0702 165.651 29.4486 165.186 29.3322L164.574 29.1867C164.574 29.1867 161.605 30.8459 161.285 30.8459C160.703 30.875 158.782 25.6644 158.549 24.762C158.287 23.8596 158.404 20.8613 160.266 19.7261Z" fill="#2F2A4F"/>
<path d="M164.633 31.8355C164.662 31.8355 164.72 31.8064 164.72 31.7482L164.691 28.3715C164.691 27.9931 164.371 27.6729 163.992 27.6729H163.614C163.09 27.6729 162.683 28.1095 162.683 28.6335V29.9143C162.683 30.9913 163.556 31.8646 164.633 31.8355Z" fill="#FFBA9F"/>
<path d="M176.945 21.9965C177.149 26.5085 173.539 26.8869 168.969 27.2071C164.399 27.4982 160.557 25.6643 160.383 23.1027C160.208 20.541 163.788 18.2123 168.358 17.8921C172.957 17.5719 176.799 18.2414 176.945 21.9965Z" fill="#2F2A4F"/>
<path d="M100.857 473.222H97.8594V478.288H100.857V473.222Z" fill="#FFBDA9"/>
<path d="M105.427 478.346L101.207 476.366C100.712 476.366 100.043 477.269 98.9947 477.444C98.1215 477.589 97.7431 476.832 97.2482 477.094C96.9572 477.269 96.8116 479.365 96.7534 479.569C96.7534 479.569 106.941 480.355 107.902 479.19C107.902 479.219 108.309 478.259 105.427 478.346Z" fill="#16336D"/>
<path d="M108.105 479.423L107.902 478.986C107.814 478.695 107.349 478.317 105.427 478.375L105.195 479.802V479.831C101.876 480.005 96.7534 479.627 96.7534 479.627V480.791C96.7534 480.791 101.498 480.908 104.554 480.995C106.417 481.053 107.378 480.617 107.872 480.296C108.134 480.063 108.222 479.714 108.105 479.423Z" fill="#C1E2F4"/>
<path d="M67.5146 467.005L65.3403 471.58L68.0482 472.867L70.2225 468.293L67.5146 467.005Z" fill="#FFBDA9"/>
<path d="M71.7208 475.231L69.072 471.389C68.6645 471.127 67.6166 471.592 66.627 471.214C65.7829 470.894 65.8702 470.05 65.288 470.05C64.9678 470.05 63.7744 471.796 63.6289 471.942C63.6289 471.942 72.041 477.735 73.4672 477.211C73.4381 477.24 74.2531 476.599 71.7208 475.231Z" fill="#16336D"/>
<path d="M73.4965 477.502L73.5547 477.007C73.6129 476.716 73.4092 476.134 71.7209 475.231L70.8186 476.366V476.396C67.8496 474.882 63.629 471.971 63.629 471.971L63.0469 472.99C63.0469 472.99 67.0928 475.464 69.6834 477.094C71.2552 478.084 72.3322 478.2 72.9143 478.142C73.2054 478.055 73.4383 477.822 73.4965 477.502Z" fill="#C1E2F4"/>
<path d="M70.964 469.177L66.627 467.546C66.627 467.546 73.9912 440.416 78.3282 432.266C82.6652 424.115 83.2183 423.009 84.3244 419.225C85.4013 415.411 86.944 383.798 86.944 383.798L100.363 393.579C100.363 393.579 97.1026 418.584 94.3665 425.658C91.6303 432.731 70.964 469.177 70.964 469.177Z" fill="#EE993C"/>
<path d="M101.964 474.067H97.0737C97.0737 474.067 95.0362 449.004 94.5123 441.93C93.9592 434.856 94.5414 430.024 95.0653 426.211C91.0194 414.567 85.227 398.79 85.0523 392.502C84.8777 386.185 86.7405 381.557 89.6804 379.315H103.739C103.739 379.315 105.806 421.466 105.777 425.658C105.719 429.879 101.964 474.067 101.964 474.067Z" fill="#F9BA53"/>
<path d="M126.414 352.622C126.414 352.622 102.983 364.295 99.9553 363.742C96.899 363.218 93.9883 357.6 93.9883 357.6L100.159 355.446L101.556 357.803L126.298 350.555L126.414 352.622Z" fill="#FBA587"/>
<path d="M91.8631 328.024C91.8631 328.024 91.1645 334.661 88.1956 335.418C84.0332 336.466 80.4238 337.223 80.0163 340.047C79.5506 343.365 82.8107 342.87 82.4032 344.18C81.9957 345.49 80.4239 345.577 79.1722 346.596C77.8333 347.702 76.8436 350.41 78.6192 352.011C80.191 353.437 82.1994 352.651 83.9168 351.749C85.1102 351.137 83.6548 353.524 83.0726 354.66C82.4905 355.795 83.1018 358.415 85.2557 359.172C89.8838 360.744 91.7176 356.61 91.7176 356.61L98.7325 338.853L100.363 332.478L92.8819 329.131L91.8631 328.024Z" fill="#3E2447"/>
<path d="M91.7471 328.112C91.7471 333.468 91.9217 337.456 96.9864 337.485C102.051 337.485 107.436 332.536 107.436 327.18C107.436 321.824 104.816 319.262 99.7516 319.262C94.6869 319.262 91.7471 322.756 91.7471 328.112Z" fill="#3E2447"/>
<path d="M100.479 342.084H94.7739L97.5391 330.237L101.905 333.206L100.479 342.084Z" fill="#FFBDA9"/>
<path d="M91.7467 346.043C93.0275 342.55 95.065 340.367 95.065 340.367L100.625 341.298C100.625 341.298 108.396 350.497 108.396 353.99C108.396 355.562 106.097 366.129 105.398 370C103.885 378.209 103.826 379.665 103.826 379.665L89.5637 379.519C89.5346 379.49 90.4369 349.682 91.7467 346.043Z" fill="#FFF666"/>
<path d="M103.332 338.388C105.573 338.62 107.145 334.516 107.465 332.275C107.785 330.033 107.872 325.405 107.872 325.405L96.4331 324.299L95.7637 330.906C95.7928 334.37 101.032 338.155 103.332 338.388Z" fill="#FFBDA9"/>
<path d="M110.841 325.026C109.968 329.626 104.874 330.761 98.2958 327.588C98.2958 327.588 99.1981 336.524 98.092 339.377C96.9859 342.23 91.0771 348.256 90.3203 349.362L93.6968 322.581L99.7512 319.292C99.7512 319.292 112.093 318.506 110.841 325.026Z" fill="#3E2447"/>
<path d="M120.621 363.713C120.621 363.713 98.7617 367.846 95.9674 366.478C93.1731 365.139 93.9881 358.211 93.9881 358.211L100.595 358.182L100.13 361.413L120.854 361.937L120.621 363.713Z" fill="#FFBDA9"/>
<path d="M125.482 351.894C125.482 351.894 128.189 349.216 128.248 348.401C128.306 347.586 127.811 347.906 127.258 348.517C126.705 349.129 123.154 351.574 123.154 351.574L125.482 351.894Z" fill="#FBA587"/>
<path d="M123.794 352.127C123.503 351.283 125.162 350.817 125.948 350.497C126.734 350.176 131.217 349.158 132.526 349.449C133.807 349.769 129.936 352.331 128.742 352.709C127.52 353.116 124.056 352.913 123.794 352.127Z" fill="#FBA587"/>
<path d="M124.493 365.605C123.27 365.634 120.971 364.732 120.505 364.295C120.01 363.858 119.254 361.792 120.418 361.442C121.582 361.093 126.152 363.596 126.618 364.208C127.054 364.819 125.657 365.605 124.493 365.605Z" fill="#FFBDA9"/>
<path d="M70.8475 191.414L68.9264 190.075L67.7039 191.85L57.6326 203.087L48.7257 204.105C47.1539 204.105 47.4741 212.169 49.0459 212.169C49.0459 212.169 60.3105 207.919 60.3396 207.919C61.0964 207.831 69.7705 193.015 69.7705 193.015L70.8475 191.414Z" fill="#FFBA9F"/>
<path d="M68.4611 191.588C67.9371 190.511 69.247 189.172 70.5568 189.172C72.9727 189.172 74.5736 189.172 75.3887 189.987C76.6694 191.268 72.3324 191.501 71.1681 192.054C69.9747 192.607 68.985 192.666 68.4611 191.588Z" fill="#FFBA9F"/>
<path d="M74.1077 234.729C74.7481 233.71 75.8542 233.943 76.9894 234.641C78.1246 235.34 78.8231 237.931 78.503 239.765C78.1828 241.598 76.349 237.989 75.2138 237.29C74.0495 236.592 73.4674 235.747 74.1077 234.729Z" fill="#FFBA9F"/>
<path d="M35.8313 278.044C35.744 279.266 37.374 293.064 38.7712 298.216C38.7712 298.216 35.0745 303.602 33.7356 307.59C32.3966 311.578 28.438 335.651 28.438 335.651L30.0971 336.583L44.3307 303.805L46.9795 289.222L44.3307 274.638L35.8313 278.044Z" fill="#F3937A"/>
<path d="M54.9843 274.638C54.9843 274.638 53.6453 290.561 52.3355 302.495C50.9965 314.43 47.8529 339.348 47.8529 339.348L45.6699 338.679C45.6699 338.679 43.0502 313.12 43.0502 309.132C43.0502 305.144 44.3891 298.507 44.3891 294.549C44.3891 290.561 42.2061 277.316 42.2061 277.316L54.9843 274.638Z" fill="#FBA587"/>
<path d="M49.3081 196.712H44.127V203.436H49.3081V196.712Z" fill="#FFBA9F"/>
<path d="M53.674 238.804H36.4424V205.037C36.4424 203.174 37.956 201.66 39.8189 201.66H45.1164C49.8319 201.66 53.674 205.503 53.674 210.219V238.804Z" fill="#F25A46"/>
<path d="M36.3556 234.001C36.3556 234.001 29.9229 241.89 29.9229 253.679C30.9707 267.943 35.1622 281.246 35.1622 281.246L54.8389 279.936C54.8389 279.936 57.4586 257.638 56.1488 249.749C54.8389 241.861 53.6455 234.001 53.6455 234.001H36.3556Z" fill="#462A51"/>
<path d="M49.6865 220.814C49.6865 220.814 53.1212 219.475 54.4311 216.826C55.77 214.177 55.9155 212.838 54.7512 209.956C53.616 207.22 49.8321 203.232 49.8321 203.232L49.6865 220.814Z" fill="#F25A46"/>
<path d="M51.7531 189.784C53.7907 193.742 53.9362 197.352 51.3748 198.08C48.8133 198.808 45.3204 197.527 42.8463 193.684C40.6341 190.22 42.8754 185.941 45.4368 185.213C47.9983 184.486 49.8903 186.116 51.7531 189.784Z" fill="#FFBA9F"/>
<path d="M48.4058 342.346L45.2622 339.348L46.0772 338.533C46.0772 338.533 47.4453 338.62 48.2021 339.348C49.8612 341.007 52.6264 342.667 52.6264 342.667L48.4058 342.346Z" fill="#FBA587"/>
<path d="M52.7427 342.492C52.2187 342.346 51.8694 342.201 51.8694 342.201C51.8403 342.172 51.7821 342.201 51.753 342.201C51.6948 342.23 51.3746 342.376 50.8798 342.317C50.3267 342.259 49.8028 341.997 49.308 341.473C47.9981 340.163 45.4367 338.184 45.4076 338.155C45.3785 338.125 45.3494 338.125 45.3202 338.125C45.2911 338.125 45.262 338.155 45.2329 338.184C44.0686 339.843 44.5634 340.687 44.5634 340.716C44.7381 340.949 45.2038 341.531 45.0292 343.278C45.0292 343.307 45.0292 343.336 45.0583 343.365C45.0874 343.394 45.1165 343.394 45.1456 343.423L45.6404 343.482C45.6986 343.482 45.7569 343.453 45.7569 343.365L45.8733 342.026C45.9024 341.735 45.9897 341.56 46.1061 341.502C46.2808 341.386 46.5136 341.502 46.5136 341.502C47.6197 342.084 48.3765 343.045 48.3765 343.045C48.6385 343.394 49.1915 343.802 50.2103 343.889C51.5493 344.006 53.7614 343.715 53.8488 343.685C53.907 343.685 53.9361 343.627 53.9361 343.569C54.0234 343.074 53.383 342.638 52.7427 342.492Z" fill="#2F2A4F"/>
<path d="M29.8645 339.901L28.0308 335.971L29.0786 335.535C29.0786 335.535 30.3303 336.117 30.7378 337.077C31.6692 339.232 33.6194 341.822 33.6194 341.822L29.8645 339.901Z" fill="#FBA587"/>
<path d="M33.823 341.619C33.3864 341.298 33.1244 341.007 33.1244 341.007C33.0953 340.978 33.0371 340.949 33.008 340.978C32.9497 340.978 32.5713 341.007 32.1638 340.774C31.669 340.513 31.2615 340.076 30.9995 339.406C30.2718 337.718 28.6418 334.923 28.6127 334.894C28.5836 334.865 28.5836 334.836 28.5254 334.836C28.4963 334.836 28.4672 334.836 28.4381 334.865C26.7207 335.971 26.8663 336.932 26.8954 336.99C26.9827 337.281 27.1865 337.98 26.3714 339.552C26.3423 339.581 26.3423 339.61 26.3714 339.639C26.3714 339.668 26.4005 339.697 26.4296 339.697L26.8663 339.93C26.9245 339.959 26.9827 339.93 27.0118 339.872L27.6231 338.679C27.7395 338.417 27.885 338.3 28.0306 338.271C28.2343 338.242 28.409 338.417 28.409 338.417C29.224 339.377 29.5733 340.542 29.5733 340.542C29.6897 340.949 30.039 341.531 30.9704 342.026C32.1929 342.637 34.3178 343.161 34.4342 343.191C34.4924 343.191 34.5507 343.191 34.5507 343.132C34.7835 342.637 34.3469 341.997 33.823 341.619Z" fill="#2F2A4F"/>
<path d="M75.8836 234.234L55.5956 221.338L52.2482 213.013C52.2482 213.013 45.6699 214.847 45.6699 217.146C47.853 220.203 51.5205 225.268 51.5205 225.297C51.8698 226.141 74.8066 236.301 74.8066 236.301L75.8836 234.234Z" fill="#FFBA9F"/>
<path d="M26.5171 225.734C26.5171 225.734 33.2409 215.371 33.7649 210.713C34.2888 206.056 32.2222 190.511 34.2888 185.33C36.3554 180.148 40.5178 178.606 44.1272 179.1C47.7656 179.624 51.8989 181.167 51.8989 184.282C51.8989 187.397 47.2417 191.006 47.2417 191.006C47.2417 191.006 48.2895 200.321 48.2895 206.551C48.2895 212.285 43.1084 225.21 39.9939 227.277C36.8794 229.343 28.0598 229.343 26.5171 225.734Z" fill="#152753"/>
<path d="M91.3396 137.969H56.9345C56.2941 137.969 55.7993 138.493 55.7993 139.104C55.7993 139.744 56.3233 140.239 56.9345 140.239H91.3105C91.9509 140.239 92.4457 139.715 92.4457 139.104C92.4748 138.464 91.9509 137.969 91.3396 137.969Z" fill="#324684"/>
<path d="M91.3396 187.833H56.9345C56.2941 187.833 55.7993 188.357 55.7993 188.969C55.7993 189.609 56.3233 190.104 56.9345 190.104H91.3105C91.9509 190.104 92.4457 189.58 92.4457 188.969C92.4748 188.357 91.9509 187.833 91.3396 187.833Z" fill="#324684"/>
<path d="M87.7304 147.051V140.239H60.5439V147.022C60.5439 153.833 65.5504 161.722 72.0996 163.119V164.924C65.5504 166.321 60.5439 174.21 60.5439 181.022V187.804H87.7013V180.993C87.7013 174.181 82.6948 166.292 76.1456 164.895V163.09C82.7239 161.722 87.7304 153.862 87.7304 147.051Z" fill="#9DD7FC"/>
<path d="M74.8067 169.494V160.587C78.0667 160.267 81.0066 157.676 82.8695 154.416C77.3973 154.124 69.48 150.835 64.0951 151.621C65.6669 156.104 69.3054 160.179 73.4386 160.587V169.494C67.8791 170.047 63.251 177.179 63.251 183.059V187.804H84.9943V183.03C84.9943 177.15 80.3662 170.047 74.8067 169.494Z" fill="#FCE059"/>
</svg>
