<svg xmlns="http://www.w3.org/2000/svg" xmlns:xlink="http://www.w3.org/1999/xlink" width="1013" height="714" fill="none" xmlns:v="https://vecta.io/nano"><style><![CDATA[.B{fill:#fefefe}.C{fill:#2c3c43}.D{fill:#42616a}.E{fill:#178be7}.F{fill:#3f3d56}.G{fill:#bc6d5c}.H{fill:#f9b39b}.I{fill:#f69775}.J{fill:#c28879}]]></style><path d="M161.895 56.34s-4.9 43.767 1.322 67.615l58.96-2.5s-12.7-43.112-4.892-62.243l-55.4-2.883.01.011z" fill="#d9dad9"/><path d="M161.48 56.34s.396 47.174 2.776 61.588l59.752-2.752s-5.288-46.388-3.173-58.836H161.48h0z" class="E"/><path d="M211.743 76.214c0 .262-9 1.05-19.962 1.704-11.104.655-20.093 1.048-20.093.786s9-1.048 19.96-1.703c11.104-.656 20.094-.918 20.094-.787h.001zm0 9.966c0 .262-9 1.048-19.962 1.703-11.104.655-20.093 1.05-20.093.786s9-1.048 19.96-1.703c11.104-.655 20.094-1.048 20.094-.786h.001zm-9.985 9.846c0 .262-5.023.786-11.368 1.18s-11.37.524-11.5.262c0-.262 5.023-.786 11.368-1.18s11.37-.524 11.5-.262z" class="B"/><path d="M160.44 126.924s.397 47.174 2.776 61.588l59.753-2.752s-5.288-46.388-3.173-58.836H160.44h0z" class="E"/><path d="M210.698 146.714c0 .262-9 1.05-19.962 1.704-11.104.655-20.093 1.048-20.093.786s9-1.048 19.96-1.703c11.104-.656 20.094-1.05 20.094-.787h.001zm.13 10.108c0 .262-9 1.048-19.962 1.703-11.104.656-20.094 1.05-20.094.787s9-1.05 19.962-1.704c11.104-.655 20.094-1.048 20.094-.786zm-10.215 9.708c0 .262-5.023.786-11.37 1.18s-11.37.524-11.5.262c0-.262 5.024-.786 11.37-1.18s11.37-.524 11.5-.262z" class="B"/><path d="M160.44 206.896s.397 47.174 2.776 61.588l59.753-2.752s-5.288-46.387-3.173-58.836H160.44h0z" class="C"/><path d="M210.698 226.677c0 .262-9 1.048-19.962 1.703-11.104.655-20.093 1.05-20.093.787s9-1.05 19.96-1.704c11.104-.655 20.094-1.048 20.094-.786h.001zm.13 9.926c0 .262-9 1.048-19.962 1.703-11.104.655-20.094.917-20.094.786 0-.262 9-1.048 19.962-1.703 11.104-.655 20.094-1.048 20.094-.786zm-10.215 9.845c0 .262-5.023.787-11.37 1.18s-11.37.524-11.5.262c0-.262 5.024-.786 11.37-1.18s11.37-.524 11.5-.262z" class="B"/><path d="M153.48 300.308s.396 47.173 2.776 61.588l59.752-2.752s-5.288-46.388-3.173-58.836H153.48z" class="D"/><g class="B"><use xlink:href="#B"/><use xlink:href="#B" y="9.979"/><path d="M193.642 339.992c0 .262-5.023.786-11.37 1.18s-11.368.524-11.5.262c0-.262 5.024-.786 11.37-1.18s11.37-.524 11.5-.262z"/></g><path d="M232.612 300.697s.397 47.173 2.776 61.588l59.752-2.752s-5.287-46.388-3.172-58.836h-59.356z" class="C"/><g class="B"><use xlink:href="#C"/><path d="M283 330.586c0 .262-9 1.048-19.962 1.703-11.104.656-20.093 1.05-20.093.787s9-1.05 19.96-1.704c11.104-.655 20.094-1.048 20.094-.786H283zm-10.214 9.847c0 .262-5.024.786-11.37 1.18s-11.37.524-11.5.262c0-.262 5.023-.786 11.37-1.18s11.37-.524 11.5-.262z"/></g><path d="M298.842 304.088s.396 47.174 2.776 61.588l59.752-2.752s-5.288-46.388-3.173-58.836h-59.355z" class="E"/><path d="M349.087 324.007c0 .262-9 1.05-19.96 1.704-11.105.655-20.094 1.048-20.094.786s9-1.048 19.962-1.703c11.104-.656 20.093-1.05 20.093-.787h-.001zm0 9.979c0 .262-9 1.048-19.96 1.703-11.105.656-20.094 1.05-20.094.787s9-1.05 19.962-1.704c11.104-.655 20.093-1.048 20.093-.786h-.001zm-10.074 9.838c0 .262-5.023.786-11.37 1.18s-11.368.524-11.5.262c0-.262 5.023-.786 11.368-1.18s11.37-.524 11.5-.262h.002z" class="B"/><path d="M221.512 384.83s.396 47.174 2.776 61.588l59.752-2.752s-5.288-46.387-3.173-58.836h-59.355z" class="D"/><path d="M271.75 404.62c0 .262-9 1.048-19.96 1.704-11.104.655-20.094 1.048-20.094.786s9-1.048 19.962-1.704c11.104-.655 20.093-1.048 20.093-.786h-.001zm0 10.108c0 .262-9 1.048-19.96 1.703-11.104.655-20.094 1.048-20.094.786s9-1.048 19.962-1.703c11.104-.655 20.093-1.048 20.093-.786h-.001zm-10.202 9.658c0 .262-5.023.787-11.368 1.18s-11.37.524-11.5.262c0-.262 5.023-.786 11.368-1.18s11.37-.524 11.5-.262z" class="B"/><path d="M413.076 276.448s.397 47.174 2.776 61.588l59.752-2.752s-5.287-46.387-3.172-58.836h-59.356 0z" class="C"/><path d="M463.462 296.238c0 .262-9 1.05-19.96 1.704-11.105.655-20.094 1.048-20.094.786s9-1.048 19.962-1.703c11.104-.656 20.093-1.05 20.093-.787h-.001zm0 9.976c0 .262-9 1.048-19.96 1.703-11.105.656-20.094 1.05-20.094.787s9-1.05 19.962-1.704c11.104-.655 20.093-1.048 20.093-.786h-.001zm-10.202 9.84c0 .262-5.023.786-11.368 1.18s-11.37.524-11.5.262c0-.262 5.023-.786 11.368-1.18s11.37-.524 11.5-.262z" class="B"/><use xlink:href="#D" class="D"/><g class="B"><use xlink:href="#C" x="310.203" y="86.497"/><path d="M593.2 417.038c0 .262-9 1.048-19.962 1.704-11.104.655-20.093 1.048-20.093.786s9-1.048 19.96-1.704c11.104-.655 20.094-1.048 20.094-.786h.001zm-10.223 9.842c0 .262-5.023.786-11.37 1.18s-11.368.524-11.5.262c0-.262 5.024-.786 11.37-1.18s11.37-.525 11.5-.262z"/></g><path d="M616.4 388.225s.397 47.174 2.776 61.588l59.752-2.752s-5.287-46.387-3.172-58.836H616.4z" class="D"/><path d="M666.784 408.025c0 .263-9 1.05-19.962 1.704-11.104.655-20.093 1.048-20.093.786s9-1.048 19.96-1.703c11.104-.656 20.094-.918 20.094-.787h.001zm0 9.965c0 .262-9 1.048-19.962 1.703-11.104.655-20.093 1.05-20.093.787s9-1.05 19.96-1.704c11.104-.655 20.094-1.048 20.094-.786h.001zm-10.2 9.84c0 .262-5.024.786-11.37 1.18s-11.37.524-11.5.262c0-.262 5.023-.786 11.37-1.18s11.37-.524 11.5-.262z" class="B"/><path d="M690.124 389.306s.397 47.173 2.776 61.588l59.752-2.752s-5.288-46.388-3.173-58.836h-59.355 0z" class="C"/><path d="M740.38 409.096c0 .262-9 1.048-19.96 1.703-11.105.655-20.094 1.05-20.094.786s9-1.048 19.962-1.703c11.104-.655 20.093-1.048 20.093-.786h-.001zm0 9.926c0 .262-9 1.048-19.96 1.704-11.105.655-20.094 1.048-20.094.786s9-1.05 19.962-1.704c11.104-.655 20.093-1.048 20.093-.786h-.001zm-9.984 9.838c0 .262-5.023.786-11.37 1.18s-11.368.524-11.5.262c0-.262 5.024-.786 11.37-1.18s11.37-.524 11.5-.262z" class="B"/><path d="M778.8 386.552s.397 47.174 2.776 61.588l59.752-2.752s-5.288-46.387-3.172-58.836H778.8z" class="D"/><path d="M829.076 406.343c0 .262-9 1.048-19.962 1.703-11.104.656-20.093 1.05-20.093.787s9-1.05 19.96-1.704c11.104-.655 20.094-1.048 20.094-.786h.001zm0 9.927c0 .262-9 1.048-19.962 1.703-11.104.655-20.093 1.048-20.093.786s9-1.048 19.96-1.703c11.104-.655 20.094-1.048 20.094-.786h.001zm-10.116 9.84c0 .262-5.023.786-11.368 1.18s-11.37.524-11.5.262c0-.262 5.023-.786 11.37-1.18s11.368-.525 11.5-.262h-.002z" class="B"/><path d="M842.964 393.344s.396 47.174 2.776 61.588l59.75-2.752s-5.3-46.387-3.17-58.836h-59.356 0z" class="D"/><path d="M893.23 413.13c0 .262-9 1.048-19.96 1.703-11.1.656-20.1 1.05-20.1.787s9-1.05 19.97-1.704c11.1-.655 20.1-1.048 20.1-.786h-.01zm.13 9.978c0 .262-9 1.048-19.96 1.703-11.1.656-20.1 1.05-20.1.787s9-1.05 19.96-1.704c11.1-.655 20.1-1.048 20.1-.786h0zm-10.22 9.784c0 .262-5.03.786-11.37 1.18-6.35.393-11.37.524-11.5.262 0-.262 5.02-.786 11.36-1.18 6.35-.393 11.37-.524 11.5-.262h.01z" class="B"/><use xlink:href="#D" x="-0.258" y="-85.727" class="D"/><path d="M592.698 321.272c0 .262-9 1.048-19.962 1.703-11.104.656-20.093 1.05-20.093.787s9-1.05 19.96-1.704c11.104-.655 20.094-.917 20.094-.786h.001zm0 9.96c0 .263-9 1.05-19.962 1.704-11.104.655-20.093 1.048-20.093.786s9-1.048 19.96-1.703c11.104-.655 20.094-1.05 20.094-.787h.001zm-9.968 9.841c0 .262-5.023.787-11.37 1.18s-11.368.524-11.5.262c0-.262 5.024-.786 11.37-1.18s11.37-.524 11.5-.262z" class="B"/><path d="M620.527 301.725s.397 47.173 2.776 61.588l59.752-2.752s-5.287-46.388-3.172-58.836h-59.356 0z" class="F"/><path d="M670.775 321.514c0 .262-9 1.048-19.962 1.704-11.104.655-20.093 1.048-20.093.786s9-1.048 19.96-1.704c11.104-.655 20.094-1.048 20.094-.786h.001zm0 9.97c0 .262-9 1.048-19.962 1.703-11.104.656-20.093 1.05-20.093.787s9-1.05 19.96-1.704c11.104-.655 20.094-1.048 20.094-.786h.001zm-10.212 9.845c0 .262-5.023.786-11.37 1.18s-11.368.524-11.5.262c0-.262 5.024-.786 11.37-1.18s11.37-.524 11.5-.262z" class="B"/><path d="M774.147 301.725s.397 47.173 2.777 61.588l59.752-2.752s-5.288-46.388-3.173-58.836h-59.356z" class="D"/><path d="M824.395 321.514c0 .262-9 1.048-19.962 1.704-11.104.655-20.093.917-20.093.786 0-.262 9-1.048 19.96-1.704 11.105-.655 20.094-1.048 20.094-.786h.001zm0 9.971c0 .262-9 1.048-19.962 1.703-11.104.656-20.093 1.05-20.093.787s9-1.05 19.96-1.704c11.105-.655 20.094-1.048 20.094-.786h.001zm-10.075 9.845c0 .262-5.024.786-11.37 1.18s-11.37.524-11.5.262c0-.262 5.024-.786 11.37-1.18s11.37-.524 11.5-.262z" class="B"/><use xlink:href="#E" class="C"/><path d="M303.512 226.677c0 .262-9 1.048-19.96 1.703-11.105.655-20.094 1.05-20.094.787s9-1.05 19.96-1.704c11.105-.655 20.094-1.048 20.094-.786h0zm0 9.926c0 .262-9 1.048-19.96 1.703-11.105.655-20.094.917-20.094.786 0-.262 9-1.048 19.96-1.703 11.105-.655 20.094-1.048 20.094-.786zm-10.202 9.845c0 .262-5.023.787-11.37 1.18s-11.368.524-11.5.262c0-.262 5.024-.786 11.37-1.18s11.37-.524 11.5-.262z" class="B"/><path d="M229.503 56.34s.397 47.174 2.776 61.588l59.752-2.752s-5.288-46.388-3.173-58.836h-59.355z" class="E"/><path d="M279.75 76.214c0 .262-9 1.05-19.96 1.704-11.104.655-20.094 1.048-20.094.786s9-1.048 19.962-1.703c11.104-.656 20.093-.918 20.093-.787h-.001zm0 9.966c0 .262-9 1.048-19.96 1.703-11.104.655-20.094 1.05-20.094.786s9-1.048 19.962-1.703c11.104-.655 20.093-1.048 20.093-.786h-.001zm-10.074 9.846c0 .262-5.023.786-11.368 1.18s-11.37.524-11.5.262c0-.262 5.023-.786 11.368-1.18s11.37-.524 11.5-.262z" class="B"/><path d="M230.788 127.235s.397 47.174 2.776 61.588l59.752-2.752s-5.288-46.387-3.172-58.836h-59.356z" class="E"/><path d="M281.053 146.972c0 .262-9 1.048-19.96 1.703-11.105.655-20.094 1.05-20.094.786s9-1.048 19.96-1.703c11.105-.655 20.094-1.048 20.094-.786zm0 10.102c0 .262-9 1.05-19.96 1.704-11.105.655-20.094 1.048-20.094.786s9-1.048 19.96-1.703c11.105-.656 20.094-1.05 20.094-.787zm-10.205 9.714c0 .262-5.023.786-11.37 1.18s-11.368.524-11.5.262c0-.262 5.023-.786 11.368-1.18s11.37-.524 11.5-.262h.002z" class="B"/><path d="M303.87 56.34s.397 47.174 2.776 61.588l59.752-2.752s-5.287-46.388-3.172-58.836H303.87h0z" class="E"/><path d="M354.115 76.214c0 .262-9 1.05-19.962 1.704-11.104.655-20.093 1.048-20.093.786s9-1.048 19.96-1.703c11.104-.656 20.094-.918 20.094-.787h.001zm0 9.966c0 .262-9 1.048-19.962 1.703-11.104.655-20.093 1.05-20.093.786s9-1.048 19.96-1.703c11.104-.655 20.094-1.048 20.094-.786h.001zm-10.203 9.846c0 .262-5.024.786-11.37 1.18s-11.37.524-11.5.262c0-.262 5.023-.786 11.37-1.18s11.368-.524 11.5-.262z" class="B"/><use xlink:href="#D" x="-164.592" y="-330.854" class="E"/><path d="M428.6 76.214c0 .262-9 1.05-19.96 1.704-11.105.655-20.094 1.048-20.094.786s9-1.048 19.96-1.703c11.105-.656 20.094-.918 20.094-.787h0zm0 9.966c0 .262-9 1.048-19.96 1.703-11.105.655-20.094 1.05-20.094.786s9-1.048 19.96-1.703c11.105-.655 20.094-1.048 20.094-.786zm-10.215 9.846c0 .262-5.023.786-11.368 1.18s-11.37.524-11.5.262c0-.262 5.023-.786 11.368-1.18s11.37-.524 11.5-.262z" class="B"/><path d="M452.6 56.34s.396 47.174 2.776 61.588l59.752-2.752s-5.288-46.388-3.173-58.836H452.6h0z" class="E"/><path d="M502.966 76.214c0 .262-9 1.05-19.96 1.704-11.105.655-20.094 1.048-20.094.786s9-1.048 19.962-1.703c11.104-.656 20.093-.918 20.093-.787h-.001zm0 9.966c0 .262-9 1.048-19.96 1.703-11.105.655-20.094 1.05-20.094.786s9-1.048 19.962-1.703c11.104-.655 20.093-1.048 20.093-.786h-.001zm-10.203 9.846c0 .262-5.023.786-11.368 1.18s-11.37.524-11.5.262c0-.262 5.023-.786 11.368-1.18s11.37-.524 11.5-.262z" class="B"/><path d="M552.128 66.775s.397 47.174 2.776 61.588l59.752-2.75s-5.288-46.388-3.173-58.837h-59.355v-.001z" class="F"/><path d="M602.373 86.57c0 .262-9 1.048-19.96 1.703-11.104.656-20.094 1.05-20.094.787s9-1.05 19.962-1.704c11.104-.655 20.093-1.048 20.093-.786h-.001zm0 10.107c0 .262-9 1.05-19.96 1.704-11.104.655-20.094 1.048-20.094.786s9-1.048 19.962-1.703c11.104-.656 20.093-1.05 20.093-.787h-.001zm-9.973 9.837c0 .262-5.023.787-11.37 1.18s-11.37.524-11.5.262c0-.262 5.024-.787 11.37-1.18s11.37-.524 11.5-.262z" class="B"/><path d="M618.75 67.86s.397 47.174 2.776 61.588l59.752-2.752s-5.288-46.388-3.173-58.836H618.75z" class="F"/><path d="M669 87.65c0 .263-9 1.05-19.962 1.704-11.104.655-20.093 1.048-20.093.786s9-1.048 19.96-1.703c11.104-.656 20.094-1.05 20.094-.787H669zm0 9.926c0 .262-9 1.05-19.962 1.704-11.104.655-20.093 1.048-20.093.786s9-1.048 19.96-1.704c11.104-.655 20.094-1.048 20.094-.786H669zm-9.968 9.837c0 .262-5.023.786-11.37 1.18s-11.368.524-11.5.262c0-.262 5.024-.787 11.37-1.18s11.37-.524 11.5-.262z" class="B"/><use xlink:href="#E" x="439.171" y="-136.928" class="F"/><path d="M742.68 89.7c0 .262-9 1.048-19.96 1.703-11.105.655-20.094 1.05-20.094.786s9-1.048 19.96-1.703c11.105-.655 20.094-1.048 20.094-.786zm0 10.107c0 .262-9 1.05-19.96 1.704-11.105.655-20.094 1.048-20.094.786s9-1.048 19.96-1.704c11.105-.655 20.094-1.048 20.094-.786zm-10.202 9.718c0 .262-5.023.786-11.37 1.18s-11.368.524-11.5.262c0-.262 5.024-.786 11.37-1.18s11.37-.524 11.5-.262z" class="B"/><path d="M779.827 67.47s.397 47.173 2.776 61.588l59.752-2.752s-5.287-46.388-3.172-58.836h-59.356 0z" class="F"/><path d="M830.202 87.4c0 .262-9 1.05-19.962 1.704-11.104.655-20.094 1.048-20.094.786s9-1.048 19.962-1.704c11.104-.655 20.094-1.048 20.094-.786zm0 9.925c0 .262-9 1.048-19.962 1.703-11.104.656-20.094 1.05-20.094.787s9-1.05 19.962-1.704c11.104-.655 20.094-1.048 20.094-.786zM820 107.155c0 .262-5.024.786-11.37 1.18s-11.37.524-11.5.262c0-.262 5.023-.786 11.37-1.18s11.368-.524 11.5-.262z" class="B"/><path d="M787.067 144.386s.397 47.174 2.776 61.588l59.752-2.752s-5.287-46.387-3.172-58.836h-59.356 0z" class="F"/><path d="M837.442 164.3c0 .262-9 1.05-19.962 1.704-11.104.655-20.093 1.048-20.093.786s9-1.048 19.96-1.703c11.105-.656 20.094-1.05 20.094-.787h.001zm0 9.94c0 .262-9 1.05-19.962 1.704-11.104.655-20.093 1.048-20.093.786s9-1.048 19.96-1.703c11.105-.656 20.094-.918 20.094-.787h.001zm-10.202 9.822c0 .262-5.024.786-11.37 1.18s-11.37.525-11.5.263c0-.263 5.024-.787 11.37-1.18s11.37-.524 11.5-.262v-.001z" class="B"/><path d="M832.257 74.133s.396 47.174 2.776 61.588l59.747-2.752s-5.28-46.387-3.17-58.836h-59.353z" class="D"/><path d="M882.5 93.924c0 .262-9 1.048-19.96 1.703-11.1.656-20.1 1.05-20.1.787s9-1.05 19.96-1.704c11.1-.655 20.1-1.048 20.1-.786zm.13 9.98c0 .262-9 1.05-19.96 1.704-11.1.655-20.093 1.048-20.093.786s8.993-1.048 19.963-1.703c11.1-.656 20.1-1.05 20.1-.787h-.01zm-10.2 9.784c0 .262-5.02.786-11.37 1.18-6.34.393-11.367.524-11.5.262 0-.262 5.02-.786 11.37-1.18 6.34-.393 11.37-.524 11.5-.262z" class="B"/><use xlink:href="#E" x="315.12" y="-101.6" class="D"/><path d="M618.503 125.216c0 .262-9 1.048-19.96 1.703-11.104.656-20.094 1.05-20.094.787s9-1.05 19.962-1.704c11.104-.655 20.093-1.048 20.093-.786h-.001zm0 9.984c0 .262-9 1.048-19.96 1.703-11.104.655-20.094 1.05-20.094.786s9-1.048 19.962-1.703c11.104-.655 20.093-.917 20.093-.786h-.001zm-10.076 9.832c0 .262-5.023.787-11.368 1.18s-11.37.524-11.5.262c0-.262 5.023-.786 11.368-1.18s11.37-.524 11.5-.262z" class="B"/><path d="M560.76 210.158s.396 47.174 2.776 61.588l59.752-2.752s-5.288-46.387-3.173-58.836H560.76h0z" class="F"/><path d="M611.145 229.948c0 .262-9 1.05-19.962 1.704-11.104.655-20.093.917-20.093.786 0-.262 9-1.048 19.96-1.703 11.105-.656 20.094-1.05 20.094-.787h.001zm0 9.976c0 .262-9 1.048-19.962 1.703-11.104.656-20.093 1.05-20.093.787s9-1.05 19.96-1.704c11.105-.655 20.094-1.048 20.094-.786h.001zm-10.215 9.788c0 .262-5.023.786-11.37 1.18s-11.368.524-11.5.262c0-.262 5.023-.786 11.368-1.18s11.37-.525 11.5-.262h.002z" class="B"/><path d="M373.562 107.538s4.9 43.767-1.322 67.616l-58.96-2.5s12.7-43.112 4.9-62.243l55.4-2.883-.018.01z" fill="#e5e6e5"/><path d="M313.064 100.233s-3.702 49.533-6.875 59.623l53.672 5.634 8.064-7.6s5.684-43.767 4.9-56.084l-59.752-1.442v-.13l-.009-.001z" class="D"/><path d="M360.838 157.368l-1.2 7.993 8.064-7.6-6.874-.393h.01z" class="C"/><path d="M361.5 125.264c0 .13-2.38-.13-5.95-.655l-14.4-1.966-14.4-1.834-5.95-.918s2.38-.13 6.08.262c3.702.263 8.857.787 14.542 1.573s10.707 1.572 14.4 2.36c3.7.655 5.95 1.3 5.95 1.3l-.265-.13-.007.008zm-2.37 10.83c0 .13-2.247 0-5.817-.262s-8.46-.786-13.88-1.44a236.29 236.29 0 0 1-13.88-2.097l-5.685-1.18s2.247.13 5.817.524l13.88 1.834 13.88 1.704c3.57.393 5.684.786 5.684.917h.001zm-3.305 10.1c0 .262-8.064-.655-17.978-1.966s-17.98-2.62-17.98-2.883 8.064.656 17.98 1.966 17.978 2.62 17.846 2.883h.132z" class="B"/><path d="M185.27 160s-3.702 49.532-6.874 59.622l53.67 5.635 8.064-7.6s5.684-43.767 4.9-56.085l-59.752-1.44v-.13l-.008-.002z" class="D"/><path d="M233.28 217.073l-1.2 7.994 8.064-7.6-6.874-.393.01-.001z" class="C"/><path d="M233.958 184.968c0 .132-2.38-.13-5.95-.655l-14.4-1.965-14.542-1.835-5.95-.917s2.38-.13 6.08.262c3.702.262 8.857.786 14.542 1.572s10.708 1.573 14.4 2.36c3.7.655 5.95 1.3 5.95 1.3l-.132-.132.002.01zm-2.368 10.885c0 .13-2.247 0-5.817-.262s-8.46-.786-13.88-1.44a235.91 235.91 0 0 1-13.88-2.097c-3.58-.655-5.684-1.048-5.684-1.18s2.247.13 5.817.524l13.88 1.835 13.88 1.703c3.57.393 5.684.786 5.684.917zm-3.304 10.117c0 .262-8.064-.655-17.978-1.966s-17.98-2.62-17.98-2.883 8.064.656 17.98 1.966 17.978 2.62 17.978 2.883z" class="B"/><path d="M84.02 76.226h44.947v-10.22H84.02v10.22z" fill="#007ee4"/><g class="C"><path d="M84.02 318.782h44.947v-10.1H84.02v10.1zm0 82.162h44.947v-10.22H84.02v10.22zM887.03 49.64c0 .262-181.508.524-405.314.524-223.938 0-405.3-.262-405.3-.524s181.372-.524 405.3-.524l405.314.524zm0 241.474c0 .262-181.508.524-405.314.524-223.938 0-405.3-.262-405.3-.524s181.372-.525 405.3-.525l405.314.525zm0 165.786c0 .262-181.508.525-405.314.525-223.938 0-405.3-.263-405.3-.525s181.372-.524 405.3-.524l405.314.524zm0-80.83c0 .262-181.508.524-405.314.524-223.938 0-405.3-.262-405.3-.524s181.372-.524 405.3-.524l405.314.524z"/><path d="M145.098 458.988c-.264 0-.53-102.602-.53-229.185l.53-229.186c.265 0 .53 102.603.53 229.186l-.53 229.185zm374.497 2.485c-.264 0-.53-102.472-.53-228.793l.53-228.923c.265 0 .53 102.472.53 228.923l-.53 228.793zm242.58 2.367c-.264 0-.528-102.472-.528-228.923l.528-228.924c.265 0 .53 102.472.53 228.924l-.53 228.923zm-149-263.928c.255.113.521.2.793.262.53.262 1.2.524 2.116.917 1.85.917 4.494 2.228 7.535 4.586s6.477 5.504 9.518 10.1c1.586 2.228 2.908 4.718 4.23 7.6 1.2 2.882 2.115 5.896 2.776 9.303 1.2 6.683.793 14.414-1.983 21.884-2.644 7.6-7.535 14.938-14.54 20.704s-16.128 9.565-26.043 10.352c-9.782.917-20.358-1.18-29.48-6.3-9.122-5.242-16.26-13.104-20.358-22.015-4.23-8.9-5.288-18.738-3.305-27.65 1.983-8.78 6.477-16.5 12.294-22.014 2.908-2.752 6.213-4.98 9.518-6.683s6.742-2.883 10.18-3.538c6.742-1.572 12.955-1.44 18.375-1.18 5.42.393 10.047 1.18 13.748 1.834s6.6 1.3 8.593 1.835c.925.262 1.72.393 2.247.524s.794.262.794.262-.265 0-.794-.13-1.322-.262-2.247-.393c-1.983-.393-4.9-1.048-8.593-1.704a136.99 136.99 0 0 0-13.748-1.703c-5.42-.262-11.633-.262-18.243 1.3-3.305.786-6.6 1.835-9.914 3.538-3.305 1.573-6.478 3.8-9.254 6.552-6.058 5.913-10.242 13.478-12.03 21.752a41.97 41.97 0 0 0 3.305 26.994c4.098 8.78 11.105 16.5 20.094 21.622 9 4.98 19.3 7.076 28.95 6.158 9.65-.786 18.772-4.455 25.514-10.1 6.874-5.634 11.765-12.972 14.4-20.3 2.644-7.47 3.173-14.94 1.983-21.5-.66-3.276-1.586-6.42-2.644-9.172-1.2-2.752-2.5-5.242-4.098-7.47-2.908-4.455-6.345-7.73-9.253-10.1s-5.553-3.67-7.403-4.718c-.926-.393-1.587-.655-2.115-.917s-.66-.393-.66-.393l-.265-.13.007.031zm19.356 5.804c-.132-.262 7.138-6.3 16.392-13.497 9.254-7.338 16.8-12.972 17.053-12.84.132.262-7.138 6.3-16.392 13.497-9.254 7.338-16.8 12.972-17.053 12.84z"/><path d="M661.535 206.745l-2.38.394-6.478.524-21.415 1.44h-.66l.264-.655c.132-.262.132-.524.264-.786 2.512-8.256 6.213-15.2 9.254-19.918 1.586-2.36 2.908-4.193 3.834-5.504.925-1.18 1.586-1.834 1.586-1.834s-.397.786-1.322 2.096-2.115 3.145-3.57 5.635c-2.9 4.717-6.346 11.662-8.857 19.787-.132.262-.132.524-.265.786l-.528-.655 21.415-1.18 6.478-.262h2.38v.13.002zM868.07 320.363c-.13 0 .53-1.442 1.58-3.8 1.06-2.5 2.38-6.16 3.44-10.745 2.25-9.173 3.04-22.932-1.45-36.822-4.63-13.9-13.35-24.504-20.62-30.663-3.706-3.145-6.88-5.373-9.258-6.683-2.248-1.44-3.57-2.097-3.57-2.228a21.99 21.99 0 0 0 1.058.393c.66.394 1.586.787 2.776 1.442 2.38 1.3 5.684 3.407 9.384 6.552 3.7 3.014 7.8 7.207 11.64 12.448 3.83 5.1 7.13 11.4 9.5 18.477 2.25 7.076 3.3 14.02 3.3 20.442s-.8 12.186-1.98 16.773c-1.2 4.717-2.65 8.386-3.7 10.745-.53 1.18-1.05 2.096-1.32 2.752l-.53.917h-.26.01zM885 310.015c.13.13-1.72 1.704-4.9 4.194l-5.42 4.324-3.17 2.5c-1.06.786-2.25 2.096-4.23 2.096-.92 0-1.72-.786-2.1-1.44-.4-.786-.53-1.442-.8-2.097l-1.05-3.93-1.72-6.683-1.32-6.3c.13 0 .92 2.228 1.98 6.028l1.85 6.683 1.06 3.93c.26 1.3.8 2.883 2.1 2.883 1.2 0 2.38-1.048 3.57-1.835l8.85-6.694 5.3-3.67v.011zM417.067 199.42c0 .262-18.243 5.1-40.848 10.745-22.606 5.766-41.113 10.1-41.113 9.828-.132-.262 18.243-5.1 40.848-10.745 22.606-5.766 41.113-10.1 41.113-9.828zm11.93 9.66c.133.262-20.093 6.028-44.946 12.842l-45.2 12.055c-.133-.262 20.093-6.027 44.946-12.84l45.2-12.056v-.001zm7.262 15.992c0 .262-19.168 4.98-42.963 10.745l-43.228 9.828c0-.262 19.17-4.98 42.964-10.745l43.227-9.828z"/></g><path d="M334.456 391.768l14.54 76.395 145.944-27.387-25.382-74.43-135.103 25.422h.001z" fill="#e5e6e5"/><path d="M482.463 434.093L344.32 460.038l-12.955-67.746 138.144-25.946 12.955 67.747h-.001z" class="B"/><path d="M482.472 434.1s-.133-.394-.265-1.18l-.66-3.538-12.294-62.898.397.262-138.144 26.077.397-.525 12.955 67.747-.53-.393 99.146-18.345 28.686-5.242 7.668-1.44 1.983-.393c.396-.13.66-.13.66-.13s-.265 0-.66.13l-1.983.393-7.535 1.44-28.554 5.504-99.4 18.87-.397.13-.132-.393-13.087-68.27.53-.13 138.54-25.945v.393l12.426 66.698c.132.786.132 1.18.132 1.18h.133l-.012-.002z" class="C"/><path d="M393.375 435.3l-38.204 7.207-7.14-37.87 38.072-7.076 7.27 37.74.002-.001z" class="B"/><g class="C"><path d="M393.362 435.266s-.132-.262-.132-.786c-.132-.524-.264-1.18-.397-2.097l-1.586-7.73-5.42-27.256.53.262-38.204 7.207c-.133.13.66-1.048.396-.524v.524l.397 1.966c.132.917.264 1.703.528 2.62l.926 5.1 1.85 9.828 3.304 17.82-.528-.393 27.628-4.98 7.8-1.3 2.115-.393.793-.13s-.264.13-.66.13l-1.983.393-7.667 1.573-27.76 5.372-.397.13-.132-.393-3.437-17.82c-.66-3.145-1.2-6.42-1.85-9.828-.264-1.703-.66-3.407-.925-5.1-.132-.918-.264-1.704-.53-2.62l-.396-1.966v-.524c-.397.524.396-.655.396-.524l38.205-7.076.396-.13.132.393 5.024 27.65 1.322 7.73c.132.786.264 1.442.396 1.966.133.393.133.655.133.655l-.265.262-.002-.011z"/><path d="M393.357 435.292c-.132 0-.264-.917-.793-2.752-.53-1.703-1.586-4.324-4.098-6.42-1.2-1.048-2.776-2.227-4.76-2.882-1.85-.656-4.098-.918-6.477-.787l-.794.13.397-.786c1.586-2.5 1.85-6.028.397-9.04-.66-1.573-1.85-2.883-3.437-3.8-1.455-.917-3.305-1.3-5.156-1.18-2.115.13-4.098.786-5.552 2.097-1.587 1.18-2.512 3.014-2.908 4.717-.794 3.67.66 7.47 3.172 9.435l.397.393-.53.262c-2.644 1.573-4.495 3.67-5.817 5.766s-1.85 4.193-2.247 5.896c-.53 3.54 0 5.504-.132 5.635l-.397-1.44c-.132-.918-.264-2.36 0-4.194s.793-3.93 2.115-6.158c1.2-2.228 3.173-4.456 5.95-6.16v.655c-2.776-2.228-4.362-6.3-3.57-10.22.397-1.966 1.586-3.93 3.305-5.373s3.833-2.096 6.213-2.227c1.983-.13 3.966.393 5.684 1.3 1.72 1.05 2.9 2.5 3.702 4.193 1.586 3.276 1.322 7.208-.53 9.96l-.397-.655c2.38-.262 4.76.13 6.742.917s3.57 1.966 4.892 3.145c2.028 1.779 3.42 4.172 3.965 6.814.265.918.397 1.573.397 2.097s.132.786 0 .786l.264-.13.003.006z"/></g><path d="M400.82 396.102l33.18-6.16-33.18 6.16z" class="B"/><path d="M433.872 389.926c0 .262-7.27 1.835-16.524 3.538-9.12 1.704-16.657 2.883-16.657 2.62s7.27-1.835 16.525-3.538c9.12-1.704 16.656-2.883 16.656-2.62h0z" class="C"/><path d="M402.232 403.805l6.742-1.3-6.742 1.3z" class="B"/><path d="M408.846 402.543c0 .263-1.454.787-3.304 1.05-1.85.393-3.438.393-3.438.13s1.455-.786 3.305-1.048c1.85-.394 3.437-.394 3.437-.132zm55.187 3.36c0 .262-13.22 3.014-29.48 6.028l-29.743 5.1c0-.262 13.22-3.013 29.48-6.027l29.744-5.1-.001-.001zm1.562 6.586c0 .262-13.22 3.014-29.743 6.027-16.393 3.145-29.876 5.373-29.876 5.1s13.22-3.014 29.743-6.028c16.392-3.145 29.744-5.372 29.876-5.1v.001zm.365 7.846l-2.248.656-6.213 1.3-20.622 4.062-20.755 3.8-6.345 1.05c-1.454.262-2.38.262-2.38.262s.794-.262 2.248-.655l6.213-1.3 20.622-4.062 20.755-3.8 6.345-1.048c1.454-.263 2.38-.263 2.38-.263v-.002z" class="C"/><g fill="#f1626c"><path d="M405.868 388.776s.133-.13.397-.262.66-.394 1.057-.525c.926-.524 2.512-1.048 4.495-1.834 3.966-1.3 10.047-2.5 17.582-1.573 3.7.525 7.8 1.442 11.765 3.407 1.983 1.05 3.966 2.36 5.42 4.194 1.587 1.834 2.38 4.586 1.587 7.076-.66 2.5-2.512 4.586-4.495 6.158-2.115 1.573-4.495 2.883-6.874 4.063-4.9 2.358-10.047 4.324-15.73 5.372s-11.37 1.18-16.657-.262c-2.644-.655-5.155-1.572-7.403-3.014s-4.098-3.276-5.023-5.765-.397-5.1.793-7.208 2.908-3.67 4.76-4.98c3.57-2.62 7.27-4.455 10.708-5.766 7.006-2.62 13.22-3.145 17.317-3.014 2.115 0 3.702.263 4.76.394.53.13.926.13 1.2.13s.397.13.397.13h-.397c-.396 0-.793 0-1.2-.13-1.057-.13-2.644-.13-4.76-.13-4.098.13-10.18.655-17.053 3.276-3.437 1.3-7.006 3.276-10.575 5.765-1.72 1.3-3.305 2.883-4.495 4.85-.594.973-.962 2.067-1.076 3.201s.028 2.279.416 3.351c.794 2.228 2.644 3.93 4.76 5.372 2.115 1.3 4.627 2.228 7.14 2.883 5.155 1.3 10.707 1.3 16.26.13 5.552-1.048 10.707-3.014 15.466-5.242 2.38-1.18 4.76-2.358 6.742-3.93s3.702-3.407 4.23-5.634c.66-2.228-.133-4.587-1.455-6.3-1.322-1.835-3.304-3.014-5.155-4.062-3.834-1.835-7.8-2.883-11.5-3.407-7.403-1.05-13.352.13-17.318 1.3-1.508.495-3.006 1.02-4.494 1.573-.397.13-.794.393-1.2.524-.264.13-.397.13-.397.13v-.262l.005.021zm39.486-1.054c-.132-.262 4.23-4.062 9.783-8.518s10.3-7.993 10.443-7.73-4.23 4.062-9.782 8.518-10.18 7.993-10.444 7.73h0z"/><path d="M457.8 386.015c0 .263-5.024 1.573-11.5 2.883-.53.13-.926.13-1.322.262l-.793.13.132-.655c1.454-5.765 3.966-9.566 4.098-9.434.264.13-1.85 4.062-3.173 9.696l-.53-.524c.397-.13.926-.13 1.322-.262 6.346-1.3 11.634-2.097 11.634-1.834l.132-.263v.001zm-20.623 8.4c0 .262-8.064 1.704-18.1 3.276s-18.242 2.62-18.375 2.36c0-.262 8.064-1.703 18.243-3.276 10.047-1.572 18.243-2.62 18.375-2.36h-.132-.011z"/></g><path d="M395.8 379.846c.925 4.587-2.115 8.9-6.742 9.828s-9-2.096-9.915-6.683 2.115-8.9 6.742-9.827 9 2.096 9.915 6.682z" fill="#007ee4"/><g class="C"><path d="M387.467 373.053c-.53 0-1.057 0-1.586.13-2.247.393-4.098 1.703-5.42 3.538s-1.72 4.062-1.322 6.3 1.718 4.062 3.57 5.372 4.098 1.704 6.345 1.3c4.627-.918 7.536-5.242 6.742-9.828-.793-4.062-4.362-6.814-8.328-6.814l-.001.002zm0 16.773c-1.718 0-3.305-.525-4.76-1.442-1.85-1.3-3.173-3.145-3.57-5.372s0-4.456 1.322-6.3 3.173-3.145 5.42-3.538c.53-.13 1.057-.13 1.586-.13 3.966 0 7.667 2.883 8.328 6.814a8.3 8.3 0 0 1-1.291 6.341 8.29 8.29 0 0 1-2.372 2.297 8.3 8.3 0 0 1-3.079 1.19c-.528.13-1.057.13-1.586.13l.002.01zm426.52-205.25c0 10.877 14.4 17.822 13.88 28.567-.264 4.586-3.305 8.648-3.966 13.234-.925 6.16 2.38 12.187 3.437 18.215 2.248 12.7-5.552 25.683-16.788 32.235-11.105 6.552-24.985 7.47-37.676 5.242l41.245-97.624-.132.13v.001zm-87.615-5.324c.264 5.766-3.834 10.876-7.8 15.07-4.098 4.194-8.46 8.65-9.518 14.415-1.85 10.1 7.932 19.917 5.552 30.007-1.32 5.373-5.948 9.566-6.874 15.07-.925 5.24 1.72 10.483 5.156 14.676s7.535 3.67 10.576 8.124c3.172 4.718 8.328 9.566 13.22 12.45 11.104 6.552 24.985-1.966 30.405-3.407l-40.716-106.403-.001-.002z"/><path d="M816.006 190.876c.264-5.242-4.495-9.435-9.386-11.532s-10.3-3.014-14.673-6.028c-3.834-2.75-6.346-6.814-9.52-10.352-7.8-8.386-20.358-12.186-31.594-9.565s-20.622 11.662-23.795 22.67c-2.115 7.47-1.2 16.38 4.627 21.5 6.742 6.027 17.053 4.98 25.9 3.538 8.857-1.573 19.036-3.014 26.174 2.5 4.363 3.276 6.742 8.387 9.386 13.104 2.512 4.717 5.817 9.697 10.972 11.53 5.156 1.966 12.162-.917 12.56-6.3l-.793-31.056h.132l.01-.009z"/></g><path d="M795.964 188.94L749.3 175.574c-15.07-2.097-25.646 15.987-27.233 30.925-1.586 16.642-3.04 37.084-1.454 49.532 3.173 25.16 22.34 28.96 22.34 28.96l-.53 16.25c-.396 14.676 11.105 26.993 25.778 27.65 14.806.655 27.365-10.483 28.422-25.16l6.874-105.616c.265-4.587-3.04-8.518-7.667-9.173h.132l.002-.002z" class="H"/><path d="M725.23 224.825c-.132 1.704 1.2 3.145 3.04 3.407 1.72.13 3.305-1.048 3.437-2.752s-1.2-3.145-3.04-3.407c-1.72-.13-3.305 1.05-3.437 2.752zm.14-5.248c.396.393 2.908-1.3 6.345-1.18s5.95 1.966 6.345 1.573c.133-.13-.132-.918-1.32-1.835-1.058-.786-2.9-1.703-5.024-1.703s-3.966.655-5.156 1.44c-1.057.786-1.454 1.573-1.322 1.704h.133l-.001.001zm33.825 6.15c-.133 1.704 1.2 3.145 3.04 3.407 1.72.13 3.305-1.048 3.437-2.752s-1.2-3.145-3.04-3.407c-1.72-.13-3.305 1.05-3.437 2.752zm.395-4.3c.397.393 2.9-1.3 6.346-1.18s5.948 1.966 6.345 1.573c.132-.13-.132-.918-1.322-1.835-1.057-.786-2.908-1.703-5.023-1.703s-3.966.655-5.156 1.44c-1.057.786-1.454 1.573-1.322 1.704h.132v.001zm-13.622 25.165c0-.262-2.115-.656-5.685-1.18-.925-.13-1.718-.262-1.85-.917s.264-1.572.66-2.62l2.908-6.683c3.966-9.434 6.874-17.166 6.478-17.297s-3.966 7.338-7.932 16.773c-.925 2.36-1.85 4.586-2.776 6.683-.397 1.048-.926 2.097-.53 3.407.264.655.793 1.18 1.454 1.3.53.132 1.058.263 1.454.263 3.57.262 5.685.393 5.685.262h.132l.002.009z" class="C"/><path d="M743.047 285.128s16.656 1.965 33.7-7.47c-.264 0-9.914 17.035-33.974 13.76l.265-6.3.009.01z" class="I"/><path d="M747.127 254.96c1.322-1.573 3.57-2.5 5.684-2.097 1.454.262 3.04 1.05 3.834 2.228.925 1.3 1.057 3.014.132 4.062-.925 1.3-2.908 1.573-4.627 1.048-1.586-.524-3.04-1.703-4.362-2.75-.397-.262-.793-.656-.926-1.05-.264-.393-.264-.917 0-1.3l.133-.13h.132v-.011z" fill="#f1626c"/><g class="C"><path d="M756.1 249.318c-.53 0-.66 3.67-4.098 6.3-3.305 2.62-7.403 1.965-7.403 2.5 0 .263.925.787 2.5.918 1.72.13 4.098-.393 6.214-1.835 1.982-1.572 2.908-3.67 3.172-5.24s-.132-2.5-.396-2.5v-.13l.011-.013zm2.178-33.902c.265.917 3.834.655 7.932 1.3 4.098.525 7.403 1.835 7.932 1.05.264-.393-.265-1.3-1.587-2.228s-3.304-1.835-5.816-2.228c-2.38-.393-4.76 0-6.213.525-1.587.524-2.248 1.3-2.115 1.703l-.133-.13v.008z"/><path d="M726.882 209.78c.53.786 3.04.13 5.95.13s5.287.655 5.948-.13c.265-.394-.132-1.18-1.2-1.966s-2.776-1.44-4.76-1.44-3.702.655-4.76 1.44-1.454 1.572-1.2 1.966h.022zm76.158 65.633c-7.007 1.18-7.535-2.358-12.56-7.338s-7.535-12.317-6.345-19.262c.925-6.16 4.494-12.318 2.5-18.215-2.643-7.73-13.35-10.483-15.995-18.214-1.586-4.455.132-9.697-1.586-14.152-1.72-4.193-5.95-6.683-10.18-8.387s-8.725-2.882-12.162-5.765-5.553-8.125-3.173-11.925c18.772 2.883 37.147 7.863 54.73 15.07 4.098 1.703 8.328 3.67 10.707 7.338 2.512 3.93 2.116 8.9 1.85 13.497l-5.42 67.353-2.38-.13v.13h.014zm17.618-50.613c1.057-8.255 8.063-15.33 16.392-16.5s17.05 3.538 20.5 11.138c3.3 7.207 1.85 15.724-1.72 22.8-4.23 8.386-12.425 15.986-21.8 15.2-8.857-.655-15.73-8.65-17.978-17.166s-.926-17.56.396-26.208l4.363 10.876-.132-.13-.021-.01z"/></g><g class="D"><path d="M824.48 259.282s.66-.393 1.322-1.44c.793-1.05 1.587-2.752 1.983-4.98s.53-4.98 0-7.862c-.396-3.014-1.322-6.028-1.983-9.435-.66-3.276-.925-6.552-.264-9.304s1.983-5.1 2.644-7.338.66-4.062.264-5.372-.925-1.835-.925-1.704c-.132 0 .264.655.53 1.835s.132 3.014-.66 4.98c-.66 2.097-2.248 4.324-2.9 7.338-.793 3.014-.528 6.3.133 9.697l1.982 9.304c.53 2.883.53 5.503.265 7.6-.66 4.324-2.908 6.42-2.644 6.552l.264.13-.011-.001zm1.32-29.985c-.132 0 1.058 1.834 3.7 3.93 2.644 1.965 7.007 4.193 12.295 4.455s9.785-1.44 12.695-3.145c2.9-1.703 4.23-3.407 4.1-3.538s-1.58 1.3-4.5 2.752c-2.9 1.572-7.272 3.014-12.163 2.752-5.024-.262-9.254-2.097-11.898-3.93-2.776-1.835-4.098-3.407-4.23-3.276h.001zm1.053 3.903c-.132 0 .397 1.704 1.983 4.063s4.23 5.24 7.8 7.47c3.57 2.36 7.403 3.538 10.18 3.93s4.495.262 4.495.13-1.72-.262-4.363-.917-6.213-1.966-9.65-4.062c-3.437-2.228-6.08-4.98-7.8-7.076s-2.5-3.67-2.644-3.54l-.001.002zm-7.403 34.357l.264-.262c.132-.262.397-.525.793-.918.66-.917 1.322-2.358 1.85-4.324s.53-4.586-.132-7.338c-.66-2.883-2.512-5.897-5.685-7.993-2.908-2.228-6.742-3.8-9.12-7.207-1.2-1.704-1.586-3.8-1.2-5.897s1.454-4.193 2.38-6.42c2.115-4.455 2.247-9.96.132-14.938-1.058-2.5-2.644-4.718-4.9-6.42s-4.892-2.752-7.668-3.407-5.42-1.18-7.93-1.966-4.892-1.965-6.6-3.8-2.38-4.193-2.644-6.683-.397-4.98-.925-7.338c-1.058-4.717-3.305-8.9-6.478-12.055-2.848-2.94-6.547-4.911-10.575-5.635-3.702-.655-7.14-.13-9.783 1.18s-4.627 3.014-5.816 4.718-1.85 3.145-2.116 4.193-.264 1.572-.264 1.572c.132.13.264-2.358 2.776-5.503 1.2-1.573 3.173-3.276 5.685-4.325 2.5-1.18 5.948-1.703 9.385-.917 3.437.655 7.14 2.5 10.047 5.504s5.024 7.076 6.08 11.662c.53 2.228.66 4.718.925 7.207s1.058 5.242 2.9 7.207 4.362 3.276 7.006 4.194 5.288 1.3 8.064 1.965c2.644.655 5.156 1.573 7.27 3.276 2.115 1.573 3.57 3.67 4.627 6.028 1.982 4.717 1.85 9.828-.133 14.152-.925 2.228-1.983 4.324-2.38 6.683-.53 2.36 0 4.848 1.322 6.552 2.644 3.67 6.6 5.24 9.386 7.338 2.908 1.966 4.76 4.848 5.42 7.6.793 2.752.793 5.242.396 7.207-.793 3.93-2.512 5.635-2.38 5.635v-.524l.021-.003z"/><path d="M819.993 197.595s.264-.393.397-1.18 0-1.965-.793-3.407c-.794-1.3-2.116-2.752-4.1-3.538-1.982-.917-4.626-.917-7.27-.524s-5.42 1.3-8.46 1.834c-2.908.525-6.477.394-9.12-1.703s-3.834-5.635-5.156-9.173c-1.19-3.538-3.04-7.207-5.552-10.483-4.89-6.552-11.765-11.138-18.772-12.84-3.437-.918-7.006-.918-10.046 0-3.04.786-5.685 2.49-7.535 4.455s-2.776 4.455-3.04 6.552.132 3.93.66 5.372c.394 1.087 1.027 2.072 1.851 2.883.53.524.925.786.925.786.132-.13-1.322-1.048-2.247-3.8-.397-1.3-.793-3.145-.397-5.1.265-1.966 1.2-4.193 3.04-6.16 1.718-1.835 4.23-3.407 7.138-4.193s6.346-.655 9.65.13c6.6 1.703 13.22 6.16 18.11 12.58 2.38 3.145 4.098 6.683 5.42 10.22s2.512 7.208 5.552 9.566c1.392 1.137 3.099 1.823 4.891 1.966 1.72.262 3.438 0 4.892-.13 3.172-.524 5.816-1.573 8.46-1.966 2.512-.524 5.024-.524 6.874.262a9.16 9.16 0 0 1 3.966 3.276c.793 1.179.925 2.36.925 3.145s-.132 1.18-.132 1.18h-.132l.001-.01z"/></g><path d="M616.932 393.624s-14.013-21.62-16.392-23.456-24.192-9.304-25.9-8.648c-1.85.655-27.894 5.503-24.853 8.517s21.283-.655 21.283-.655l2.512 1.18s-15.73 2.752-19.036 4.718c-3.04 1.834-1.85 5.503.925 5.1 2.9-.393 16.525-3.145 17.318-2.62s-14.806 3.93-16.525 4.98c-2.247 1.3-2.38 5.372.397 5.1 1.72-.13 16.392-4.193 16.392-4.193s-11.633 4.717-12.7 5.766c-1.718 1.703-.264 4.193 2.248 3.67 1.718-.393 9.914-4.456 12.294-4.98 0 0 2.247.524 4.23 4.85.925 1.965 5.42 14.676 13.087 14.414 6.875-.262 13.616 5.24 13.616 5.24l11.105-18.738v-.262l-.001.017z" class="H"/><path d="M549.788 370.02c0 .13 1.72.786 4.76 1.18 1.586.13 3.305.262 5.42.13l6.478-.918 4.9-.786h-.265c6.478 2.228 11.237 3.538 11.37 3.276s-4.495-2.097-10.972-4.455h-.264l-4.892.786-6.345 1.048c-1.983.262-3.7.262-5.156.13-3.04-.13-4.76-.524-4.9-.393h-.132l-.002.002z" class="I"/><g class="F"><path d="M742.54 315.356s-14.806 8.9-20.226 19.918-33.842 84.65-33.842 84.65l-71.385-35.118-17.98 30.27 67.42 53.07c9 5.504 19.565 7.6 30.008 6.028 16.128-2.36 24.06-2.752 29.612-17.953l17.978-49.14-3.833-90.154 2.5-1.573h-.264l.012.002z"/><path d="M713.723 453.22c-2.38 0-4.892-1.834-6.346-3.8-5.816-7.6-6.345-17.952-5.684-27.387 1.718-28.697 4.494-39.836 20.887-63.553v.655c-7.007 15.855-6.08 15.593-9.783 32.628s-1.85 31.842 3.305 51.236c.925 3.276 2.776 7.338.132 9.435-.793.655-1.586.917-2.5.917v-.13l-.011-.001z"/></g><path d="M697.06 449.45c-.264 0-.264-7.076-2.776-15.33s-6.477-14.02-6.213-14.283c.132-.13 1.2 1.3 2.644 3.8s3.173 6.028 4.495 10.22 1.85 8.124 1.983 11.007 0 4.586-.133 4.586h0z" class="C"/><path d="M720.703 534.972l-10.443 178.08h171.2s-5.02-89.237-11.5-127.238c-6.6-67.354-27.892-77.312-42.698-109.8l8.328-157.508-36.22-16.642-1.454-8.255-56.315 6.814-1.72 16.773-8.063 22.407c-9.122 23.718-21.416 52.154-19.698 72.858.794 9.434 13.88 71.94 13.88 71.94l-5.023 50.58c-.265.13-.397.13-.397.13l.132-.13-.009-.009z" class="F"/><path d="M734.022 330.96l-.397 1.3-1.454 3.8-5.684 14.02c-2.38 5.897-5.42 12.973-7.932 20.966-2.644 7.994-4.9 17.035-6.08 26.732-1.322 9.697-1.2 19 .265 27.256s3.7 15.594 5.155 21.883c1.586 6.3 2.38 11.4 3.04 14.94.264 1.703.396 3.014.528 4.062.133.917.133 1.44.133 1.44s-.133-.524-.265-1.44c-.132-1.048-.396-2.36-.66-4.062-.66-3.538-1.718-8.65-3.305-14.808s-3.833-13.497-5.42-21.883-1.718-17.82-.396-27.518a151.69 151.69 0 0 1 6.213-26.863c2.644-8.124 5.684-15.07 8.196-20.966l5.95-13.9 1.586-3.8c.397-.917.53-1.3.66-1.3l-.132.13-.001.011z" class="C"/><path d="M754.14 517.04c-4.494 0-9-.524-13.22-2.096-8.46-3.145-15.467-11.663-13.75-20.3l21.152-4.98c16.92-3.014 33.974-6.028 51.16-6.028 4.362 0 8.593.132 12.955.656 5.288.524 10.708 1.44 15.467 3.8s9 6.42 10.443 11.4c.53 1.704.66 3.67 0 5.242-1.454 3.013-5.288 3.67-8.46 4.062l-62.132 7.207c-4.494.524-9 1.048-13.484 1.048h-.132l.001-.011z" class="F"/><path d="M678.647 463.43l15.73 1.44 6.874 3.407-3.04-3.538c-1.454-1.835-7.006-5.766-7.006-5.766l-11.765-1.18s-6.6-.524-7.007-4.98l9-.918s-9.254-.655-9.122-5.24l6.874-1.18s-2.38 0-2.115-2.5l18.772-2.097 17.978 12.58 17.318 15.2 3.966.13 1.322 24.766s-15.335-1.834-19.565-3.93-22.87-18.738-22.87-18.738-9.782-.917-12.426-3.145c-2.644-2.36-2.776-4.455-2.776-4.455l-.132.13-.01.014z" class="H"/><g class="I"><path d="M740.12 494.096h-.925c-.66-.13-1.586-.13-2.776-.262-2.512-.262-6.08-.786-10.708-1.572-2.247-.393-4.9-.786-7.667-1.704-1.454-.393-2.644-1.3-3.966-2.096l-3.834-2.883c-5.155-4.062-10.707-8.9-16.788-14.283l.264.13c-2.908-.262-5.817-.655-8.857-1.573-.793-.262-1.454-.393-2.247-.786-.397-.13-.794-.393-1.058-.524l-.53-.393-.396-.393c-.666-.532-1.208-1.203-1.587-1.966-.396-.786-.793-1.44-.925-2.36v-.393h.53l15.863 1.442h.132l6.874 3.407-.528.655c-.66-.786-1.454-1.704-2.248-2.5-.396-.393-.793-.786-1.057-1.3l-1.2-1.18c-1.8-1.505-3.652-2.947-5.552-4.324l.264.13c-2.247-.262-4.627-.524-7.006-.655l-3.57-.393c-.66-.13-1.2-.13-1.85-.262l-1.85-.393c-1.057-.393-2.247-.918-3.172-1.704s-1.587-1.965-1.587-3.145v-.393h.397c3.04-.262 6.08-.524 9-.917v.917c-1.983-.13-3.966-.524-5.817-1.3-.925-.393-1.85-.918-2.5-1.573-.793-.655-1.2-1.834-1.2-2.883v-.393h.397c2.38-.393 4.9-.655 7.27-1.048v.786c-.793-.13-1.454-.393-1.983-.917s-.793-1.3-.793-2.097v-.393h.397l18.64-2.227h.132l.133.13 17.978 12.7 17.318 15.332h-.133l15.996.917c1.85.13 3.305.262 4.23.262.53 0 .793.13 1.058.13h-1.058c-.925 0-2.38-.13-4.23-.13l-16.26-.655-17.45-15.07-17.978-12.58.264.13-18.64 2.228.396-.394c0 .525.133 1.05.53 1.442s.926.524 1.454.655l3.04.393-3.04.393c-2.38.393-4.76.656-7.27 1.05l.396-.393c0 .786.265 1.572.926 2.227s1.454 1.048 2.247 1.442c1.718.655 3.57 1.048 5.552 1.18v.917l-9 .917.396-.524c.133 1.05.53 1.966 1.322 2.62s1.72 1.18 2.776 1.442c.53.13 1.2.262 1.72.393s1.2.13 1.85.262l3.7.393 7.006.786h.133l.132.13c1.983 1.442 3.833 2.883 5.552 4.324.397.393.925.787 1.322 1.18s.793.917 1.2 1.3c.793.786 1.454 1.704 2.115 2.5l1.454 1.703-1.983-.917-6.874-3.407h.132l-15.73-1.44.397-.393c.132.655.396 1.44.793 2.096s.925 1.18 1.454 1.704c1.057 1.048 2.512 1.572 3.966 1.965 2.908.786 5.816 1.18 8.725 1.573h.132l.132.13 16.656 14.414 3.702 2.883c1.2.917 2.38 1.703 3.7 2.096 2.644.787 5.288 1.3 7.535 1.704l10.708 1.703c1.2.13 2.115.262 2.776.393.265 0 .53.132.66.132h.265l-.265-.656-.001.006z"/><path d="M704.338 459.507c-.132.13-1.322-.656-3.173-1.966l-7.403-5.242c-.264-.262-.53-.393-.793-.524l.264.13-8.46.262c-2.115 0-3.437 0-3.437-.13s1.322-.262 3.437-.393l8.46-.524h.133l.132.13c.264.13.53.393.793.524l7.27 5.504 2.908 2.5-.132-.262.001-.009zm-2.05-8.353c-.132.13-1.2-.656-2.908-1.835l-6.874-4.848.264.13c-.396 0-.66.13-1.057.13l-9.122.786-3.833.13c0-.13 1.454-.393 3.7-.655l9.122-1.05c.396 0 .66-.13 1.057-.13h.132l.133.13 6.742 5.1 2.643 2.228v-.13l.001.014z"/></g><g class="F"><path d="M866.13 478.634c5.8-8.9 8.2-19.525 6.87-30.008l-13.62-79.67c-1.58-13.366-3.43-31.45-12.82-41.277-6.345-6.683-14.145-12.58-21.812-12.448l-16.392 46.125 6.213 89.237-83.283 14.807v36.167l99.014-3.014c14.542-.393 28.03-7.862 35.96-19.918h-.13v-.001z"/><path d="M866.15 478.64s-.13.262-.4.656l-1.2 1.703c-1.06 1.44-2.78 3.67-5.3 6.028s-6.08 4.98-10.576 7.338c-4.494 2.228-10.047 4.062-16.524 4.455l-101.526 3.276V465l.397-.13 83.283-14.676-.265.393-6.742-63.03c-.132-1.573-.264-2.752-.396-3.538s-.133-1.18-.133-1.18.133.393.133 1.18c.132.786.264 2.097.396 3.538l1.587 13.628 5.552 49.4V451h-.397l-83.283 14.808.397-.524v36.166l-.53-.524 100.997-3.014c6.345-.393 11.898-2.228 16.26-4.324 4.5-2.228 7.93-4.718 10.58-7.076 2.64-2.36 4.23-4.456 5.42-5.897.53-.655.92-1.3 1.2-1.704.26-.393.4-.524.4-.524l.66.262.01-.009z"/></g><path d="M833.822 318.4c.132.13-2.776 1.3-7.006 3.93-2.115 1.3-4.363 3.145-6.742 5.24-2.38 2.228-4.76 4.85-6.874 7.863s-3.834 6.158-5.024 9.172-2.115 5.766-2.644 8.125c-1.057 4.717-1.057 7.862-1.322 7.862-.132 0-.132-.786 0-2.097 0-.655 0-1.572.133-2.5s.264-2.097.528-3.276c.397-2.5 1.2-5.242 2.512-8.387 1.322-3.014 2.908-6.3 5.156-9.304 2.247-3.144 4.627-5.765 7.138-7.993a51.2 51.2 0 0 1 7.007-5.241c1.057-.656 2.115-1.18 2.908-1.573.925-.524 1.718-.786 2.247-1.048 1.322-.524 1.983-.786 1.983-.655v-.13.012zm-34.156-16.924s-.66.655-1.983 1.44c-1.454.786-3.57 1.442-6.213 2.5-5.288 1.965-12.162 5.503-19.962 8.78-7.93 3.407-15.6 5.373-21.283 5.504-2.776.13-5.156-.13-6.742-.393-.793-.13-1.322-.262-1.72-.393s-.66-.13-.66-.262c0-.262 3.437.655 9 .262 5.552-.262 13.087-2.36 20.887-5.635 7.8-3.407 14.805-6.814 20.093-8.648 2.644-.918 4.9-1.573 6.213-2.228 1.454-.655 2.115-1.18 2.248-1.048l.132.13-.01-.009z" class="C"/><path d="M599.08 439.2l-8.328-64.2-56.447 2.752 3.966 64.47 60.8-3.014.009-.008z" class="F"/><path d="M606.77 391.23c-1.586 1.44-4.23 1.18-6.08.13s-3.305-2.752-5.155-3.93c-5.42-3.67-12.955-2.62-18.243-6.552-.66-.524-1.454-1.442-1.058-2.228s1.322-.917 2.248-.917l21.547.13 6.742 13.366-.001.001z" class="H"/><path d="M600.03 377.902c0-.13-.793-.13-2.38-.262l-6.345-.262c-2.776 0-5.95-.13-9.386-.262h-2.776c-.925 0-1.983-.262-3.172.655-.53.524-.66 1.44-.265 1.965.206.537.576.996 1.058 1.311.925.655 1.718 1.18 2.776 1.572 3.966 1.704 7.93 1.966 11.236 3.014 1.72.524 3.173 1.05 4.495 1.966 1.322.786 2.38 1.834 3.437 2.62 2.115 1.834 4.495 2.358 6.08 1.965s2.115-1.18 1.983-1.18c-.132-.13-.66.524-2.115.786-1.454.13-3.57-.393-5.42-2.228-1.058-.786-1.983-1.834-3.437-2.882-1.322-.918-2.9-1.573-4.76-2.097-3.437-1.048-7.403-1.442-10.972-3.014-.926-.393-1.72-.917-2.512-1.44-.66-.525-1.058-1.3-.66-1.573.397-.393 1.322-.393 2.247-.393h12.162c2.644 0 4.9-.13 6.345-.13s2.38-.13 2.38-.262v.13l.001.001z" class="I"/><path d="M583.363 396.593s-.53.393-1.586.786-2.644 1.048-4.627 1.573-4.495 1.048-7.27.786c-1.322-.13-2.776-.393-4.23-1.048-1.454-.525-2.644-1.704-3.834-2.5-.66-.393-1.2-.786-1.85-.786s-1.2.262-1.718.655c-1.058.917-1.586 2.096-2.38 3.276s-1.983 2.227-3.437 2.227c-1.322.13-2.5-.524-3.305-1.18-1.718-1.44-2.115-3.276-2.38-4.324-.264-1.18-.397-1.704-.264-1.704s.264.524.66 1.704c.396 1.048.925 2.62 2.5 3.93.793.524 1.72 1.048 2.9.917 1.057-.13 1.982-.917 2.643-1.965s1.322-2.5 2.512-3.538c.66-.525 1.454-.918 2.38-.918s1.718.393 2.38.918c1.322.917 2.38 1.965 3.702 2.5s2.643.918 3.965 1.05c2.644.262 5.024-.13 7.007-.525l6.345-1.703-.132-.13.019-.001zm2.822 9.607c0 .262-8.593.786-19.036 1.3-10.576.525-19.17.656-19.17.394s8.593-.787 19.037-1.3c10.575-.524 19.168-.655 19.168-.393l.001-.001zm-4.05 9.284c0 .13-1.586.525-4.362 1.18-2.644.524-6.346 1.18-10.576 1.834-4.098.655-7.932 1.05-10.575 1.3-2.777.262-4.363.393-4.495.262 0-.13 1.586-.393 4.362-.918 3.04-.524 6.6-1.048 10.576-1.572 3.966-.655 7.535-1.18 10.575-1.572 2.644-.394 4.363-.525 4.363-.394l.132-.13v.01z" class="B"/><path d="M806.035 397.43s-.264.262-.793.655l-2.38 1.834c-2.116 1.573-5.024 3.93-9 6.42s-9 5.242-14.938 6.814-13.22 2.097-20.093-.655c-6.742-2.752-12.03-7.338-17.053-10.745-4.892-3.67-10.047-6.028-14.542-6.945s-8.328-.393-10.84.524c-2.38.917-3.437 1.966-3.57 1.835 0 0 1.057-1.05 3.437-2.228 2.38-1.048 6.345-1.835 11.104-.786 4.627.917 9.915 3.276 14.938 6.945 5.024 3.538 10.312 7.993 16.92 10.614s13.616 2.227 19.565.655 10.84-4.193 14.806-6.552c3.966-2.5 7.006-4.586 9.12-6.16 1.058-.655 1.85-1.3 2.512-1.703.53-.393.925-.524.925-.524h-.132l.014.002zm52.295-36.042c0 .13-2.78-.655-7.408-1.3-2.247-.393-5.023-.524-8.064-.655-3.04 0-6.477.13-9.914.655-3.309.512-6.578 1.256-9.783 2.228-2.908.917-5.552 1.966-7.667 2.883l-6.742 3.407s.53-.524 1.586-1.18c1.058-.786 2.776-1.703 4.76-2.75 2.115-1.05 4.627-2.097 7.668-3.145 2.908-.917 6.345-1.704 9.914-2.228 3.325-.488 6.689-.663 10.047-.524 3.173.13 5.95.393 8.196.917 2.248.393 4.098.918 5.418 1.3 1.2.393 2 .655 1.85.655l.14-.262-.001-.001zm10.33 66.172c0 .13-3.43-.786-8.46.917-2.5.786-5.42 2.228-8.46 3.93s-6.607 3.538-10.838 4.455c-8.328 1.835-15.995-.262-20.754-2.882-2.38-1.3-4.098-2.62-5.288-3.67-1.058-1.05-1.72-1.704-1.586-1.704.132-.13 2.38 2.36 7.27 4.717 4.76 2.36 12.294 4.325 20.226 2.5 3.966-.917 7.403-2.62 10.58-4.324 3.17-1.704 6.08-3.145 8.72-3.8 2.64-.786 4.9-.917 6.35-.786 1.58.13 2.38.393 2.24.524v.13-.007zm-75.228 72.293c-.132-.13 1.058-2.358 2.115-6.42s1.85-9.828.794-16.118-3.702-11.532-5.95-14.94l-4.098-5.372c.473.407.958.8 1.454 1.179.793.786 1.983 2.097 3.305 3.8 2.5 3.407 5.288 8.78 6.345 15.2s.132 12.317-1.057 16.38c-.66 1.965-1.322 3.67-1.85 4.717s-.926 1.572-.926 1.572h-.132v.002zM722.945 352.7c-.264.13-1.057-1.44-2.908-2.5s-3.57-.917-3.57-1.18c-.132-.262 1.983-.786 4.098.393s2.644 3.276 2.38 3.276v.011zm97.805-39.022c0 .13-1.322-.13-3.834 0-2.5.262-5.95 1.18-9.65 3.538-1.85 1.18-3.834 2.62-5.684 4.324s-3.834 3.8-5.817 5.897c-3.966 4.193-8.328 9.304-14.674 12.318-6.213 3.014-12.955 3.67-18.903 3.407-5.95-.393-11.105-1.704-15.335-3.014s-7.667-2.62-9.915-3.538c-1.057-.393-1.983-.786-2.644-1.048s-.925-.394-.925-.394.397 0 .925.263c.66.262 1.587.524 2.777.917 2.38.786 5.684 1.965 10.046 3.276 4.23 1.18 9.386 2.5 15.203 2.752s12.426-.394 18.375-3.276c6.08-2.883 10.443-7.863 14.4-12.056 1.983-2.097 3.966-4.193 5.817-5.897 1.983-1.703 3.965-3.276 5.816-4.324 3.834-2.36 7.535-3.276 10.047-3.407 1.2-.13 2.247 0 2.908.13s.926.13.926.262l.132-.13h.009zm-24.395-16.635s-.66.393-1.983.917l-5.552 2.228a143.58 143.58 0 0 1-19.17 5.373c-7.67 1.573-14.673 2.358-19.697 2.62l-6.08.262c-1.454 0-2.247 0-2.247-.13s.793-.13 2.247-.262l5.95-.524c5.023-.524 12.03-1.3 19.565-2.883s14.277-3.538 19.168-5.1l5.685-1.966c1.322-.524 2.115-.655 2.115-.655v.13l-.001-.01zM647.575 453.22s-.132-.13-.265-.524c-.166-.47-.298-.951-.396-1.44-.264-1.3-.264-3.276.264-5.635.397-2.36 1.454-5.1 2.9-7.862 1.454-2.883 3.304-5.766 5.155-8.78 1.85-3.145 3.305-6.16 3.966-9.173s.66-5.765.132-8.124c-.925-4.586-2.908-6.945-2.776-7.076 0 0 .53.524 1.2 1.703s1.586 2.883 2.115 5.242.793 5.242 0 8.386c-.66 3.145-2.115 6.3-3.966 9.435s-3.833 6.028-5.288 8.78-2.5 5.372-3.04 7.6c-1.058 4.586-.132 7.47-.265 7.47h.265l-.001-.002zm207.285 69.72s-.4-.262-1.32-.655c-.8-.524-1.98-1.048-3.57-1.834-3.173-1.442-8.064-2.883-14.4-3.145-6.214-.393-13.75.524-21.68 2.752-7.932 2.096-16.393 5.634-25.514 8.78s-18.1 5.373-26.57 5.373c-8.328.13-15.864-1.442-21.812-3.538s-10.444-4.587-13.352-6.552c-1.454-.918-2.512-1.835-3.305-2.36s-1.057-.917-1.057-.917c.132-.13 1.586 1.18 4.626 3.014 2.9 1.834 7.403 4.193 13.352 6.3 5.95 1.965 13.352 3.538 21.548 3.275 8.328-.13 17.185-2.358 26.174-5.372 9-3.145 17.582-6.552 25.646-8.65s15.6-3.014 21.945-2.5c6.345.393 11.368 1.965 14.54 3.407 1.587.786 2.777 1.44 3.567 1.965l1.2.786v-.13l-.018.001zm12.94 66.823s-1.6 1.572-5.02 3.67c-3.44 1.965-9 4.193-16.132 4.98-3.57.393-7.536.524-11.766.13s-8.592-1.18-13.22-2.358c-9.122-2.36-18.772-6.3-29.083-9.828-10.18-3.538-20.358-6.028-29.744-6.028a51.8 51.8 0 0 0-13.087 1.703c-3.967 1.048-7.667 2.36-11.237 3.145-7.006 1.704-13.22.656-16.656-1.44-1.36-.729-2.571-1.707-3.57-2.883-.66-.786-.925-1.3-.925-1.3.336.408.689.801 1.058 1.18.66.787 1.85 1.835 3.57 2.752 3.437 1.834 9.386 2.883 16.26 1.048 3.437-.786 7.138-2.096 11.236-3.276s8.593-1.834 13.352-1.834c9.518-.13 19.83 2.358 30.14 5.896s19.83 7.47 28.95 9.828c4.495 1.18 8.857 2.097 13.087 2.5 4.098.393 8.064.393 11.634 0 7.002-.786 12.562-2.752 15.992-4.717.93-.393 1.6-.918 2.25-1.3s1.2-.786 1.6-1.048c.8-.655 1.32-.917 1.32-.917v.13l-.009-.033zm8.35 53.62s-.13 0-.4-.13c-.26-.13-.66-.393-1.06-.655-.92-.655-2.37-1.44-4.36-2.358-3.83-1.835-9.78-3.8-17.45-4.587s-16.786-.262-26.7 1.704-20.622 5.24-32.123 7.993c-5.684 1.3-11.37 2.5-16.92 3.014-5.552.655-10.84.786-15.995.655-10.18-.262-19.3-1.965-26.704-4.062-7.403-1.966-13.22-4.455-17.185-6.16-1.983-.917-3.437-1.703-4.495-2.227-.396-.263-.793-.394-1.2-.656-.265-.13-.397-.262-.397-.262s.132 0 .397.13.66.262 1.2.524c1.058.525 2.512 1.18 4.495 2.097 3.966 1.704 9.782 3.93 17.185 5.897s16.525 3.538 26.57 3.8c5.024.13 10.444 0 15.864-.655s11.104-1.704 16.788-3.014c11.37-2.752 22.077-6.028 32.124-7.994s19.3-2.5 26.967-1.572c7.67.786 13.75 3.014 17.58 4.848 3.84 1.966 5.7 3.538 5.7 3.538l.13.13-.011.002zM780.088 456.1c-.132.13-3.173-1.572-8.593-3.407-2.644-.917-5.948-1.834-9.65-2.5s-7.8-1.048-12.162-1.18c-4.362 0-8.46.393-12.162 1.048s-7.006 1.573-9.65 2.5c-5.42 1.835-8.46 3.538-8.593 3.276 0 0 .793-.524 2.115-1.3.66-.393 1.587-.786 2.644-1.3 1.058-.393 2.248-1.048 3.57-1.44 2.644-1.048 5.948-1.966 9.782-2.62 3.7-.655 7.932-1.18 12.294-1.18s8.593.524 12.294 1.18c3.702.786 7.007 1.704 9.65 2.752 1.32.393 2.5 1.048 3.57 1.44s1.983.918 2.644 1.3c1.454.786 2.115 1.18 2.115 1.3l.132.13v.001zm96.642 243.848s-.13 0-.4-.13c-.26-.13-.66-.393-1.06-.655-.52-.262-1.05-.655-1.85-.917-.66-.393-1.58-.787-2.5-1.18-3.83-1.703-9.65-3.538-17.05-4.455s-16.394-.786-26.176.524c-9.783 1.18-20.5 3.407-32 4.718-22.87 2.62-43.9.655-58.563-2.36-7.403-1.442-13.22-3.014-17.317-4.324-1.983-.524-3.57-1.18-4.627-1.442-.53-.13-.925-.262-1.2-.393s-.396-.13-.396-.13.132 0 .396.13.793.262 1.2.393c1.058.262 2.644.786 4.627 1.3 4.098 1.18 9.914 2.62 17.317 3.93 14.674 2.752 35.56 4.717 58.298 2.096 11.37-1.3 22.077-3.538 32-4.717 9.915-1.3 18.904-1.3 26.44-.262 7.53 1.048 13.35 3.014 17.18 4.848.93.393 1.85.918 2.52 1.3.66.393 1.32.655 1.7 1.048.4.262.8.524 1.06.655.27.13.4.262.4.262v-.262l.001.023z" fill="#f7f7f6"/><path d="M147.816 712.926l3.7-166.287-130.344-10.745s-7.006 66.567-6.742 75.478c.132 4.193 19.697 45.6 19.697 45.6l-.264 55.953h113.952l.001.001z" class="C"/><path d="M103.54 566.6s-.264.917-1.057 2.358l-3.437 6.3c-3.173 5.242-7.932 12.318-15.07 18.345-7.27 6.028-15.466 9.173-21.68 9.828-3.04.393-5.552.262-7.27.13-.793 0-1.454-.262-1.983-.262-.397-.13-.66-.13-.66-.13 0-.262 3.834.655 9.782-.262s14.013-3.93 21.15-9.828 11.898-12.84 15.203-17.952c1.586-2.5 2.908-4.717 3.7-6.16.926-1.44 1.322-2.227 1.454-2.227l-.132-.13v-.01z" class="D"/><path d="M54.942 291.8L113.77 307l1.983-50.842s24.853-2.752 26.175-27.256-.53-80.85-.53-80.85c-28.025-13.366-61.206-10.614-86.588 7.076l-3.833 2.62 3.833 133.92.132.13v.002z" class="J"/><path d="M115.877 255.897s-15.6.655-31.727-10.483c0 0 6.875 17.952 31.595 16.773l.264-6.3h-.132v.01z" class="G"/><path d="M53.043 183.418c-.397-.262-16.8-5.635-16.92 11.007-.132 16.773 16.8 13.497 16.8 12.973l.132-23.98h-.012z" class="J"/><path d="M47.798 201.112c-.132 0-.264.262-.793.393-.53.262-1.322.394-2.247 0-1.72-.655-3.305-3.538-3.305-6.552 0-1.572.264-3.013.925-4.193.53-1.18 1.322-2.096 2.247-2.227s1.587.393 1.72.786c.264.524.132.786.264.786 0 0 .397-.262.265-.917-.132-.393-.265-.786-.66-1.048-.397-.394-1.058-.525-1.587-.394-1.322.13-2.5 1.3-3.04 2.62-.66 1.3-1.058 2.883-1.058 4.718.133 3.407 1.72 6.55 4.23 7.338 1.2.262 2.247 0 2.643-.393.53-.394.66-.787.53-.787l-.132-.13h-.002z" class="G"/><path d="M134.4 185.923c0 1.835-1.587 3.407-3.57 3.407s-3.57-1.44-3.437-3.276c0-1.834 1.587-3.407 3.57-3.407s3.57 1.442 3.438 3.276h-.001zm.948-3.555c-.397.394-3.04-1.572-6.874-1.834s-6.6 1.572-7.007 1.18c-.132-.262.265-1.048 1.587-1.834 1.2-.787 3.304-1.573 5.684-1.442s4.362 1.05 5.42 1.966c1.2.917 1.454 1.834 1.322 1.965h-.132v-.001zm-38.12 3.294c0 1.835-1.587 3.407-3.57 3.407s-3.57-1.44-3.437-3.276c0-1.834 1.587-3.407 3.57-3.407s3.57 1.442 3.437 3.276zm.816-4.064c-.397.393-3.04-1.573-6.874-1.835s-6.6 1.573-7.007 1.18c-.132-.262.265-1.05 1.587-1.835 1.2-.786 3.305-1.572 5.684-1.44s4.363 1.048 5.42 1.965c1.2.918 1.454 1.835 1.322 1.966h-.132v-.001zm12.613 28.404c0-.262 2.38-.524 6.213-.786.925 0 1.85-.262 2.115-.918s-.132-1.703-.53-2.882l-2.5-7.47c-3.57-10.614-6.08-19.262-5.553-19.393.397-.13 3.702 8.386 7.14 18.87l2.38 7.47c.265 1.05.926 2.36.397 3.8-.264.655-1.058 1.18-1.72 1.3s-1.2.13-1.718.13c-3.834 0-6.213 0-6.213-.262v.13l-.011.011zm-10.97-43.065c-.396 1.05-4.23.393-8.592.655-4.495.263-8.064 1.442-8.725.394-.264-.394.397-1.442 1.983-2.36 1.454-.917 3.833-1.835 6.477-1.966s5.156.393 6.742 1.05c1.587.786 2.38 1.572 2.248 2.096l-.133.13v.001zm34.774 4.57c-.66.787-3.305-.13-6.478-.393s-5.816.393-6.345-.655c-.265-.393.264-1.3 1.454-2.097s3.173-1.3 5.288-1.18 3.966 1.048 5.023 1.966 1.454 1.834 1.058 2.227v.13.002zm19.765-38.283c.397-3.014-.66-6.3-3.04-8.256-2.38-1.834-6.214-1.965-8.46.263 1.322-4.063-1.85-8.9-6.08-9.304-3.966-.393-7.535 2.5-11.5 3.276-3.833.917-7.932-.13-11.5-1.835-3.57-1.572-6.874-3.8-10.575-5.24-7.535-3.145-16.393-3.145-24.06 0s-13.88 9.172-17.053 16.773c-5.288-1.966-11.633.524-15.07 4.98-3.57 4.455-4.627 10.352-4.23 15.856.264 3.8 1.2 7.47 2.38 11.138 0 .262 0 .655-.132.917-.264 13.497.53 29.353 6.345 29.615 10.047.524 8.46-18.346 8.46-18.346 12.558-4.193 8.725-22.8 12.03-25.42 3.173-2.62 9.915-8.9 35.296 5.373 9.783 5.503 23.267 5.896 30.67 4.586.264 0 .396 0 .66-.13h.132l.264-.13c2.38-.524 4.627-1.3 6.742-2.5 2.38-1.3 4.627-3.276 5.685-5.766s.925-5.765-1.058-7.73c1.983-2.358 3.7-5.1 3.966-8.124h.132l-.004.004z" class="C"/><path d="M112.6 221.657c-.66 1.44-1.322 3.014-2.38 4.193s-2.512 2.228-4.23 2.228-3.305-1.048-4.23-2.5-1.2-3.276-1.057-4.98c.132-1.573.925-3.407 2.512-3.407.66 0 1.32.262 1.85.524l8.064 3.67-.53.524v-.262l.001.01z" class="G"/><path d="M109.1 228.254c0-.262-1.85.394-4.362-.655-1.2-.524-2.512-1.572-3.173-3.145s-.793-3.538.132-5.24c.132-.393.53-.786.793-1.18.397-.263.265-.263.66-.263.265.13.793.394 1.322.525.397.262.926.393 1.322.655l4.627 1.965 4.362 1.573c.133-.13-1.454-1.048-3.965-2.5l-4.495-2.228c-.397-.262-.793-.393-1.322-.655l-1.454-.655c-.265-.13-.793-.13-1.2 0s-.66.393-.925.655c-.397.524-.793.918-.926 1.442-1.057 2.227-.925 4.586 0 6.42a7.31 7.31 0 0 0 3.966 3.538c1.454.524 2.776.393 3.57.262s1.2-.394 1.2-.525h-.132v.011z" class="C"/><path d="M70.303 145.304c.132 0-.265-1.05.132-3.014.264-1.835 1.454-4.586 4.098-6.683 2.644-2.228 6.742-3.407 11.236-3.145 4.627.262 9.386 1.966 14.277 3.8 2.512.917 4.892 1.835 7.403 2.5s4.892 1.048 7.14 1.18c4.627.393 8.857-.262 12.162-1.048 3.437-.917 5.95-1.966 7.8-2.883.926-.393 1.587-.786 1.983-1.048s.66-.393.66-.393-.925.524-2.776 1.3c-1.718.786-4.362 1.835-7.8 2.62-3.305.786-7.536 1.3-12.03.917-2.247-.13-4.627-.524-7.006-1.18s-4.76-1.573-7.27-2.5c-4.9-1.835-9.783-3.538-14.542-3.8-4.626-.262-9 1.048-11.633 3.407-2.776 2.36-3.833 5.1-4.098 7.076s.132 3.014.132 3.014l.133-.13-.001.01zm-20.888 40.47s.132-.13.397-.525.528-.917.793-1.572c.966-1.922 1.719-3.943 2.247-6.028.66-2.62 1.2-5.896 1.058-9.435-.133-3.67-1.058-7.47-1.72-11.4-.66-4.062-.793-7.993.53-11.27.53-1.573 1.454-3.014 2.512-4.193 1.057-1.05 2.38-1.835 3.7-2.097 2.512-.786 4.76-.262 6.08.393 1.322.786 1.72 1.442 1.85 1.442 0 0-.397-.787-1.72-1.704-1.322-.786-3.7-1.44-6.345-.655-1.322.393-2.776 1.048-3.966 2.228s-2.115 2.62-2.776 4.324c-1.322 3.407-1.322 7.6-.53 11.53.66 4.062 1.72 7.862 1.72 11.4.132 3.54-.265 6.683-.926 9.304s-1.454 4.587-1.983 6.028-.925 2.097-.925 2.097v.13l.004.003zm18.605-42.576v-3.8c.132-2.358.132-6.027 1.586-10.1.66-1.966 1.85-4.194 3.57-6.028s3.966-3.538 6.742-4.062c2.776-.656 5.816-.263 8.857.786 3.04.917 5.816 2.62 8.725 4.324s5.684 3.538 8.592 4.848 5.95 1.966 9 2.228c2.9.13 5.817-.13 8.33-.655 2.5-.655 4.9-1.44 6.874-2.5 3.966-2.096 6.6-4.586 8.196-6.42.793-.917 1.322-1.703 1.718-2.227s.53-.787.53-.787-.264.263-.66.787-.925 1.3-1.85 2.096c-1.587 1.835-4.363 4.194-8.197 6.16-1.982.917-4.23 1.704-6.74 2.36-2.512.524-5.288.786-8.197.524s-5.816-.917-8.724-2.097c-2.9-1.3-5.553-3.014-8.46-4.848-2.908-1.704-5.816-3.407-8.857-4.455s-6.213-1.442-9.12-.656c-2.9.656-5.42 2.36-7.14 4.325s-2.908 4.193-3.57 6.3c-1.454 4.193-1.322 7.862-1.322 10.22 0 1.18.132 2.228.132 2.752 0 .655.132.918.132.918h-.132l-.015.007z" class="D"/><g class="J"><path d="M179.258 358.102l74.293-82.685 10.576-14.545 27.76-34.857c2.38-3.8 4.9-3.67 6.213-2.62 2.115 1.572 1.983 5.24 0 8.648-.66 1.18-12.162 19.132-12.162 19.132s1.718-1.05 6.6-2.752c4.76-1.704 12.294.262 18.77 4.455 6.346 4.193 7.8 5.897 6.213 8.387-.66 1.048-1.718 1.44-2.776 1.703-1.85.262-4.494-.524-6.08-1.44-12.558-7.47-15.6-2.5-15.6-2.5l-1.718 1.835s9.386-.525 13.22 4.455c.66.786 1.058 1.703 1.2 2.5 2.776 1.703 4.495 4.848 4.495 8.124 0 3.407-1.983 6.683-5.024 8.255-1.454.787-3.305 1.18-4.494 0-.66-.524-.926-1.44-1.2-2.227-.132-.393-.265-.918-.53-1.3l-4.627 4.85s-10.972 10.22-15.202 15.33l-65.57 81.244c-8.46 12.317-21.415 22.407-33.577 13.76-13.352-9.435-12.162-25.815-.926-37.477l.133-.262.013-.013z"/><path d="M257.258 276.066c1.587 1.703 4.363 1.44 6.478.524 2.115-1.048 3.7-2.752 5.684-3.93 5.95-3.538 14.145-1.966 19.83-5.897.794-.524 1.587-1.44 1.322-2.36-.264-.786-1.454-1.048-2.38-1.048l-23.002-1.18-8.064 13.9h.132v-.009z"/></g><g class="G"><path d="M265.322 262.177c0-.13.925-.13 2.512-.13l6.742.13 10.047.394 2.908.13c.925.13 2.115-.13 3.305.917.528.524.528 1.572.264 2.096-.264.656-.793 1.05-1.322 1.442-.925.655-1.983 1.18-3.04 1.572-4.23 1.573-8.593 1.704-12.162 2.5-1.85.393-3.437.917-4.892 1.835-1.454.786-2.643 1.834-3.833 2.62-2.38 1.835-5.024 2.228-6.6 1.835-1.718-.393-2.115-1.442-2.115-1.442.132-.13.66.656 2.247.918s3.834-.262 5.95-2.097c1.2-.786 2.247-1.965 3.834-2.883 1.454-.917 3.305-1.572 5.155-1.965 3.702-.918 8.064-1.05 12.03-2.62.925-.393 1.85-.917 2.776-1.44.793-.525 1.2-1.3.793-1.704s-1.454-.524-2.38-.524-1.983-.13-2.908-.13l-10.047-.655-6.742-.524c-1.587-.132-2.512-.263-2.512-.394v.13l-.01-.011zm26.018-1.44c.132.13.926-1.572 3.305-2.752 1.2-.524 2.908-.786 4.627-.393s3.57 1.3 5.42 2.36 3.57 2.097 5.42 2.752c1.85.524 3.57.786 5.023.393 1.454-.262 2.38-1.3 2.644-2.097s.265-1.18.265-1.18c-.133 0-.133.393-.53 1.048-.265.442-.63.815-1.067 1.088s-.932.44-1.445.485c-1.322.262-2.908 0-4.627-.656s-3.437-1.703-5.288-2.75-3.7-1.966-5.684-2.36c-1.85-.393-3.7-.13-5.023.524s-2.115 1.573-2.644 2.228c-.397.655-.53 1.048-.53 1.048l.132.262h.002zm7.35-30.163c-.132 0-.925 1.3-2.247 3.538-1.455 2.5-3.305 5.372-5.288 8.648s-3.834 6.16-5.42 8.65c-1.454 2.227-2.247 3.538-2.115 3.67s1.2-1.18 2.644-3.276c1.586-2.097 3.57-5.1 5.684-8.518s3.834-6.55 5.156-8.9c1.2-2.36 1.85-3.8 1.718-3.8h-.132v-.012zm-5.92 36.85l1.32.262c.794.13 2.116.393 2.9 1.572.396.524.396 1.3 0 2.097s-.926 1.44-1.587 2.228-1.322 1.834-1.322 3.144.794 2.5 1.85 3.145c1.058.787 2.512.787 3.57.525 1.2-.263 2.116-.918 2.9-1.704 1.322-1.572 2.247-3.276 2.776-4.717.66-1.442.925-2.62.925-3.538s-.132-1.3-.132-1.3c-.132 0 0 .524-.132 1.3s-.53 1.965-1.2 3.276-1.586 2.882-2.908 4.324c-1.2 1.3-3.702 2.096-5.552.917-.926-.524-1.455-1.572-1.455-2.5s.53-1.834 1.058-2.62c.66-.787 1.322-1.573 1.72-2.5s.396-1.966-.133-2.62c-1.057-1.44-2.5-1.572-3.305-1.572-.925 0-1.32 0-1.32.13v.13l.027.021z"/><path d="M299.67 279.47s-.397.262-.53 1.048a3.93 3.93 0 0 0 .119 1.674 3.95 3.95 0 0 0 .806 1.471c1.058 1.048 2.9 1.704 4.76 1.18 1.85-.393 3.57-1.834 4.76-3.67s1.587-3.93 1.455-5.765-.794-3.407-1.587-4.587-1.718-1.834-2.38-2.358c-.66-.394-1.058-.525-1.058-.525-.132.13 1.454.918 2.908 3.145.66 1.05 1.322 2.62 1.322 4.325.133 1.703-.396 3.67-1.454 5.24-1.057 1.704-2.644 2.883-4.23 3.407-1.586.393-3.305 0-4.098-.917-.925-.917-1.058-1.966-1.058-2.752 0-.655.265-1.048.265-1.18v.262.002zm-20.155 4.447s-.53-.655-1.72-1.048-3.173-.787-5.156 0l.53.524c.397-.787.793-1.704 1.058-2.62 1.85-5.242 1.2-9.96.925-9.828-.264 0 0 4.455-1.718 9.566-.265.917-.66 1.834-1.058 2.62l-.397.917.926-.262c1.85-.655 3.57-.524 4.76-.262s1.85.655 1.85.524v-.13-.001zm19.603-30.517c-.265 0-.265 1.704.793 3.407 1.2 1.704 2.776 2.228 2.908 1.966s-1.2-.918-2.247-2.5c-1.058-1.44-1.322-2.883-1.587-2.883h.133v.01z"/></g><path d="M105.162 283.38l68.873 67.616 50.5-51.498 9.65-4.193 12.7-12.7 29.348 32.9-62.264 80.72c-8.064 10.483-19.433 17.82-32.388 20.966-19.565 4.85-40.32-.786-54.86-14.807l-53-51.498 31.33-67.485h.133l-.022-.021z" class="E"/><path d="M180.867 390.174c-.132 0-.132-2.227-.132-5.896-.132-3.67-.265-8.65-1.058-14.153-.925-5.503-2.247-10.22-3.437-13.628s-1.983-5.503-1.85-5.634c0 0 .397.524.794 1.44s1.057 2.228 1.718 3.93c1.322 3.407 2.908 8.256 3.834 13.76s.925 10.614.793 14.284c-.132 1.834-.132 3.275-.265 4.324s-.132 1.572-.264 1.572h-.132l-.001.001z" class="C"/><path d="M158.878 418.25l-9.915-2.62-3.57-62.768-19.036-46.125-.264-1.18c10.84 10.352 13.616 23.717 19.697 37.345 7.138 16.118 20.093 31.712 24.985 48.616 1.454 5.1 1.983 10.614.132 15.462-1.85 4.98-7.007 10.876-12.294 11.27h.264.001z" class="E"/><path d="M262.437 333.314c-.264.13-6.6-7.47-14.277-17.166s-13.748-17.56-13.484-17.7 6.6 7.47 14.277 17.166 13.75 17.56 13.484 17.7z" class="C"/><path d="M234.23 468.958l-20.093 60.8 53-23.85 17.317-55.56-50.234 18.608.01.002z" class="D"/><path d="M53.676 248.167l-7.8 18.608s-10.046 21.228-21.283 35.773c-12.294 15.725-15.202 66.7-15.202 66.7l11.633 156.46-3.966 7.6c-1.85 3.538-.925 16.25 3.04 16.38l130.74 6.028c3.173.13 5.288-10.876 5.023-13.9L145.286 352.86l-21.15-51.498-6.874-10.1-.133-12.7-45.475-14.02c-8.196-2.5-14.805-8.517-18.1-16.38h.132l-.01.005z" class="E"/><path d="M155.165 527.257l-.926-16.25h.265l.66 16.25h.001z" fill="#abaeaf"/><g class="E"><path d="M129.635 530.7c-15.07 0-30.14-3.145-44.153-8.387-22.077-8.124-42.17-20.835-62-33.414l5.95-12.318 124.792 34.332.926 16.38c-8.33 2.358-16.92 3.407-25.514 3.407h-.001z"/><path d="M59.385 306.87s-35.825-3.014-43.228 41.277 4.495 140.342 7.932 141.128c0 0 63.982 27.125 130.608 33.546l46.665-8.517-5.552-44.03-34.37 1.834s-1.454-8.517-14.4-12.055c-18.64-5.1-56.315-13.76-56.315-13.76l1.983-57.133c.397-12.972 4.9-69.188-24.985-79.802l-8.46-2.5h.132l-.01.012z"/></g><g class="C"><path d="M124.293 301.338s.264.393.66 1.3l1.718 3.8 6.08 14.283 9 21.228 2.5 6.16c.926 2.097 1.72 4.324 2.248 6.683s.66 4.85.793 7.207l.396 7.338 2.777 50.974.396 15.463v5.634s-.132-.524-.132-1.44l-.132-4.193c-.132-3.8-.397-9.042-.793-15.463L146.377 362c-.133-2.5-.265-4.848-.66-7.076s-1.2-4.455-2.116-6.552-1.718-4.193-2.5-6.16l-8.725-21.228-7.403-18.345c-.397-.917-.53-1.44-.53-1.44l-.132.13-.018.009zm-7.326-22.928l-.396 1.834c-.265 1.18-.793 3.014-1.586 5.242-1.455 4.455-3.966 10.614-8.064 17.428l-.265.393-.396-.262c-5.156-4.194-12.03-7.863-19.697-10.876-6.346-2.62-12.427-4.718-17.847-7.34-5.42-2.5-10.046-5.24-13.483-7.993-3.57-2.752-5.95-5.503-7.403-7.6-.794-1.048-1.2-1.835-1.587-2.36-.264-.524-.53-.917-.396-.917s.793 1.18 2.247 3.145a39.85 39.85 0 0 0 7.535 7.207c3.57 2.752 8.064 5.373 13.484 7.73 5.288 2.5 11.5 4.587 17.846 7.207 7.668 3.145 14.674 6.683 19.83 11.138l-.66.132c4.1-6.683 6.742-12.842 8.33-17.166.793-2.228 1.322-3.932 1.718-5.1s.66-1.834.66-1.834h.132l-.002-.008zm-49.152 30.954l2.5.918 2.9 1.572 3.57 2.62c2.512 2.228 5.288 5.504 7.667 9.828s4.363 9.697 5.817 15.855c2.908 12.45 3.7 28.043 2.908 45.864l-2.115 60.146-.265-.393 35.957 8.518 19.17 4.848c6.742 1.44 12.558 6.3 15.863 12.58l-.396-.262 34.767-1.835v.393l5.552 44.03v.393l-.397.13-43.492 7.862c-1.057.262-2.115.393-3.305.656h-.264c-12.03-1.3-23.795-3.014-35.296-5.242s-22.738-4.848-33.7-7.862c-21.812-5.897-42.566-12.7-61.735-20.573h.132l-.396-.262-.132-.262-.265-.394c-.132-.262-.264-.524-.264-.655-.132-.524-.264-.917-.397-1.44-.264-.917-.528-1.835-.66-2.752-.396-1.834-.793-3.67-1.057-5.504-.66-3.67-1.2-7.338-1.72-11.007l-2.5-21.36c-1.322-14.02-2.248-27.256-2.777-39.967-.528-12.58-.66-24.373-.132-35.38s1.322-21.097 3.702-30.008 6.477-16.38 11.5-21.62c4.9-5.24 10.575-8.386 15.202-9.96 4.76-1.703 8.593-2.096 11.237-2.358 1.322-.13 2.247-.13 2.908 0 .66 0 1.058.13 1.058.13h-1.07a27.15 27.15 0 0 0-2.908.131c-2.512.262-6.478.655-11.105 2.5-4.627 1.704-10.18 4.718-15.07 9.96s-8.857 12.58-11.236 21.36-3.173 19-3.702 29.877c-.397 11.007-.264 22.8.264 35.38.556 13.306 1.527 26.591 2.91 39.836.66 6.945 1.454 14.152 2.5 21.36l1.72 11.007c.264 1.835.66 3.67 1.058 5.504.264.917.396 1.835.66 2.752.132.393.264.917.396 1.3.132.262.132.393.264.655l.133.262v.132l-.133.262.133-.262c19.168 7.73 39.8 14.545 61.602 20.44 10.973 3.014 22.2 5.504 33.578 7.732 11.5 2.227 23.266 3.93 35.164 5.24h-.132c1.057-.13 2.115-.393 3.304-.655l43.493-7.862-.397.524-5.552-44.03.53.393-34.37 1.835h-.264l-.133-.262c-3.172-6.028-8.725-10.745-15.202-12.187l-19.168-4.98-35.957-8.518-.265-.13v-.262l2.248-60.146c.925-17.822.132-33.284-2.644-45.733-1.182-5.514-3.094-10.846-5.685-15.855-2.38-4.325-5.023-7.6-7.535-9.828-1.2-1.18-2.5-1.966-3.57-2.752-1.058-.655-2.115-1.18-2.776-1.572-1.586-.656-2.38-1.05-2.38-1.05l.133.393.019.002zM158.98 517.98c-.265 0 .132-9.304 1.057-20.704.794-11.4 1.72-20.704 1.983-20.573.265 0-.132 9.304-1.057 20.704-.793 11.4-1.72 20.704-1.983 20.573z"/><path d="M61.684 470l.396-1.44c.397-.918.926-2.228 1.85-3.67 1.85-3.014 5.156-6.683 9.518-9.828s8.725-5.242 11.897-6.814c3.173-1.442 5.156-2.228 5.288-2.097 0 .13-1.85 1.18-4.9 2.752s-7.403 3.8-11.633 6.945-7.535 6.552-9.518 9.435-2.776 4.848-2.908 4.717h.01zm52.53 63.317s-.264.13-.925.262l-2.644.393c-2.248.393-5.552.786-9.518 1.048-4.098.393-8.857.524-14.277.524-5.42-.13-11.237-.393-17.45-1.048-6.213-.786-12.03-1.704-17.318-2.883s-9.914-2.5-13.748-3.67-7.006-2.36-9.12-3.145c-.926-.393-1.72-.655-2.38-1.048l-.793-.393s.264 0 .925.262 1.455.524 2.512.786c2.115.786 5.288 1.703 9.122 2.883s8.592 2.358 13.748 3.407c5.288 1.048 11.104 2.096 17.185 2.752s12.03 1.048 17.318 1.18 10.18 0 14.277-.262 7.27-.524 9.518-.786c1.057-.13 1.85-.13 2.644-.262h.925-.001z"/></g><path d="M274.973 462.53c-1.322-1.966-3.702-1.704-5.684-.263l-6.478 4.325c-1.85 1.048-3.7 1.834-5.817 2.358l-2.776.525c-5.42.917-10.972-.263-15.6-3.276l-1.057-.787s17.846-4.062 20.5-6.3l.132-.132c2.644-2.358.397-6.813-3.172-6.3l-22.474 3.407c-7.403 1.18-14.277 4.062-20.358 8.386-5.684 4.193-15.202 10.352-15.73 10.22l3.834 33.677 6.345-1.573 11.633 1.05c7.8.655 15.732-.918 22.606-4.456 4.362-2.227 8.328-4.455 8.725-5.1.925-1.704 2.643-8.387 2.643-8.387s4.363-2.75 4.627-4.586c.132-1.834-.396-5.24-.396-5.24s11.236-6.683 14.145-8.9c5.287-4.062 5.287-6.945 4.098-8.648h.264-.01z" class="J"/><path d="M243.448 486.665c0 .13 3.437-.655 7.27-2.62 3.834-1.834 6.6-4.062 6.477-4.193s-3.04 1.703-6.74 3.538l-6.875 3.276h-.132v-.001zm2.45 6.395c0 .13 1.983-.13 3.966-1.18 2.115-1.05 3.437-2.36 3.305-2.5s-1.586.917-3.57 1.835c-1.983 1.048-3.702 1.572-3.702 1.703v.13l.001.012zm-11.623-29.767c0 .13.926.786 2.644 1.835 2.296 1.39 4.733 2.532 7.27 3.407 3.04 1.05 5.817 1.3 7.932 1.3s3.305-.262 3.305-.262c0-.262-5.156.262-10.973-1.704-2.908-.917-5.42-2.227-7.27-3.145s-2.9-1.572-2.9-1.44l-.008.009z" class="G"/><g class="E"><path d="M109.265 310.257c-4.098 0-8.064-1.834-11.765-3.538-8.858-4.193-17.715-8.517-25.778-14.02-7.8-5.242-15.07-11.27-20.094-19.132 1.148 1.145 2.385 2.197 3.7 3.145 3.57 2.752 8.196 5.504 13.484 7.994 5.42 2.5 11.5 4.717 17.847 7.338 2.247.917 4.494 1.834 6.6 2.883a111.23 111.23 0 0 1 7.668 4.193c1.9 1.128 3.712 2.398 5.42 3.8l.396.262.265-.393c4.098-6.814 6.6-12.973 8.063-17.428.794-2.228 1.2-3.93 1.587-5.242.264-.917.396-1.572.396-1.834.265 7.862-.132 18.083-1.322 25.945-.264 1.704-.66 3.538-1.983 4.587-.925.786-2.247 1.048-3.437 1.18h-1.057v.262l.01-.002z"/><path d="M106.634 303.33l-.397-.262c-1.708-1.402-3.52-2.672-5.42-3.8l5.552 3.67c4.363-6.814 7.932-15.332 10.576-24.505v.13c0 .262-.132.787-.396 1.835-.265 1.18-.794 3.014-1.587 5.24-1.454 4.456-3.966 10.615-8.064 17.43l-.264.393v-.13-.001zm-13.484-8.387c-2.115-1.048-4.362-1.965-6.6-2.883-6.345-2.62-12.426-4.717-17.846-7.338-5.42-2.5-10.047-5.24-13.484-7.993-1.454-1.048-2.644-2.228-3.7-3.145-.265-.393-.397-.655-.66-1.048 0 0 4.23 6.552 26.44 15.462 5.316 2.147 10.562 4.464 15.731 6.945h.132-.013z"/></g><path d="M77.94 657c-.265 0-.66-13.235-.794-29.483l.133-29.484c.264 0 .66 13.235.793 29.484L77.94 657z" class="D"/><path d="M901 713.5c0 .249-201.686.5-450.501.5S0 713.749 0 713.5s201.685-.5 450.499-.5l450.501.5z" class="C"/><defs ><path id="B" d="M203.853 320.226c0 .262-9 1.048-19.962 1.704-11.104.655-20.093 1.048-20.093.786s9-1.048 19.96-1.704c11.105-.655 20.094-1.048 20.094-.786h.001z"/><path id="C" d="M282.86 320.615c0 .262-9 1.05-19.962 1.704-11.104.655-20.093 1.048-20.093.786s9-1.048 19.96-1.703c11.105-.656 20.094-1.05 20.094-.787h.001z"/><path id="D" d="M542.806 387.194s.396 47.174 2.776 61.588l59.752-2.752s-5.288-46.388-3.173-58.836h-59.355 0z"/><path id="E" d="M253.136 206.896s.396 47.174 2.776 61.588l59.752-2.752s-5.288-46.387-3.173-58.836h-59.355 0z"/></defs></svg>